<svg xmlns="http://www.w3.org/2000/svg" viewBox="0 0 445 175.95"><defs><style>.cls-1{fill:#0cc;}.cls-2{fill:#fff;}</style></defs><g id="Layer_2" data-name="Layer 2"><g id="Layer_1-2" data-name="Layer 1"><rect class="cls-1" width="445" height="166" rx="20"/><rect class="cls-1" x="390.63" y="155.63" width="17.52" height="17.52" rx="2" transform="translate(0.74 330.56) rotate(-45)"/><path class="cls-2" d="M50.21,40.4V53H48.93V42.92L44,51.4h-.63L38.4,43V53H37.12V40.4h1.1l5.47,9.34,5.42-9.34Zm7.92,6.48a4.28,4.28,0,0,1,2.72.79,2.74,2.74,0,0,1,.93,2.23,2.8,2.8,0,0,1-1,2.33,4.43,4.43,0,0,1-2.88.79l-3.74,0V43.53h1.28v3.31Zm5.24-3.35h1.27V53H63.37Zm-5.55,8.52a3,3,0,0,0,2-.53,2,2,0,0,0,.69-1.62,1.81,1.81,0,0,0-.67-1.54,3.39,3.39,0,0,0-2-.53l-2.39,0V52Zm25.76-8.52V53H82.41V45.51l-3.84,6.34H78l-3.84-6.36V53H73V43.53h1.3l4,6.82,4.09-6.82Zm7.54,9.56a5,5,0,0,1-2.47-.61,4.61,4.61,0,0,1-1.72-1.73,5.22,5.22,0,0,1,0-5,4.48,4.48,0,0,1,1.72-1.71,5.31,5.31,0,0,1,4.94,0,4.39,4.39,0,0,1,1.71,1.71,5.22,5.22,0,0,1,0,5,4.51,4.51,0,0,1-1.71,1.73A5,5,0,0,1,91.12,53.09Zm0-1.13a3.59,3.59,0,0,0,1.8-.45,3.27,3.27,0,0,0,1.26-1.32,4.34,4.34,0,0,0,0-3.85A3.16,3.16,0,0,0,92.92,45a3.5,3.5,0,0,0-1.8-.46A3.59,3.59,0,0,0,89.3,45,3.29,3.29,0,0,0,88,46.34a4.34,4.34,0,0,0,0,3.85,3.41,3.41,0,0,0,1.26,1.32A3.69,3.69,0,0,0,91.12,52Zm15.5-3.17h-2.05V53h-1.28V48.79h-2.05L98.34,53H96.81l3.4-4.88-3.13-4.59h1.39l2.77,4.16h2.05V43.53h1.28v4.16h2.05l2.79-4.16h1.39l-3.13,4.61,3.4,4.86h-1.53Zm14.52-.13h-7.92a3.44,3.44,0,0,0,1.13,2.4,3.81,3.81,0,0,0,2.6.9,4.29,4.29,0,0,0,1.62-.31,3.7,3.7,0,0,0,1.28-.94l.72.83A3.93,3.93,0,0,1,119,52.69a5.13,5.13,0,0,1-2.07.4,5.33,5.33,0,0,1-2.59-.61,4.55,4.55,0,0,1-1.75-1.73,4.89,4.89,0,0,1-.63-2.48,5.1,5.1,0,0,1,.6-2.49,4.52,4.52,0,0,1,1.65-1.71,4.66,4.66,0,0,1,2.38-.61,4.56,4.56,0,0,1,2.36.61,4.42,4.42,0,0,1,1.64,1.71,5.15,5.15,0,0,1,.59,2.49Zm-4.57-4.1a3.25,3.25,0,0,0-2.31.88,3.4,3.4,0,0,0-1,2.27h6.71a3.34,3.34,0,0,0-1.06-2.27A3.18,3.18,0,0,0,116.57,44.56Zm18-1V53H133.4V45.51l-3.83,6.34H129l-3.83-6.36V53H124V43.53h1.29l4,6.82,4.08-6.82Zm16.85,0V53h-1.28V44.67H144.2V53h-1.28V43.53ZM159,53.09a4.93,4.93,0,0,1-2.46-.61,4.63,4.63,0,0,1-1.73-1.73,5.22,5.22,0,0,1,0-5,4.51,4.51,0,0,1,1.73-1.71,5.29,5.29,0,0,1,4.93,0,4.39,4.39,0,0,1,1.71,1.71,5.22,5.22,0,0,1,0,5,4.51,4.51,0,0,1-1.71,1.73A4.94,4.94,0,0,1,159,53.09ZM159,52a3.54,3.54,0,0,0,1.8-.45A3.27,3.27,0,0,0,162,50.19a4.34,4.34,0,0,0,0-3.85,3.16,3.16,0,0,0-1.26-1.3,3.44,3.44,0,0,0-1.8-.46,3.56,3.56,0,0,0-1.81.46,3.29,3.29,0,0,0-1.26,1.3,4.34,4.34,0,0,0,0,3.85,3.41,3.41,0,0,0,1.26,1.32A3.65,3.65,0,0,0,159,52Zm16.72-.08v3.41h-1.2V53H166v2.29h-1.21V51.88h.54c.64,0,1.07-.5,1.3-1.4a20.88,20.88,0,0,0,.47-3.78l.12-3.17h7v8.35Zm-7.41-5.11a23.2,23.2,0,0,1-.35,3.33,2.71,2.71,0,0,1-.9,1.78h5.91V44.67h-4.55Zm9.9-3.24h1.28v4.2h6v-4.2h1.28V53H185.4V48.82h-6V53h-1.28Zm19.42,0V53h-1.17V49.87h-3.33L190.89,53H189.5l2.36-3.31a3.17,3.17,0,0,1-1.69-1,3.22,3.22,0,0,1,.48-4.28,4.76,4.76,0,0,1,2.95-.83Zm-6.71,3.28c0,1.4.89,2.1,2.68,2.1h2.86V44.67h-2.77C191.79,44.67,190.87,45.38,190.87,46.81Zm17-2.14H204.3V53H203V44.67h-3.59V43.53h8.45Zm5.91,2.21a4.18,4.18,0,0,1,2.7.79,2.72,2.72,0,0,1,.94,2.23,2.83,2.83,0,0,1-1,2.33,4.4,4.4,0,0,1-2.88.79l-3.82,0V43.53H211v3.31Zm-.32,5.17a3.06,3.06,0,0,0,2-.53,2,2,0,0,0,.68-1.62,1.81,1.81,0,0,0-.66-1.54,3.41,3.41,0,0,0-2-.53l-2.47,0V52Zm17.14-3.95a2.4,2.4,0,0,1,1,4.23,4.64,4.64,0,0,1-2.74.67h-4.3V43.53h4.17a4.44,4.44,0,0,1,2.54.63,2.06,2.06,0,0,1,.92,1.8,2.08,2.08,0,0,1-.43,1.33A2.52,2.52,0,0,1,230.62,48.1Zm-4.79-.36h2.84a2.84,2.84,0,0,0,1.68-.41,1.4,1.4,0,0,0,.59-1.21,1.33,1.33,0,0,0-.59-1.18,2.92,2.92,0,0,0-1.68-.4h-2.84Zm3,4.25a3.46,3.46,0,0,0,1.83-.39,1.38,1.38,0,0,0,.61-1.25,1.43,1.43,0,0,0-.55-1.24A3.06,3.06,0,0,0,229,48.7h-3.13V52Zm10-8.53a4,4,0,0,1,2.84.94,3.54,3.54,0,0,1,1,2.73V53h-1.22V51.52a3,3,0,0,1-1.28,1.16,4.45,4.45,0,0,1-2,.41,3.85,3.85,0,0,1-2.52-.76,2.6,2.6,0,0,1-.07-3.94,4.31,4.31,0,0,1,2.79-.74h3v-.57a2.42,2.42,0,0,0-.68-1.86,2.81,2.81,0,0,0-2-.64,5,5,0,0,0-1.73.3,4.21,4.21,0,0,0-1.42.81l-.57-.95a4.92,4.92,0,0,1,1.72-.94A6.56,6.56,0,0,1,238.8,43.46Zm-.45,8.62a3.44,3.44,0,0,0,1.85-.48,3,3,0,0,0,1.15-1.44V48.61h-3c-1.62,0-2.43.56-2.43,1.69a1.56,1.56,0,0,0,.63,1.31A2.87,2.87,0,0,0,238.35,52.08Zm20.75-8.55V53H246V43.53h1.28v8.35H252V43.53h1.28v8.35h4.59V43.53Zm15,1.14h-3.58V53h-1.28V44.67h-3.58V43.53h8.44Zm5.31,8.42a4.93,4.93,0,0,1-2.46-.61,4.63,4.63,0,0,1-1.73-1.73,5.22,5.22,0,0,1,0-5A4.51,4.51,0,0,1,277,44.07a5.29,5.29,0,0,1,4.93,0,4.39,4.39,0,0,1,1.71,1.71,5.22,5.22,0,0,1,0,5,4.51,4.51,0,0,1-1.71,1.73A4.94,4.94,0,0,1,279.43,53.09Zm0-1.13a3.54,3.54,0,0,0,1.8-.45,3.21,3.21,0,0,0,1.26-1.32,4.26,4.26,0,0,0,0-3.85,3.1,3.1,0,0,0-1.26-1.3,3.44,3.44,0,0,0-1.8-.46,3.56,3.56,0,0,0-1.81.46,3.29,3.29,0,0,0-1.26,1.3,4.34,4.34,0,0,0,0,3.85,3.41,3.41,0,0,0,1.26,1.32A3.65,3.65,0,0,0,279.43,52ZM293,48.1a2.39,2.39,0,0,1,1,4.23,4.59,4.59,0,0,1-2.74.67H287V43.53h4.18a4.46,4.46,0,0,1,2.54.63,2.05,2.05,0,0,1,.91,1.8,2.08,2.08,0,0,1-.43,1.33A2.42,2.42,0,0,1,293,48.1Zm-4.79-.36h2.85a2.8,2.8,0,0,0,1.67-.41,1.38,1.38,0,0,0,.6-1.21,1.32,1.32,0,0,0-.6-1.18,2.88,2.88,0,0,0-1.67-.4h-2.85Zm3,4.25a3.47,3.47,0,0,0,1.84-.39,1.4,1.4,0,0,0,.61-1.25,1.43,1.43,0,0,0-.56-1.24,3,3,0,0,0-1.76-.41h-3.14V52Zm10-8.53a3.94,3.94,0,0,1,2.84.94,3.54,3.54,0,0,1,1,2.73V53h-1.23V51.52a2.9,2.9,0,0,1-1.28,1.16,4.45,4.45,0,0,1-2,.41,3.88,3.88,0,0,1-2.52-.76,2.62,2.62,0,0,1-.07-3.94,4.33,4.33,0,0,1,2.79-.74h3v-.57a2.39,2.39,0,0,0-.69-1.86,2.8,2.8,0,0,0-2-.64,5,5,0,0,0-1.72.3,4.17,4.17,0,0,0-1.43.81l-.57-.95a5.06,5.06,0,0,1,1.73-.94A6.5,6.5,0,0,1,301.18,43.46Zm-.45,8.62a3.42,3.42,0,0,0,1.85-.48,3.08,3.08,0,0,0,1.16-1.44V48.61h-3c-1.62,0-2.43.56-2.43,1.69a1.56,1.56,0,0,0,.63,1.31A2.85,2.85,0,0,0,300.73,52.08Zm12.57-8.62a4.8,4.8,0,0,1,2.41.61,4.29,4.29,0,0,1,1.69,1.69,5.49,5.49,0,0,1,0,5,4.41,4.41,0,0,1-1.69,1.71,4.92,4.92,0,0,1-2.41.59,4.62,4.62,0,0,1-2.09-.47,4,4,0,0,1-1.51-1.4v5.27h-1.28v-13h1.22V45.4A4.08,4.08,0,0,1,311.15,44,4.6,4.6,0,0,1,313.3,43.46Zm-.09,8.5a3.64,3.64,0,0,0,1.8-.45,3.27,3.27,0,0,0,1.26-1.32,3.9,3.9,0,0,0,.46-1.92,3.83,3.83,0,0,0-.46-1.91A3.27,3.27,0,0,0,315,45a3.79,3.79,0,0,0-3.62,0,3.41,3.41,0,0,0-1.26,1.32,3.93,3.93,0,0,0-.45,1.91,4,4,0,0,0,.45,1.92,3.41,3.41,0,0,0,1.26,1.32A3.67,3.67,0,0,0,313.21,52ZM42.85,72.1a2.4,2.4,0,0,1,1,4.23,4.64,4.64,0,0,1-2.74.67h-4.3V67.53H41a4.44,4.44,0,0,1,2.54.63,2.06,2.06,0,0,1,.92,1.8A2.08,2.08,0,0,1,44,71.29,2.52,2.52,0,0,1,42.85,72.1Zm-4.79-.36H40.9a2.84,2.84,0,0,0,1.68-.41,1.4,1.4,0,0,0,.59-1.21,1.33,1.33,0,0,0-.59-1.18,2.92,2.92,0,0,0-1.68-.4H38.06Zm3,4.25a3.46,3.46,0,0,0,1.83-.39,1.38,1.38,0,0,0,.61-1.25A1.43,1.43,0,0,0,43,73.11a3.06,3.06,0,0,0-1.77-.41H38.06V76ZM61,67.53V77H59.7V68.67H53.76V77H52.48V67.53Zm7.53,9.56a4.93,4.93,0,0,1-2.46-.61,4.63,4.63,0,0,1-1.73-1.73,5.22,5.22,0,0,1,0-5,4.51,4.51,0,0,1,1.73-1.71,5.29,5.29,0,0,1,4.93,0,4.39,4.39,0,0,1,1.71,1.71,5.22,5.22,0,0,1,0,5A4.51,4.51,0,0,1,71,76.48,4.94,4.94,0,0,1,68.51,77.09Zm0-1.13a3.6,3.6,0,0,0,1.81-.45,3.31,3.31,0,0,0,1.25-1.32,4.34,4.34,0,0,0,0-3.85A3.2,3.2,0,0,0,70.32,69a3.51,3.51,0,0,0-1.81-.46A3.56,3.56,0,0,0,66.7,69a3.29,3.29,0,0,0-1.26,1.3,4.34,4.34,0,0,0,0,3.85,3.41,3.41,0,0,0,1.26,1.32A3.65,3.65,0,0,0,68.51,76Zm7.54-8.43h1.28v7.53l6.32-7.53h1.13V77H83.5V69.48L77.2,77H76.05ZM92.4,77.09a5.16,5.16,0,0,1-2.52-.61,4.48,4.48,0,0,1-1.72-1.71,5,5,0,0,1-.63-2.5,4.9,4.9,0,0,1,.63-2.49,4.48,4.48,0,0,1,1.72-1.71,5.16,5.16,0,0,1,2.52-.61,4.64,4.64,0,0,1,2.18.49,3.53,3.53,0,0,1,1.53,1.38l-1,.65a2.83,2.83,0,0,0-1.19-1,3.45,3.45,0,0,0-1.57-.36,3.71,3.71,0,0,0-1.85.46,3.33,3.33,0,0,0-1.28,1.3,4.39,4.39,0,0,0,0,3.87,3.55,3.55,0,0,0,1.28,1.3A3.81,3.81,0,0,0,92.4,76,3.58,3.58,0,0,0,94,75.61a2.83,2.83,0,0,0,1.19-1l1,.65a3.63,3.63,0,0,1-1.53,1.4A5,5,0,0,1,92.4,77.09Zm9.63-4.3H99.87V77H98.59V67.53h1.28v4.16H102l3.33-4.16h1.39L103,72.12,107,77h-1.51Zm10.59,4.3a5,5,0,0,1-2.47-.61,4.61,4.61,0,0,1-1.72-1.73,5.14,5.14,0,0,1,0-5,4.48,4.48,0,0,1,1.72-1.71,5.31,5.31,0,0,1,4.94,0,4.3,4.3,0,0,1,1.7,1.71,5.14,5.14,0,0,1,0,5,4.42,4.42,0,0,1-1.7,1.73A5,5,0,0,1,112.62,77.09Zm0-1.13a3.59,3.59,0,0,0,1.8-.45,3.27,3.27,0,0,0,1.26-1.32,4.34,4.34,0,0,0,0-3.85,3.16,3.16,0,0,0-1.26-1.3,3.5,3.5,0,0,0-1.8-.46,3.59,3.59,0,0,0-1.82.46,3.29,3.29,0,0,0-1.26,1.3,4.34,4.34,0,0,0,0,3.85,3.41,3.41,0,0,0,1.26,1.32A3.69,3.69,0,0,0,112.62,76Zm13.57-3.86a2.39,2.39,0,0,1,1,4.23,4.58,4.58,0,0,1-2.73.67h-4.3V67.53h4.17a4.44,4.44,0,0,1,2.54.63,2.06,2.06,0,0,1,.92,1.8,2.14,2.14,0,0,1-.43,1.33A2.52,2.52,0,0,1,126.19,72.1Zm-4.79-.36h2.84a2.86,2.86,0,0,0,1.68-.41,1.4,1.4,0,0,0,.59-1.21,1.33,1.33,0,0,0-.59-1.18,2.94,2.94,0,0,0-1.68-.4H121.4Zm3,4.25a3.47,3.47,0,0,0,1.84-.39,1.38,1.38,0,0,0,.61-1.25,1.41,1.41,0,0,0-.56-1.24,3,3,0,0,0-1.76-.41H121.4V76ZM135,77.09a4.93,4.93,0,0,1-2.46-.61,4.63,4.63,0,0,1-1.73-1.73,5.22,5.22,0,0,1,0-5,4.51,4.51,0,0,1,1.73-1.71,5.29,5.29,0,0,1,4.93,0,4.39,4.39,0,0,1,1.71,1.71,5.22,5.22,0,0,1,0,5,4.51,4.51,0,0,1-1.71,1.73A4.94,4.94,0,0,1,135,77.09ZM135,76a3.56,3.56,0,0,0,1.8-.45,3.27,3.27,0,0,0,1.26-1.32,4.34,4.34,0,0,0,0-3.85,3.16,3.16,0,0,0-1.26-1.3,3.47,3.47,0,0,0-1.8-.46,3.56,3.56,0,0,0-1.81.46,3.38,3.38,0,0,0-1.27,1.3,4,4,0,0,0-.44,1.93,4,4,0,0,0,.44,1.92,3.51,3.51,0,0,0,1.27,1.32A3.65,3.65,0,0,0,135,76Zm7.54-8.43h1.28v7.53l6.32-7.53h1.13V77H150V69.48L143.7,77h-1.15Zm4.3-1.37a2.89,2.89,0,0,1-1.94-.61,2.19,2.19,0,0,1-.74-1.73h.92a1.52,1.52,0,0,0,.5,1.14,1.93,1.93,0,0,0,1.26.41,1.89,1.89,0,0,0,1.26-.41,1.47,1.47,0,0,0,.52-1.14h.92a2.16,2.16,0,0,1-.75,1.73A2.9,2.9,0,0,1,146.85,66.16Zm18.83,5.94a2.39,2.39,0,0,1,1,4.23A4.58,4.58,0,0,1,164,77h-4.31V67.53h4.18a4.44,4.44,0,0,1,2.54.63,2.06,2.06,0,0,1,.92,1.8,2.09,2.09,0,0,1-.44,1.33A2.42,2.42,0,0,1,165.68,72.1Zm-4.78-.36h2.84a2.8,2.8,0,0,0,1.67-.41,1.38,1.38,0,0,0,.6-1.21,1.32,1.32,0,0,0-.6-1.18,2.88,2.88,0,0,0-1.67-.4H160.9Zm3,4.25a3.47,3.47,0,0,0,1.84-.39,1.38,1.38,0,0,0,.61-1.25,1.43,1.43,0,0,0-.56-1.24A3,3,0,0,0,164,72.7H160.9V76Zm10.68-5.11a4.26,4.26,0,0,1,2.72.79,2.72,2.72,0,0,1,.94,2.23,2.83,2.83,0,0,1-1,2.33,4.43,4.43,0,0,1-2.88.79l-3.75,0V67.53h1.28v3.31Zm5.24-3.35h1.28V77h-1.28Zm-5.54,8.52a3.06,3.06,0,0,0,2-.53,2,2,0,0,0,.68-1.62,1.79,1.79,0,0,0-.67-1.54,3.38,3.38,0,0,0-2-.53l-2.4,0V76ZM194,75.88v3.41h-1.2V77h-8.48v2.29h-1.21V75.88h.54c.64,0,1.07-.5,1.3-1.4a20.88,20.88,0,0,0,.47-3.78l.12-3.17h7v8.35Zm-7.41-5.11a23.2,23.2,0,0,1-.35,3.33,2.71,2.71,0,0,1-.9,1.78h5.91V68.67h-4.56Zm13.16-3.31a4,4,0,0,1,2.85.94,3.53,3.53,0,0,1,1,2.73V77h-1.22V75.52a2.9,2.9,0,0,1-1.28,1.16,4.45,4.45,0,0,1-2,.41,3.88,3.88,0,0,1-2.52-.76,2.62,2.62,0,0,1-.07-3.94,4.33,4.33,0,0,1,2.79-.74h3v-.57a2.39,2.39,0,0,0-.69-1.86,2.79,2.79,0,0,0-2-.64,5,5,0,0,0-1.73.3,4.12,4.12,0,0,0-1.42.81l-.58-1a5,5,0,0,1,1.73-.94A6.5,6.5,0,0,1,199.72,67.46Zm-.45,8.62a3.42,3.42,0,0,0,1.85-.48,3.08,3.08,0,0,0,1.16-1.44V72.61h-3c-1.62,0-2.43.56-2.43,1.69a1.56,1.56,0,0,0,.63,1.31A2.85,2.85,0,0,0,199.27,76.08Zm14.83-8.55V77h-1.27V73.06a8,8,0,0,1-3.23.72,4.09,4.09,0,0,1-2.66-.78,2.86,2.86,0,0,1-1-2.35V67.53h1.28v3a2,2,0,0,0,.69,1.62,3,3,0,0,0,1.89.54,7.74,7.74,0,0,0,3-.7v-4.5ZM226,72.66h-7.92a3.41,3.41,0,0,0,1.14,2.4,3.76,3.76,0,0,0,2.59.9,4.25,4.25,0,0,0,1.62-.31,3.7,3.7,0,0,0,1.28-.94l.72.83a3.93,3.93,0,0,1-1.59,1.15,5.13,5.13,0,0,1-2.07.4,5.36,5.36,0,0,1-2.59-.61,4.61,4.61,0,0,1-1.75-1.73,4.89,4.89,0,0,1-.63-2.48,5.1,5.1,0,0,1,.6-2.49,4.52,4.52,0,0,1,1.65-1.71,4.66,4.66,0,0,1,2.38-.61,4.56,4.56,0,0,1,2.36.61,4.42,4.42,0,0,1,1.64,1.71,5.15,5.15,0,0,1,.59,2.49Zm-4.57-4.1a3.21,3.21,0,0,0-2.3.88,3.41,3.41,0,0,0-1,2.27h6.72a3.39,3.39,0,0,0-1.07-2.27A3.18,3.18,0,0,0,221.44,68.56ZM229,75.13a.87.87,0,0,1,.68.29.91.91,0,0,1,.27.68,1.67,1.67,0,0,1-.07.47,4.55,4.55,0,0,1-.18.57l-.76,2.49h-.86l.61-2.61a.92.92,0,0,1-.47-.33,1,1,0,0,1-.18-.59.91.91,0,0,1,.27-.68A.88.88,0,0,1,229,75.13Zm16.46-7.6-4.73,10.6A4.51,4.51,0,0,1,239.36,80a2.91,2.91,0,0,1-1.81.56,3.78,3.78,0,0,1-1.28-.21,2.82,2.82,0,0,1-1-.65l.6-1a2.34,2.34,0,0,0,1.72.72,1.69,1.69,0,0,0,1.1-.36,3.25,3.25,0,0,0,.87-1.22l.41-.92-4.23-9.45H237l3.57,8,3.56-8Zm9.31,0V77h-1.28V68.67h-4.53L248.8,71a17.56,17.56,0,0,1-.68,4.53,2,2,0,0,1-1.93,1.59,3.56,3.56,0,0,1-.92-.15l.09-1.1a2.66,2.66,0,0,0,.45.08,1.21,1.21,0,0,0,1.12-.69,4.61,4.61,0,0,0,.5-1.69c.09-.67.16-1.56.22-2.66l.16-3.39Zm11.68,0-4.74,10.6A4.41,4.41,0,0,1,260.35,80a2.91,2.91,0,0,1-1.81.56,3.78,3.78,0,0,1-1.28-.21,2.82,2.82,0,0,1-1-.65l.6-1a2.33,2.33,0,0,0,1.72.72,1.71,1.71,0,0,0,1.1-.36,3.25,3.25,0,0,0,.87-1.22l.41-.92-4.23-9.45H258l3.57,8,3.56-8Zm9.14,0V77h-1.28V73.06a8,8,0,0,1-3.22.72,4.12,4.12,0,0,1-2.67-.78,2.88,2.88,0,0,1-.95-2.35V67.53h1.28v3a2,2,0,0,0,.68,1.62,3,3,0,0,0,1.89.54,7.74,7.74,0,0,0,3-.7v-4.5Zm16.69,0V77H279.18V67.53h1.28v8.35h4.65V67.53h1.28v8.35H291V67.53Zm3.65,0h1.28v7.53l6.32-7.53h1.13V77h-1.28V69.48L297.05,77H295.9Zm18.43,4.57a2.39,2.39,0,0,1,1,4.23,4.58,4.58,0,0,1-2.73.67h-4.3V67.53h4.17a4.44,4.44,0,0,1,2.54.63,2.06,2.06,0,0,1,.92,1.8,2.09,2.09,0,0,1-.44,1.33A2.44,2.44,0,0,1,314.33,72.1Zm-4.79-.36h2.84a2.8,2.8,0,0,0,1.67-.41,1.38,1.38,0,0,0,.6-1.21,1.32,1.32,0,0,0-.6-1.18,2.88,2.88,0,0,0-1.67-.4h-2.84Zm3,4.25a3.47,3.47,0,0,0,1.84-.39,1.38,1.38,0,0,0,.61-1.25,1.43,1.43,0,0,0-.56-1.24,3,3,0,0,0-1.76-.41h-3.13V76Zm13.85-6.42a6.36,6.36,0,0,1,4,1,3.24,3.24,0,0,1,1.26,2.73,3.68,3.68,0,0,1-.52,2,3.37,3.37,0,0,1-1.53,1.37,5.75,5.75,0,0,1-2.52.49,7.88,7.88,0,0,1-2.57-.43,5.29,5.29,0,0,1-1.94-1.19l.63-1a4.61,4.61,0,0,0,1.65,1.06,6,6,0,0,0,2.22.4,3.68,3.68,0,0,0,2.41-.7,2.3,2.3,0,0,0,.86-1.87,2.23,2.23,0,0,0-1-2,5.94,5.94,0,0,0-3.24-.66h-2.68l.65-6.32H331v1.15H325.2l-.43,4ZM48.25,96.25a4.36,4.36,0,0,1-1.46,3.47,6.53,6.53,0,0,1-4.12,1.37v3.4H41.43v-3.38a6.5,6.5,0,0,1-4.11-1.37,4.43,4.43,0,0,1-1.44-3.49,4.3,4.3,0,0,1,1.44-3.44,6.55,6.55,0,0,1,4.11-1.35V87.64h1.24v3.82a6.65,6.65,0,0,1,4.12,1.37A4.27,4.27,0,0,1,48.25,96.25Zm-11.11,0a3.32,3.32,0,0,0,1.08,2.64A5.2,5.2,0,0,0,41.43,100V92.59a5.16,5.16,0,0,0-3.19,1.07A3.21,3.21,0,0,0,37.14,96.25ZM42.67,100a5.13,5.13,0,0,0,3.2-1.06A3.28,3.28,0,0,0,47,96.25a3.19,3.19,0,0,0-1.12-2.61,5.25,5.25,0,0,0-3.2-1Zm11.49-8.51A4,4,0,0,1,57,92.4a3.54,3.54,0,0,1,1,2.73V101H56.77V99.52a3,3,0,0,1-1.28,1.16,4.45,4.45,0,0,1-2,.41,3.85,3.85,0,0,1-2.52-.76,2.6,2.6,0,0,1-.07-3.94,4.29,4.29,0,0,1,2.79-.74h3v-.57A2.42,2.42,0,0,0,56,93.22a2.81,2.81,0,0,0-2-.64,5,5,0,0,0-1.73.3,4.21,4.21,0,0,0-1.42.81l-.58-1A5.06,5.06,0,0,1,52,91.8,6.51,6.51,0,0,1,54.16,91.46Zm-.45,8.62a3.44,3.44,0,0,0,1.85-.48,3,3,0,0,0,1.15-1.44V96.61h-3c-1.62,0-2.43.56-2.43,1.69a1.56,1.56,0,0,0,.63,1.31A2.87,2.87,0,0,0,53.71,100.08Zm11.12-3.29H62.67V101H61.39V91.53h1.28v4.16h2.18l3.33-4.16h1.38l-3.72,4.59,4,4.88H68.32Zm13.49-4.12H74.74V101H73.46V92.67H69.88V91.53h8.44Zm5.31,8.42a4.93,4.93,0,0,1-2.46-.61,4.56,4.56,0,0,1-1.73-1.73,5.22,5.22,0,0,1,0-5,4.44,4.44,0,0,1,1.73-1.71,5.29,5.29,0,0,1,4.93,0,4.39,4.39,0,0,1,1.71,1.71,5.22,5.22,0,0,1,0,5,4.51,4.51,0,0,1-1.71,1.73A5,5,0,0,1,83.63,101.09Zm0-1.13a3.59,3.59,0,0,0,1.8-.45,3.27,3.27,0,0,0,1.26-1.32,4.34,4.34,0,0,0,0-3.85A3.16,3.16,0,0,0,85.43,93a3.5,3.5,0,0,0-1.8-.46,3.59,3.59,0,0,0-1.82.46,3.43,3.43,0,0,0-1.26,1.3,4.34,4.34,0,0,0,0,3.85,3.56,3.56,0,0,0,1.26,1.32A3.69,3.69,0,0,0,83.63,100Zm12.42-8.5a4.77,4.77,0,0,1,2.41.61,4.29,4.29,0,0,1,1.69,1.69,5.49,5.49,0,0,1,0,5,4.41,4.41,0,0,1-1.69,1.71,4.92,4.92,0,0,1-2.41.59,4.62,4.62,0,0,1-2.09-.47,4,4,0,0,1-1.51-1.4v5.27H91.17v-13h1.22V93.4A4,4,0,0,1,93.91,92,4.56,4.56,0,0,1,96.05,91.46ZM96,100a3.64,3.64,0,0,0,1.8-.45A3.27,3.27,0,0,0,99,98.19a3.9,3.9,0,0,0,.47-1.92A3.83,3.83,0,0,0,99,94.36,3.27,3.27,0,0,0,97.76,93a3.55,3.55,0,0,0-1.8-.46,3.59,3.59,0,0,0-1.82.46,3.41,3.41,0,0,0-1.26,1.32,3.93,3.93,0,0,0-.45,1.91,4,4,0,0,0,.45,1.92,3.41,3.41,0,0,0,1.26,1.32A3.69,3.69,0,0,0,96,100Zm11.45,1.13a4.93,4.93,0,0,1-2.46-.61,4.63,4.63,0,0,1-1.73-1.73,5.22,5.22,0,0,1,0-5A4.51,4.51,0,0,1,105,92.07a5.29,5.29,0,0,1,4.93,0,4.39,4.39,0,0,1,1.71,1.71,5.22,5.22,0,0,1,0,5,4.51,4.51,0,0,1-1.71,1.73A4.94,4.94,0,0,1,107.41,101.09Zm0-1.13a3.54,3.54,0,0,0,1.8-.45,3.23,3.23,0,0,0,1.27-1.32,4.12,4.12,0,0,0,.45-1.92,4.16,4.16,0,0,0-.45-1.93,3.12,3.12,0,0,0-1.27-1.3,3.44,3.44,0,0,0-1.8-.46,3.56,3.56,0,0,0-1.81.46,3.29,3.29,0,0,0-1.26,1.3,4.34,4.34,0,0,0,0,3.85,3.41,3.41,0,0,0,1.26,1.32A3.65,3.65,0,0,0,107.41,100ZM121,96.1a2.39,2.39,0,0,1,1,4.23,4.58,4.58,0,0,1-2.73.67H115V91.53h4.18a4.46,4.46,0,0,1,2.54.63,2.06,2.06,0,0,1,.92,1.8,2.09,2.09,0,0,1-.44,1.33A2.42,2.42,0,0,1,121,96.1Zm-4.78-.36H119a2.8,2.8,0,0,0,1.67-.41,1.38,1.38,0,0,0,.6-1.21,1.32,1.32,0,0,0-.6-1.18,2.88,2.88,0,0,0-1.67-.4H116.2Zm3,4.25A3.47,3.47,0,0,0,121,99.6a1.38,1.38,0,0,0,.61-1.25,1.43,1.43,0,0,0-.56-1.24,3,3,0,0,0-1.76-.41H116.2V100Zm17.45-3.89a2.39,2.39,0,0,1,1,4.23,4.58,4.58,0,0,1-2.73.67h-4.3V91.53h4.17a4.44,4.44,0,0,1,2.54.63,2.06,2.06,0,0,1,.92,1.8,2.14,2.14,0,0,1-.43,1.33A2.52,2.52,0,0,1,136.65,96.1Zm-4.79-.36h2.84a2.86,2.86,0,0,0,1.68-.41,1.4,1.4,0,0,0,.59-1.21,1.33,1.33,0,0,0-.59-1.18,2.94,2.94,0,0,0-1.68-.4h-2.84Zm3,4.25a3.47,3.47,0,0,0,1.84-.39,1.38,1.38,0,0,0,.61-1.25,1.43,1.43,0,0,0-.56-1.24A3,3,0,0,0,135,96.7h-3.13V100Zm14.45-8.46V101H148V92.67h-4.54L143.37,95a17.49,17.49,0,0,1-.69,4.53,2,2,0,0,1-1.92,1.59,3.49,3.49,0,0,1-.92-.15l.09-1.1a2.37,2.37,0,0,0,.45.08,1.2,1.2,0,0,0,1.11-.69,4.61,4.61,0,0,0,.51-1.69c.08-.67.15-1.56.21-2.66l.17-3.39Zm3.63,0h1.28v7.53l6.32-7.53h1.13V101h-1.28V93.48l-6.3,7.52h-1.15Zm19.66,0V101h-1.17V97.87H168.1L165.91,101h-1.39l2.36-3.31a3.17,3.17,0,0,1-1.69-1,3.22,3.22,0,0,1,.48-4.28,4.77,4.77,0,0,1,3-.83Zm-6.71,3.28c0,1.4.89,2.1,2.68,2.1h2.86V92.67h-2.77C166.81,92.67,165.89,93.38,165.89,94.81Zm18.49-3.35a4.71,4.71,0,0,1,2.4.61,4.41,4.41,0,0,1,1.69,1.71,5.37,5.37,0,0,1,0,5,4.53,4.53,0,0,1-1.69,1.73,4.71,4.71,0,0,1-2.4.61,4.8,4.8,0,0,1-2.28-.54A4.66,4.66,0,0,1,180.42,99a4.76,4.76,0,0,1-.73-2.23h-2.16V101h-1.28V91.53h1.28v4.09h2.17a4.83,4.83,0,0,1,.78-2.16A4.42,4.42,0,0,1,182.13,92,4.84,4.84,0,0,1,184.38,91.46Zm0,8.51a3.34,3.34,0,0,0,1.75-.46,3.29,3.29,0,0,0,1.24-1.32,4.34,4.34,0,0,0,0-3.85,3.17,3.17,0,0,0-1.24-1.3,3.34,3.34,0,0,0-1.75-.46,3.43,3.43,0,0,0-1.76.46,3.19,3.19,0,0,0-1.22,1.3,4.34,4.34,0,0,0,0,3.85,3.31,3.31,0,0,0,1.22,1.32A3.43,3.43,0,0,0,184.38,100Zm20.51-8.44V101H191.82V91.53h1.28v8.35h4.64V91.53H199v8.35h4.59V91.53Zm1.46,8.35v3.19h-1.21V101h-1.6V99.88Zm2.19-8.35h1.28v7.53l6.32-7.53h1.13V101H216V93.48l-6.3,7.52h-1.15ZM226.85,101l-3-4-3,4h-1.44l3.75-4.86-3.57-4.61H221l2.85,3.71,2.84-3.71h1.41l-3.57,4.61,3.78,4.86Zm8.27-9.47h1.27v4.2h6v-4.2h1.28V101h-1.28V96.82h-6V101h-1.27Zm15.4-.07a3.94,3.94,0,0,1,2.84.94,3.54,3.54,0,0,1,1,2.73V101h-1.23V99.52a2.9,2.9,0,0,1-1.28,1.16,4.45,4.45,0,0,1-2,.41,3.88,3.88,0,0,1-2.52-.76,2.62,2.62,0,0,1-.07-3.94,4.33,4.33,0,0,1,2.79-.74h3v-.57a2.39,2.39,0,0,0-.69-1.86,2.8,2.8,0,0,0-2-.64,5,5,0,0,0-1.72.3,4.17,4.17,0,0,0-1.43.81l-.57-1a5.06,5.06,0,0,1,1.73-.94A6.5,6.5,0,0,1,250.52,91.46Zm-.45,8.62a3.42,3.42,0,0,0,1.85-.48,3,3,0,0,0,1.16-1.44V96.61h-3c-1.62,0-2.43.56-2.43,1.69a1.56,1.56,0,0,0,.63,1.31A2.85,2.85,0,0,0,250.07,100.08ZM271,91.53V101h-1.27V92.67h-5.94V101h-1.28V91.53Zm7.54,9.56a4.93,4.93,0,0,1-2.46-.61,4.56,4.56,0,0,1-1.73-1.73,5.22,5.22,0,0,1,0-5A4.44,4.44,0,0,1,276,92.07a5.29,5.29,0,0,1,4.93,0,4.39,4.39,0,0,1,1.71,1.71,5.22,5.22,0,0,1,0,5,4.51,4.51,0,0,1-1.71,1.73A4.94,4.94,0,0,1,278.5,101.09Zm0-1.13a3.59,3.59,0,0,0,1.8-.45,3.27,3.27,0,0,0,1.26-1.32,4.34,4.34,0,0,0,0-3.85A3.16,3.16,0,0,0,280.3,93a3.5,3.5,0,0,0-1.8-.46,3.62,3.62,0,0,0-1.82.46,3.43,3.43,0,0,0-1.26,1.3,4,4,0,0,0-.44,1.93,4,4,0,0,0,.44,1.92,3.56,3.56,0,0,0,1.26,1.32A3.72,3.72,0,0,0,278.5,100Zm12.08-3.89a2.91,2.91,0,0,1,1.55.81,1.93,1.93,0,0,1,.55,1.4,2.18,2.18,0,0,1-.57,1.48,3.63,3.63,0,0,1-1.53,1,6.62,6.62,0,0,1-2.14.34,7.25,7.25,0,0,1-2-.29,5.33,5.33,0,0,1-1.73-.88l.43-1a4.93,4.93,0,0,0,1.52.76,5.75,5.75,0,0,0,1.74.27,4.11,4.11,0,0,0,2.14-.49,1.5,1.5,0,0,0,.85-1.35,1.32,1.32,0,0,0-.68-1.17,3.58,3.58,0,0,0-1.88-.43h-1.62v-.93h1.55a3.28,3.28,0,0,0,1.71-.4,1.26,1.26,0,0,0,.65-1.1,1.34,1.34,0,0,0-.74-1.19,3.72,3.72,0,0,0-1.89-.43,6.44,6.44,0,0,0-3,.78l-.36-1a7.5,7.5,0,0,1,3.51-.89,5.37,5.37,0,0,1,1.94.33,3,3,0,0,1,1.37.88,1.93,1.93,0,0,1,.5,1.33,1.83,1.83,0,0,1-.5,1.28A2.89,2.89,0,0,1,290.58,96.07Zm5-4.54h1.27v7.53l6.32-7.53h1.14V101H303V93.48l-6.3,7.52h-1.15Zm22.25,8.35v3.5h-1.2V101H308V91.53h1.28v8.35H315V91.53h1.28v8.35Zm2.44-8.35h1.28v7.53l6.32-7.53H329V101h-1.28V93.48l-6.3,7.52h-1.15Zm20.53-.07a4.65,4.65,0,0,1,2.39.61,4.43,4.43,0,0,1,1.7,1.71,5.37,5.37,0,0,1,0,5,4.56,4.56,0,0,1-1.7,1.73,4.65,4.65,0,0,1-2.39.61,4.87,4.87,0,0,1-2.29-.54A4.63,4.63,0,0,1,336.85,99a4.77,4.77,0,0,1-.74-2.23H334V101h-1.28V91.53H334v4.09h2.18a4.82,4.82,0,0,1,.77-2.16A4.53,4.53,0,0,1,338.56,92,4.78,4.78,0,0,1,340.81,91.46Zm0,8.51a3.28,3.28,0,0,0,3-1.78,4.34,4.34,0,0,0,0-3.85,3.24,3.24,0,0,0-1.24-1.3,3.34,3.34,0,0,0-1.75-.46,3.4,3.4,0,0,0-1.76.46,3.22,3.22,0,0,0-1.23,1.3,4.34,4.34,0,0,0,0,3.85,3.34,3.34,0,0,0,1.23,1.32A3.4,3.4,0,0,0,340.81,100ZM43.48,116.67H39.9V125H38.62v-8.33H35v-1.14h8.44Zm5.31,8.42a4.93,4.93,0,0,1-2.46-.61,4.56,4.56,0,0,1-1.73-1.73,5.22,5.22,0,0,1,0-5,4.44,4.44,0,0,1,1.73-1.71,5.29,5.29,0,0,1,4.93,0A4.39,4.39,0,0,1,53,117.78a5.22,5.22,0,0,1,0,5,4.51,4.51,0,0,1-1.71,1.73A5,5,0,0,1,48.79,125.09Zm0-1.13a3.59,3.59,0,0,0,1.8-.45,3.27,3.27,0,0,0,1.26-1.32,4.34,4.34,0,0,0,0-3.85,3.16,3.16,0,0,0-1.26-1.3,3.5,3.5,0,0,0-1.8-.46A3.59,3.59,0,0,0,47,117a3.43,3.43,0,0,0-1.26,1.3,4.34,4.34,0,0,0,0,3.85A3.56,3.56,0,0,0,47,123.51,3.69,3.69,0,0,0,48.79,124Zm13.57-3.86a2.39,2.39,0,0,1,1,4.23,4.61,4.61,0,0,1-2.74.67h-4.3v-9.47h4.18a4.4,4.4,0,0,1,2.53.63A2,2,0,0,1,64,118a2.08,2.08,0,0,1-.43,1.33A2.52,2.52,0,0,1,62.36,120.1Zm-4.79-.36h2.85a2.8,2.8,0,0,0,1.67-.41,1.37,1.37,0,0,0,.59-1.21,1.31,1.31,0,0,0-.59-1.18,2.88,2.88,0,0,0-1.67-.4H57.57Zm3,4.25a3.43,3.43,0,0,0,1.83-.39,1.39,1.39,0,0,0,.62-1.25,1.43,1.43,0,0,0-.56-1.24,3,3,0,0,0-1.77-.41H57.57V124Zm10-8.53a4,4,0,0,1,2.84.94,3.54,3.54,0,0,1,1,2.73V125H73.15v-1.48a3,3,0,0,1-1.28,1.16,4.45,4.45,0,0,1-2,.41,3.88,3.88,0,0,1-2.52-.76,2.6,2.6,0,0,1-.07-3.94,4.33,4.33,0,0,1,2.79-.74h3v-.57a2.39,2.39,0,0,0-.69-1.86,2.8,2.8,0,0,0-2-.64,5.08,5.08,0,0,0-1.73.3,4.21,4.21,0,0,0-1.42.81l-.57-1a5,5,0,0,1,1.72-.94A6.56,6.56,0,0,1,70.54,115.46Zm-.45,8.62a3.42,3.42,0,0,0,1.85-.48,3.08,3.08,0,0,0,1.16-1.44v-1.55h-3c-1.61,0-2.43.56-2.43,1.69a1.56,1.56,0,0,0,.63,1.31A2.87,2.87,0,0,0,70.09,124.08Zm12.56-8.62a4.81,4.81,0,0,1,2.42.61,4.29,4.29,0,0,1,1.69,1.69,5.49,5.49,0,0,1,0,5,4.41,4.41,0,0,1-1.69,1.71,5,5,0,0,1-2.42.59,4.58,4.58,0,0,1-2.08-.47,4,4,0,0,1-1.52-1.4v5.27H77.77v-13H79v1.87A4,4,0,0,1,80.51,116,4.59,4.59,0,0,1,82.65,115.46Zm-.09,8.5a3.64,3.64,0,0,0,1.8-.45,3.27,3.27,0,0,0,1.26-1.32,3.9,3.9,0,0,0,.47-1.92,3.83,3.83,0,0,0-.47-1.91A3.27,3.27,0,0,0,84.36,117a3.55,3.55,0,0,0-1.8-.46,3.62,3.62,0,0,0-1.82.46,3.46,3.46,0,0,0-1.25,1.32,3.83,3.83,0,0,0-.45,1.91,3.89,3.89,0,0,0,.45,1.92,3.46,3.46,0,0,0,1.25,1.32A3.72,3.72,0,0,0,82.56,124Zm10.76-8.5a3.94,3.94,0,0,1,2.84.94,3.54,3.54,0,0,1,1,2.73V125H95.93v-1.48a2.9,2.9,0,0,1-1.28,1.16,4.45,4.45,0,0,1-2,.41,3.88,3.88,0,0,1-2.52-.76,2.62,2.62,0,0,1-.07-3.94,4.33,4.33,0,0,1,2.79-.74h3v-.57a2.39,2.39,0,0,0-.69-1.86,2.8,2.8,0,0,0-2-.64,5,5,0,0,0-1.72.3,4.17,4.17,0,0,0-1.43.81l-.57-1a5,5,0,0,1,1.73-.94A6.5,6.5,0,0,1,93.32,115.46Zm-.45,8.62a3.42,3.42,0,0,0,1.85-.48,3.08,3.08,0,0,0,1.16-1.44v-1.55h-3c-1.62,0-2.43.56-2.43,1.69a1.56,1.56,0,0,0,.63,1.31A2.83,2.83,0,0,0,92.87,124.08Zm7.78-6.66a.91.91,0,0,1-.69-.29,1,1,0,0,1-.27-.7.93.93,0,0,1,.27-.68,1,1,0,0,1,1.37,0,.91.91,0,0,1,.29.68,1,1,0,0,1-.29.7A.9.9,0,0,1,100.65,117.42Zm0,7.67a.94.94,0,0,1-.69-.29,1,1,0,0,1-.27-.7,1,1,0,0,1,1-1,.9.9,0,0,1,.68.29.89.89,0,0,1,.29.68,1,1,0,0,1-.29.7A.94.94,0,0,1,100.65,125.09Z"/></g></g></svg>