<svg width="258" height="142" viewBox="0 0 258 142" fill="none" xmlns="http://www.w3.org/2000/svg">
<path d="M0 17.5583C0 7.86112 7.88703 0 17.6162 0H240.384C250.113 0 258 7.86112 258 17.5583V115.885C258 125.582 250.113 133.443 240.384 133.443H17.6162C7.88703 133.443 0 125.582 0 115.885V17.5583Z" fill="#140823"/>
<path d="M6.36862 140.964C4.31555 143.126 0.66674 141.678 0.666739 138.701L0 115.885C-1.18019e-06 114.067 1.47887 112.593 3.30308 112.593H31.3014C34.2005 112.593 35.6932 116.049 33.7002 118.148L6.36862 140.964Z" fill="#140823"/>
<path fill-rule="evenodd" clip-rule="evenodd" d="M209 57H86V52H209V57Z" fill="#493E57"/>
<path fill-rule="evenodd" clip-rule="evenodd" d="M209 69H86V64H209V69Z" fill="#493E57"/>
<path fill-rule="evenodd" clip-rule="evenodd" d="M159 81H86V76H159V81Z" fill="#493E57"/>
<path d="M67 48C67 61.2548 56.2548 72 43 72C29.7452 72 19 61.2548 19 48C19 34.7452 29.7452 24 43 24C56.2548 24 67 34.7452 67 48Z" fill="#493E57"/>
<path d="M50.6318 51.2218C49.3792 50.0237 47.8883 49.1368 46.2617 48.5999C48.0039 47.4522 49.1484 45.5314 49.1484 43.3594C49.1484 39.8528 46.1659 37 42.5 37C38.8341 37 35.8516 39.8528 35.8516 43.3594C35.8516 45.5314 36.9961 47.4522 38.7383 48.5999C37.1117 49.1368 35.6208 50.0237 34.3683 51.2218C32.1962 53.2995 31 56.0618 31 59H32.7969C32.7969 53.8823 37.1497 49.7188 42.5 49.7188C47.8503 49.7188 52.2031 53.8823 52.2031 59H54C54 56.0618 52.8038 53.2995 50.6318 51.2218ZM42.5 48C39.8249 48 37.6484 45.9183 37.6484 43.3594C37.6484 40.8005 39.8249 38.7188 42.5 38.7188C45.1751 38.7188 47.3516 40.8005 47.3516 43.3594C47.3516 45.9183 45.1751 48 42.5 48Z" fill="#140823"/>
<path d="M93.401 24.3152C93.6593 23.8949 94.2782 23.8949 94.5365 24.3152L96.7845 27.9721C96.877 28.1225 97.027 28.2299 97.2007 28.27L101.425 29.2467C101.91 29.359 102.102 29.9389 101.776 30.3109L98.9409 33.5477C98.8243 33.6808 98.7671 33.8546 98.782 34.0298L99.1446 38.2903C99.1863 38.78 98.6857 39.1384 98.226 38.948L94.2259 37.2916C94.0614 37.2235 93.8761 37.2235 93.7116 37.2916L89.7115 38.948C89.2518 39.1384 88.7512 38.78 88.7929 38.2903L89.1555 34.0298C89.1704 33.8546 89.1132 33.6808 88.9966 33.5477L86.1618 30.3109C85.836 29.9389 86.0272 29.359 86.5127 29.2467L90.7368 28.27C90.9105 28.2299 91.0605 28.1225 91.153 27.9721L93.401 24.3152Z" fill="url(#paint0_linear)"/>
<path d="M119.966 24.3152C120.209 23.8949 120.791 23.8949 121.034 24.3152L123.15 27.9721C123.237 28.1225 123.378 28.2299 123.542 28.27L127.517 29.2467C127.974 29.359 128.154 29.9389 127.848 30.3109L125.18 33.5477C125.07 33.6808 125.016 33.8546 125.03 34.0298L125.371 38.2903C125.411 38.78 124.939 39.1384 124.507 38.948L120.742 37.2916C120.587 37.2235 120.413 37.2235 120.258 37.2916L116.493 38.948C116.061 39.1384 115.589 38.78 115.629 38.2903L115.97 34.0298C115.984 33.8546 115.93 33.6808 115.82 33.5477L113.152 30.3109C112.846 29.9389 113.026 29.359 113.483 29.2467L117.458 28.27C117.622 28.2299 117.763 28.1225 117.85 27.9721L119.966 24.3152Z" fill="url(#paint1_linear)"/>
<path d="M146.401 24.3152C146.659 23.8949 147.278 23.8949 147.537 24.3152L149.785 27.9721C149.877 28.1225 150.027 28.2299 150.201 28.27L154.425 29.2467C154.91 29.359 155.102 29.9389 154.776 30.3109L151.941 33.5477C151.824 33.6808 151.767 33.8546 151.782 34.0298L152.145 38.2903C152.186 38.78 151.686 39.1384 151.226 38.948L147.226 37.2916C147.061 37.2235 146.876 37.2235 146.712 37.2916L142.712 38.948C142.252 39.1384 141.751 38.78 141.793 38.2903L142.156 34.0298C142.17 33.8546 142.113 33.6808 141.997 33.5477L139.162 30.3109C138.836 29.9389 139.027 29.359 139.513 29.2467L143.737 28.27C143.911 28.2299 144.061 28.1225 144.153 27.9721L146.401 24.3152Z" fill="url(#paint2_linear)"/>
<path d="M173.401 24.3152C173.659 23.8949 174.278 23.8949 174.537 24.3152L176.785 27.9721C176.877 28.1225 177.027 28.2299 177.201 28.27L181.425 29.2467C181.91 29.359 182.102 29.9389 181.776 30.3109L178.941 33.5477C178.824 33.6808 178.767 33.8546 178.782 34.0298L179.145 38.2903C179.186 38.78 178.686 39.1384 178.226 38.948L174.226 37.2916C174.061 37.2235 173.876 37.2235 173.712 37.2916L169.712 38.948C169.252 39.1384 168.751 38.78 168.793 38.2903L169.156 34.0298C169.17 33.8546 169.113 33.6808 168.997 33.5477L166.162 30.3109C165.836 29.9389 166.027 29.359 166.513 29.2467L170.737 28.27C170.911 28.2299 171.061 28.1225 171.153 27.9721L173.401 24.3152Z" fill="url(#paint3_linear)"/>
<path d="M200.401 24.3152C200.659 23.8949 201.278 23.8949 201.537 24.3152L203.785 27.9721C203.877 28.1225 204.027 28.2299 204.201 28.27L208.425 29.2467C208.91 29.359 209.102 29.9389 208.776 30.3109L205.941 33.5477C205.824 33.6808 205.767 33.8546 205.782 34.0298L206.145 38.2903C206.186 38.78 205.686 39.1384 205.226 38.948L201.226 37.2916C201.061 37.2235 200.876 37.2235 200.712 37.2916L196.712 38.948C196.252 39.1384 195.751 38.78 195.793 38.2903L196.156 34.0298C196.17 33.8546 196.113 33.6808 195.997 33.5477L193.162 30.3109C192.836 29.9389 193.027 29.359 193.513 29.2467L197.737 28.27C197.911 28.2299 198.061 28.1225 198.153 27.9721L200.401 24.3152Z" fill="url(#paint4_linear)"/>
<path d="M86 99.3V109.7C86 110.418 86.6715 111 87.5 111H92V98H87.5C86.6715 98 86 98.582 86 99.3Z" fill="#493E57"/>
<path d="M104.65 99.4285H100.89C100.561 99.4285 100.396 99.2069 100.341 99.1115C100.286 99.0167 100.174 98.7637 100.333 98.4736L101.659 96.0623C101.949 95.5343 101.979 94.9134 101.741 94.3591C101.503 93.8041 101.033 93.4017 100.452 93.2554L99.5178 93.0194C99.2903 92.9616 99.0492 93.0351 98.8907 93.2127L93.816 98.9081C93.2896 99.5001 93 100.263 93 101.058V107.786C93 109.558 94.4275 111 96.1818 111L102.513 110.999C103.942 110.999 105.204 110.027 105.581 108.635L106.94 102.337C106.979 102.162 107 101.982 107 101.803C107 100.494 105.945 99.4285 104.65 99.4285L104.65 99.4285Z" fill="#493E57"/>
<defs>
<linearGradient id="paint0_linear" x1="90.8322" y1="24.0539" x2="102.007" y2="43.844" gradientUnits="userSpaceOnUse">
<stop stop-color="#FDF2A1"/>
<stop offset="1" stop-color="#FE8102"/>
</linearGradient>
<linearGradient id="paint1_linear" x1="117.548" y1="24.0539" x2="129.062" y2="43.2459" gradientUnits="userSpaceOnUse">
<stop stop-color="#FDF2A1"/>
<stop offset="1" stop-color="#FE8102"/>
</linearGradient>
<linearGradient id="paint2_linear" x1="143.832" y1="24.0539" x2="155.007" y2="43.844" gradientUnits="userSpaceOnUse">
<stop stop-color="#FDF2A1"/>
<stop offset="1" stop-color="#FE8102"/>
</linearGradient>
<linearGradient id="paint3_linear" x1="170.832" y1="24.0539" x2="182.007" y2="43.844" gradientUnits="userSpaceOnUse">
<stop stop-color="#FDF2A1"/>
<stop offset="1" stop-color="#FE8102"/>
</linearGradient>
<linearGradient id="paint4_linear" x1="197.832" y1="24.0539" x2="209.007" y2="43.844" gradientUnits="userSpaceOnUse">
<stop stop-color="#FDF2A1"/>
<stop offset="1" stop-color="#FE8102"/>
</linearGradient>
</defs>
</svg>
