<svg width="350" height="193" viewBox="0 0 350 193" fill="none" xmlns="http://www.w3.org/2000/svg">
<path d="M350 23.8645C350 10.6845 339.301 0 326.102 0H23.8979C10.6994 0 0 10.6845 0 23.8645V157.505C0 170.685 10.6994 181.37 23.8979 181.37H326.102C339.301 181.37 350 170.685 350 157.505V23.8645Z" fill="white"/>
<path d="M341.36 191.592C344.146 194.531 349.096 192.562 349.096 188.516L350 157.505C350 155.034 347.994 153.031 345.519 153.031H307.537C303.604 153.031 301.579 157.729 304.283 160.581L341.36 191.592Z" fill="white"/>
<circle cx="52.5" cy="65.5" r="32.5" fill="#D0CBEE"/>
<path d="M63.4602 70.0398C61.772 68.3516 59.7625 67.1019 57.5701 66.3454C59.9183 64.7281 61.4609 62.0215 61.4609 58.9609C61.4609 54.0199 57.441 50 52.5 50C47.559 50 43.5391 54.0199 43.5391 58.9609C43.5391 62.0215 45.0817 64.7281 47.4299 66.3454C45.2375 67.1019 43.2281 68.3516 41.5399 70.0398C38.6123 72.9674 37 76.8598 37 81H39.4219C39.4219 73.7887 45.2887 67.9219 52.5 67.9219C59.7113 67.9219 65.5781 73.7887 65.5781 81H68C68 76.8598 66.3877 72.9674 63.4602 70.0398ZM52.5 65.5C48.8944 65.5 45.9609 62.5666 45.9609 58.9609C45.9609 55.3552 48.8944 52.4219 52.5 52.4219C56.1056 52.4219 59.0391 55.3552 59.0391 58.9609C59.0391 62.5666 56.1056 65.5 52.5 65.5Z" fill="#57456F"/>
<path d="M127.581 33.4623C127.95 32.8459 128.835 32.8459 129.205 33.4623L132.419 38.8258C132.551 39.0463 132.765 39.2038 133.014 39.2627L139.053 40.6952C139.747 40.8599 140.02 41.7104 139.554 42.2561L135.502 47.0034C135.335 47.1986 135.253 47.4534 135.274 47.7104L135.793 53.9592C135.852 54.6773 135.137 55.203 134.479 54.9238L128.761 52.4943C128.525 52.3944 128.26 52.3944 128.025 52.4943L122.306 54.9238C121.649 55.203 120.933 54.6773 120.993 53.9592L121.511 47.7104C121.533 47.4534 121.451 47.1986 121.284 47.0034L117.231 42.2561C116.765 41.7104 117.039 40.8599 117.733 40.6952L123.772 39.2627C124.021 39.2038 124.235 39.0463 124.367 38.8258L127.581 33.4623Z" fill="url(#dpaint0_linear)"/>
<path d="M164.581 33.4623C164.95 32.8459 165.835 32.8459 166.205 33.4623L169.419 38.8258C169.551 39.0463 169.765 39.2038 170.014 39.2627L176.053 40.6952C176.747 40.8599 177.02 41.7104 176.554 42.2561L172.502 47.0034C172.335 47.1986 172.253 47.4534 172.274 47.7104L172.793 53.9592C172.852 54.6773 172.137 55.203 171.479 54.9238L165.761 52.4943C165.525 52.3944 165.26 52.3944 165.025 52.4943L159.306 54.9238C158.649 55.203 157.933 54.6773 157.993 53.9592L158.511 47.7104C158.533 47.4534 158.451 47.1986 158.284 47.0034L154.231 42.2561C153.765 41.7104 154.039 40.8599 154.733 40.6952L160.772 39.2627C161.021 39.2038 161.235 39.0463 161.367 38.8258L164.581 33.4623Z" fill="url(#dpaint1_linear)"/>
<path d="M201.581 33.4623C201.95 32.8459 202.835 32.8459 203.205 33.4623L206.419 38.8258C206.551 39.0463 206.765 39.2038 207.014 39.2627L213.053 40.6952C213.747 40.8599 214.02 41.7104 213.554 42.2561L209.502 47.0034C209.335 47.1986 209.253 47.4534 209.274 47.7104L209.793 53.9592C209.852 54.6773 209.137 55.203 208.479 54.9238L202.761 52.4943C202.525 52.3944 202.26 52.3944 202.025 52.4943L196.306 54.9238C195.649 55.203 194.933 54.6773 194.993 53.9592L195.511 47.7104C195.533 47.4534 195.451 47.1986 195.284 47.0034L191.231 42.2561C190.765 41.7104 191.039 40.8599 191.733 40.6952L197.772 39.2627C198.021 39.2038 198.235 39.0463 198.367 38.8258L201.581 33.4623Z" fill="url(#dpaint2_linear)"/>
<path d="M238.581 33.4623C238.95 32.8459 239.835 32.8459 240.205 33.4623L243.419 38.8258C243.551 39.0463 243.765 39.2038 244.014 39.2627L250.053 40.6952C250.747 40.8599 251.02 41.7104 250.554 42.2561L246.502 47.0034C246.335 47.1986 246.253 47.4534 246.274 47.7104L246.793 53.9592C246.852 54.6773 246.137 55.203 245.479 54.9238L239.761 52.4943C239.525 52.3944 239.26 52.3944 239.025 52.4943L233.306 54.9238C232.649 55.203 231.933 54.6773 231.993 53.9592L232.511 47.7104C232.533 47.4534 232.451 47.1986 232.284 47.0034L228.231 42.2561C227.765 41.7104 228.039 40.8599 228.733 40.6952L234.772 39.2627C235.021 39.2038 235.235 39.0463 235.367 38.8258L238.581 33.4623Z" fill="url(#dpaint3_linear)"/>
<path d="M275.581 33.4623C275.95 32.8459 276.835 32.8459 277.205 33.4623L280.419 38.8258C280.551 39.0463 280.765 39.2038 281.014 39.2627L287.053 40.6952C287.747 40.8599 288.02 41.7104 287.554 42.2561L283.502 47.0034C283.335 47.1986 283.253 47.4534 283.274 47.7104L283.793 53.9592C283.852 54.6773 283.137 55.203 282.479 54.9238L276.761 52.4943C276.525 52.3944 276.26 52.3944 276.025 52.4943L270.306 54.9238C269.649 55.203 268.933 54.6773 268.993 53.9592L269.511 47.7104C269.533 47.4534 269.451 47.1986 269.284 47.0034L265.231 42.2561C264.765 41.7104 265.039 40.8599 265.733 40.6952L271.772 39.2627C272.021 39.2038 272.235 39.0463 272.367 38.8258L275.581 33.4623Z" fill="url(#dpaint4_linear)"/>
<path fill-rule="evenodd" clip-rule="evenodd" d="M282 77H117V70H282V77Z" fill="#D0CBEE"/>
<path fill-rule="evenodd" clip-rule="evenodd" d="M282 93H117V86H282V93Z" fill="#D0CBEE"/>
<path fill-rule="evenodd" clip-rule="evenodd" d="M215 109H117V102H215V109Z" fill="#D0CBEE"/>
<path d="M117 134.929V149.214C117 150.2 117.799 151 118.786 151H124.143V133.143H118.786C117.799 133.143 117 133.942 117 134.929Z" fill="#D0CBEE"/>
<path d="M142.274 134.928H136.999C136.537 134.928 136.306 134.621 136.229 134.488C136.151 134.356 135.994 134.005 136.217 133.602L138.077 130.253C138.485 129.52 138.527 128.657 138.193 127.888C137.859 127.117 137.2 126.558 136.385 126.355L135.073 126.027C134.754 125.947 134.416 126.049 134.194 126.295L127.074 134.206C126.335 135.028 125.929 136.088 125.929 137.192V146.535C125.929 148.997 127.932 151 130.393 151L139.275 150.999C141.281 150.999 143.052 149.648 143.581 147.715L145.487 138.968C145.543 138.725 145.571 138.475 145.571 138.226C145.571 136.408 144.092 134.928 142.274 134.928L142.274 134.928Z" fill="#D0CBEE"/>
<defs>
<linearGradient id="dpaint0_linear" x1="123.909" y1="33.079" x2="140.512" y2="61.7415" gradientUnits="userSpaceOnUse">
<stop stop-color="#FDF2A1"/>
<stop offset="1" stop-color="#FE8102"/>
</linearGradient>
<linearGradient id="dpaint1_linear" x1="160.909" y1="33.079" x2="177.512" y2="61.7415" gradientUnits="userSpaceOnUse">
<stop stop-color="#FDF2A1"/>
<stop offset="1" stop-color="#FE8102"/>
</linearGradient>
<linearGradient id="dpaint2_linear" x1="197.909" y1="33.079" x2="214.512" y2="61.7415" gradientUnits="userSpaceOnUse">
<stop stop-color="#FDF2A1"/>
<stop offset="1" stop-color="#FE8102"/>
</linearGradient>
<linearGradient id="dpaint3_linear" x1="234.909" y1="33.079" x2="251.512" y2="61.7415" gradientUnits="userSpaceOnUse">
<stop stop-color="#FDF2A1"/>
<stop offset="1" stop-color="#FE8102"/>
</linearGradient>
<linearGradient id="dpaint4_linear" x1="271.909" y1="33.079" x2="288.512" y2="61.7415" gradientUnits="userSpaceOnUse">
<stop stop-color="#FDF2A1"/>
<stop offset="1" stop-color="#FE8102"/>
</linearGradient>
</defs>
</svg>
