<svg width="195" height="73" viewBox="0 0 195 73" fill="none" xmlns="http://www.w3.org/2000/svg">
<rect y="23.6582" width="195" height="22.228" rx="11.114" fill="#FFECEC"/>
<path d="M13.0308 30.5941H15.3485V37.1586L20.1568 30.5941H22.345V40.6712H20.0416V34.1211L15.2333 40.6712H13.0308V30.5941Z" fill="#FF3A3C"/>
<path d="M28.3666 40.7864C27.5413 40.7864 26.7975 40.6185 26.1353 40.2825C25.4826 39.937 24.9692 39.462 24.5949 38.8573C24.2302 38.2527 24.0478 37.5665 24.0478 36.7987C24.0478 36.0309 24.2302 35.3447 24.5949 34.7401C24.9692 34.1355 25.4826 33.6652 26.1353 33.3293C26.7975 32.9838 27.5413 32.811 28.3666 32.811C29.1824 32.811 29.8926 32.9838 30.4972 33.3293C31.1115 33.6652 31.5577 34.1499 31.8361 34.7833L30.0942 35.719C29.6911 35.0088 29.1104 34.6537 28.3522 34.6537C27.7668 34.6537 27.2821 34.8457 26.8982 35.2296C26.5144 35.6135 26.3224 36.1365 26.3224 36.7987C26.3224 37.4609 26.5144 37.984 26.8982 38.3679C27.2821 38.7518 27.7668 38.9437 28.3522 38.9437C29.12 38.9437 29.7007 38.5886 30.0942 37.8784L31.8361 38.8286C31.5577 39.4428 31.1115 39.9226 30.4972 40.2682C29.8926 40.6137 29.1824 40.7864 28.3666 40.7864Z" fill="#FF3A3C"/>
<path d="M36.6126 37.7345H35.4465V40.6712H33.2008V32.9262H35.4465V35.935H36.6558L38.7576 32.9262H41.1473L38.4409 36.6404L41.3345 40.6712H38.6856L36.6126 37.7345Z" fill="#FF3A3C"/>
<path d="M49.7648 32.811C50.5518 32.811 51.2572 32.9838 51.881 33.3293C52.5048 33.6652 52.9943 34.1355 53.3494 34.7401C53.7045 35.3447 53.882 36.0309 53.882 36.7987C53.882 37.5665 53.7045 38.2527 53.3494 38.8573C52.9943 39.462 52.5048 39.937 51.881 40.2825C51.2572 40.6185 50.5518 40.7864 49.7648 40.7864C49.0834 40.7864 48.4596 40.6616 47.8933 40.4121C47.3271 40.153 46.8568 39.7931 46.4825 39.3324C46.1082 38.8621 45.8587 38.3247 45.7339 37.7201H44.6686V40.6712H42.4372V32.9262H44.6686V35.7766H45.7483C45.9691 34.8745 46.4393 34.1547 47.1591 33.6172C47.8789 33.0798 48.7475 32.811 49.7648 32.811ZM49.7648 38.9437C50.3118 38.9437 50.7629 38.7518 51.118 38.3679C51.4827 37.9744 51.6651 37.4513 51.6651 36.7987C51.6651 36.1365 51.4827 35.6135 51.118 35.2296C50.7629 34.8457 50.3118 34.6537 49.7648 34.6537C49.2081 34.6537 48.7475 34.8457 48.3828 35.2296C48.0277 35.6135 47.8501 36.1365 47.8501 36.7987C47.8501 37.4513 48.0277 37.9744 48.3828 38.3679C48.7475 38.7518 49.2081 38.9437 49.7648 38.9437Z" fill="#FF3A3C"/>
<path d="M62.4091 32.9262V40.6712H60.1633V37.792C59.5107 38.1184 58.7909 38.2815 58.0039 38.2815C56.9578 38.2815 56.166 38.0464 55.6286 37.5761C55.1007 37.0962 54.8368 36.3572 54.8368 35.3591V32.9262H57.0826V35.2152C57.0826 35.6854 57.2025 36.0261 57.4425 36.2373C57.692 36.4484 58.0471 36.554 58.5078 36.554C59.0932 36.554 59.645 36.4292 60.1633 36.1797V32.9262H62.4091Z" fill="#FF3A3C"/>
<path d="M72.0945 36.8275C72.0945 36.8563 72.0801 37.0579 72.0513 37.4321H66.1922C66.2977 37.912 66.5473 38.2911 66.9408 38.5694C67.3342 38.8477 67.8237 38.9869 68.4091 38.9869C68.8122 38.9869 69.1673 38.9293 69.4744 38.8142C69.7912 38.6894 70.0839 38.4974 70.3526 38.2383L71.5475 39.534C70.8181 40.3689 69.7528 40.7864 68.3516 40.7864C67.4782 40.7864 66.7056 40.6185 66.0338 40.2825C65.362 39.937 64.8437 39.462 64.479 38.8573C64.1143 38.2527 63.932 37.5665 63.932 36.7987C63.932 36.0405 64.1096 35.3591 64.4647 34.7545C64.8293 34.1403 65.3236 33.6652 65.9474 33.3293C66.5809 32.9838 67.2863 32.811 68.0636 32.811C68.8218 32.811 69.508 32.9742 70.1223 33.3005C70.7365 33.6268 71.2164 34.0971 71.5619 34.7113C71.917 35.3159 72.0945 36.0213 72.0945 36.8275ZM68.078 34.5098C67.5694 34.5098 67.1423 34.6537 66.7968 34.9416C66.4513 35.2296 66.2402 35.6231 66.1634 36.1221H69.9783C69.9015 35.6326 69.6904 35.244 69.3449 34.956C68.9994 34.6585 68.5771 34.5098 68.078 34.5098Z" fill="#FF3A3C"/>
<path d="M73.816 32.9262H76.0473V35.9494H79.416V32.9262H81.6618V40.6712H79.416V37.7776H76.0473V40.6712H73.816V32.9262Z" fill="#FF3A3C"/>
<path d="M87.8886 32.9262H90.12V37.5329L93.8917 32.9262H95.9503V40.6712H93.719V36.0645L89.9616 40.6712H87.8886V32.9262Z" fill="#FF3A3C"/>
<path d="M103.063 36.6404C103.524 36.7843 103.879 37.0051 104.128 37.3026C104.388 37.6001 104.517 37.9552 104.517 38.3679C104.517 38.8573 104.349 39.2892 104.013 39.6635C103.677 40.0282 103.217 40.3113 102.631 40.5129C102.046 40.7144 101.384 40.8152 100.645 40.8152C100.04 40.8152 99.4449 40.7528 98.8595 40.6281C98.274 40.5033 97.7318 40.3161 97.2327 40.0666L97.8373 38.4974C98.6531 38.8909 99.5552 39.0877 100.544 39.0877C101.072 39.0877 101.484 39.0109 101.782 38.8573C102.089 38.6942 102.243 38.4687 102.243 38.1807C102.243 37.9312 102.137 37.7441 101.926 37.6193C101.715 37.4849 101.408 37.4178 101.004 37.4178H99.4209V36.0213H100.803C101.196 36.0213 101.499 35.959 101.71 35.8342C101.921 35.7094 102.027 35.5271 102.027 35.2871C102.027 35.0376 101.892 34.8457 101.623 34.7113C101.364 34.5769 100.99 34.5098 100.501 34.5098C99.752 34.5098 98.9362 34.6873 98.0533 35.0424L97.5062 33.4876C98.5811 33.0174 99.6272 32.7822 100.645 32.7822C101.345 32.7822 101.969 32.8686 102.516 33.0414C103.073 33.2141 103.509 33.4685 103.826 33.8044C104.143 34.1307 104.301 34.5146 104.301 34.956C104.301 35.3207 104.191 35.6518 103.97 35.9494C103.749 36.2373 103.447 36.4676 103.063 36.6404Z" fill="#FF3A3C"/>
<path d="M114.791 32.811C115.511 32.811 116.164 32.979 116.749 33.3149C117.344 33.6412 117.81 34.1067 118.145 34.7113C118.481 35.3063 118.649 36.0021 118.649 36.7987C118.649 37.5953 118.481 38.2959 118.145 38.9005C117.81 39.4956 117.344 39.961 116.749 40.2969C116.164 40.6233 115.511 40.7864 114.791 40.7864C113.803 40.7864 113.025 40.4745 112.459 39.8507V43.4641H110.213V32.9262H112.358V33.8188C112.915 33.1469 113.726 32.811 114.791 32.811ZM114.402 38.9437C114.978 38.9437 115.449 38.7518 115.813 38.3679C116.188 37.9744 116.375 37.4513 116.375 36.7987C116.375 36.1461 116.188 35.6279 115.813 35.244C115.449 34.8505 114.978 34.6537 114.402 34.6537C113.827 34.6537 113.352 34.8505 112.977 35.244C112.613 35.6279 112.43 36.1461 112.43 36.7987C112.43 37.4513 112.613 37.9744 112.977 38.3679C113.352 38.7518 113.827 38.9437 114.402 38.9437Z" fill="#FF3A3C"/>
<path d="M127.752 36.8275C127.752 36.8563 127.738 37.0579 127.709 37.4321H121.85C121.956 37.912 122.205 38.2911 122.599 38.5694C122.992 38.8477 123.482 38.9869 124.067 38.9869C124.47 38.9869 124.825 38.9293 125.132 38.8142C125.449 38.6894 125.742 38.4974 126.01 38.2383L127.205 39.534C126.476 40.3689 125.411 40.7864 124.009 40.7864C123.136 40.7864 122.363 40.6185 121.692 40.2825C121.02 39.937 120.502 39.462 120.137 38.8573C119.772 38.2527 119.59 37.5665 119.59 36.7987C119.59 36.0405 119.767 35.3591 120.123 34.7545C120.487 34.1403 120.981 33.6652 121.605 33.3293C122.239 32.9838 122.944 32.811 123.722 32.811C124.48 32.811 125.166 32.9742 125.78 33.3005C126.394 33.6268 126.874 34.0971 127.22 34.7113C127.575 35.3159 127.752 36.0213 127.752 36.8275ZM123.736 34.5098C123.227 34.5098 122.8 34.6537 122.455 34.9416C122.109 35.2296 121.898 35.6231 121.821 36.1221H125.636C125.559 35.6326 125.348 35.244 125.003 34.956C124.657 34.6585 124.235 34.5098 123.736 34.5098Z" fill="#FF3A3C"/>
<path d="M129.474 32.9262H131.705V37.5329L135.477 32.9262H137.536V40.6712H135.304V36.0645L131.547 40.6712H129.474V32.9262ZM133.361 32.0912C131.672 32.0912 130.822 31.3474 130.813 29.8599H132.281C132.291 30.1958 132.382 30.4597 132.555 30.6516C132.737 30.834 133.001 30.9252 133.346 30.9252C133.692 30.9252 133.956 30.834 134.138 30.6516C134.33 30.4597 134.426 30.1958 134.426 29.8599H135.923C135.914 31.3474 135.059 32.0912 133.361 32.0912Z" fill="#FF3A3C"/>
<path d="M146.201 34.7689H143.581V40.6712H141.35V34.7689H138.73V32.9262H146.201V34.7689Z" fill="#FF3A3C"/>
<path d="M147.398 32.9262H149.63V37.5329L153.402 32.9262H155.46V40.6712H153.229V36.0645L149.472 40.6712H147.398V32.9262Z" fill="#FF3A3C"/>
<path d="M157.619 32.9262H159.85V35.9494H163.219V32.9262H165.465V40.6712H163.219V37.7776H159.85V40.6712H157.619V32.9262Z" fill="#FF3A3C"/>
<path d="M173.819 34.7689H169.846V40.6712H167.615V32.9262H173.819V34.7689Z" fill="#FF3A3C"/>
<path d="M178.018 32.811C179.218 32.811 180.139 33.099 180.782 33.6748C181.425 34.241 181.747 35.1 181.747 36.2517V40.6712H179.645V39.7067C179.223 40.4265 178.436 40.7864 177.284 40.7864C176.689 40.7864 176.171 40.6856 175.729 40.4841C175.297 40.2825 174.966 40.0042 174.736 39.6491C174.506 39.294 174.391 38.8909 174.391 38.4399C174.391 37.7201 174.659 37.1538 175.197 36.7411C175.744 36.3285 176.583 36.1221 177.716 36.1221H179.501C179.501 35.6326 179.352 35.2584 179.055 34.9992C178.757 34.7305 178.311 34.5961 177.716 34.5961C177.303 34.5961 176.895 34.6633 176.492 34.7977C176.099 34.9224 175.763 35.0952 175.485 35.3159L174.678 33.7468C175.101 33.4493 175.605 33.2189 176.19 33.0558C176.785 32.8926 177.394 32.811 178.018 32.811ZM177.846 39.2748C178.229 39.2748 178.57 39.1885 178.868 39.0157C179.165 38.8334 179.376 38.5694 179.501 38.2239V37.4321H177.961C177.039 37.4321 176.579 37.7345 176.579 38.3391C176.579 38.627 176.689 38.8573 176.91 39.0301C177.14 39.1933 177.452 39.2748 177.846 39.2748Z" fill="#FF3A3C"/>
<line x1="157.285" y1="69.7936" x2="34.7936" y2="2.71482" stroke="#00CCCC" stroke-width="4" stroke-linecap="round" stroke-linejoin="round"/>
<line x1="154.253" y1="2.7281" x2="36.7281" y2="69.7466" stroke="#00CCCC" stroke-width="4" stroke-linecap="round" stroke-linejoin="round"/>
</svg>
