<svg width="60" height="60" viewBox="0 0 60 60" fill="none" xmlns="http://www.w3.org/2000/svg">
<circle cx="30" cy="30" r="30" fill="#2A1646"/>
<g clip-path="url(#clip0)">
<path d="M34.1693 33.8569L35.7535 32.2727C37.3717 30.6545 38.2629 28.5029 38.2629 26.2143C38.2629 21.4792 34.431 17.6465 29.6951 17.6465C27.4065 17.6465 25.255 18.5377 23.6367 20.156C20.2961 23.4966 20.2961 28.9321 23.6367 32.2727L25.1797 33.8157C20.1575 34.3825 16 35.9581 16 38.4719C16 44.969 43 44.9931 43 38.4719C43 36.0166 39.0336 34.4563 34.1693 33.8569ZM22.8262 26.2143C22.8262 22.4182 25.8983 19.3455 29.6951 19.3455C31.5298 19.3455 33.2547 20.06 34.5521 21.3574C37.2302 24.0355 37.2302 28.3932 34.5521 31.0713L29.695 35.9283L24.838 31.0713C23.5407 29.7739 22.8262 28.049 22.8262 26.2143ZM38.1865 40.5226C33.4106 42.0495 25.5902 42.0498 20.8135 40.5226C18.6621 39.8348 17.699 38.997 17.699 38.4719C17.699 37.9468 18.6621 37.109 20.8135 36.4212C22.4615 35.8943 24.5059 35.5368 26.7393 35.3753L29.0944 37.7303C29.4258 38.0619 29.9641 38.0621 30.2957 37.7303L32.6222 35.4039C38.1733 35.8624 41.3009 37.4555 41.3009 38.4719C41.301 38.997 40.3379 39.8348 38.1865 40.5226Z" fill="#00CCCC"/>
<path d="M33.4072 26.2141C33.4072 24.1672 31.7419 22.502 29.695 22.502C27.6481 22.502 25.9829 24.1672 25.9829 26.2141C25.9829 28.261 27.6481 29.9262 29.695 29.9262C31.7419 29.9262 33.4072 28.261 33.4072 26.2141ZM27.682 26.2141C27.682 25.1041 28.585 24.201 29.695 24.201C30.805 24.201 31.7081 25.1041 31.7081 26.2141C31.7081 27.3241 30.805 28.2272 29.695 28.2272C28.585 28.2272 27.682 27.3241 27.682 26.2141Z" fill="#00CCCC"/>
</g>
<defs>
<clipPath id="clip0">
<rect width="27" height="27" fill="white" transform="translate(16 17)"/>
</clipPath>
</defs>
</svg>
