<svg width="60" height="60" viewBox="0 0 60 60" fill="none" xmlns="http://www.w3.org/2000/svg">
<circle cx="30" cy="30" r="30" fill="#2A1646"/>
<path d="M45.3463 36.4147C46.4209 35.7943 46.7903 34.4158 46.1698 33.3412L38.2248 19.58C37.7551 18.7665 36.9604 18.1822 36.0442 17.9757L28.1551 16.1958C27.325 16.0087 26.4625 16.1404 25.7263 16.5654L17.2321 21.4696C16.1574 22.09 15.7881 23.4685 16.4085 24.5431L27.6585 44.0287C28.279 45.1033 29.6574 45.4727 30.7321 44.8522L45.3463 36.4147ZM18.3571 23.4181L26.8513 18.514C27.0968 18.3722 27.3844 18.3283 27.6609 18.3907L35.5494 20.1706C35.8552 20.2389 36.1198 20.4341 36.2762 20.705L44.2213 34.4662L29.6071 42.9037L18.3571 23.4181Z" fill="#00CCCC"/>
<path d="M37.3609 29.3337C36.8231 29.6442 36.6386 30.3327 36.9491 30.8705L37.5116 31.8448L35.076 33.251L34.5135 32.2768C34.203 31.739 33.5145 31.5545 32.9767 31.865C32.4389 32.1755 32.2544 32.864 32.5649 33.4018L33.1274 34.376L30.6917 35.7823L30.1292 34.808C29.8187 34.2702 29.1302 34.0857 28.5924 34.3962C28.0546 34.7067 27.8701 35.3952 28.1806 35.933L28.7431 36.9073C29.3636 37.9819 30.742 38.3513 31.8167 37.7309L38.6367 33.7934C39.7113 33.1729 40.0807 31.7944 39.4602 30.7198L38.8977 29.7455C38.5872 29.2077 37.8987 29.0232 37.3609 29.3337Z" fill="#00CCCC"/>
<path d="M33.0117 24.0506L26.1917 27.9881C25.117 28.6085 24.7477 29.987 25.3681 31.0616L25.9306 32.0359C26.2411 32.5737 26.9296 32.7582 27.4674 32.4477C28.0052 32.1372 28.1897 31.4487 27.8792 30.9109L27.3167 29.9366L29.7524 28.5304L30.3149 29.5047C30.6254 30.0425 31.3139 30.2269 31.8517 29.9164C32.3895 29.6059 32.574 28.9175 32.2635 28.3797L31.701 27.4054L34.1366 25.9991L34.6992 26.9734C35.0097 27.5112 35.6981 27.6957 36.2359 27.3852C36.7737 27.0747 36.9582 26.3862 36.6477 25.8484L36.0852 24.8741C35.4648 23.7995 34.0863 23.4301 33.0117 24.0506Z" fill="#00CCCC"/>
</svg>
