<svg width="350" height="100" viewBox="0 0 350 100" fill="none" xmlns="http://www.w3.org/2000/svg">
  <path d="M274.949 30.6081C275.423 29.797 276.558 29.797 277.031 30.6081L280.752 36.9776C280.922 37.2678 281.197 37.4751 281.515 37.5526L288.506 39.2538C289.397 39.4705 289.747 40.5898 289.15 41.3077L284.458 46.9455C284.244 47.2024 284.139 47.5377 284.167 47.8759L284.767 55.2967C284.843 56.2418 283.925 56.9336 283.082 56.5661L276.462 53.681C276.16 53.5495 275.82 53.5495 275.518 53.681L268.898 56.5661C268.055 56.9336 267.137 56.2418 267.213 55.2967L267.814 47.8759C267.841 47.5377 267.736 47.2024 267.522 46.9455L262.83 41.3077C262.233 40.5898 262.584 39.4705 263.474 39.2538L270.465 37.5526C270.784 37.4751 271.059 37.2678 271.228 36.9776L274.949 30.6081Z" fill="#00CCCC"/>
  <path d="M315.319 30.6081C315.793 29.7969 316.928 29.7969 317.402 30.6081L321.123 36.9776C321.292 37.2678 321.567 37.475 321.886 37.5525L328.877 39.2537C329.767 39.4704 330.118 40.5897 329.52 41.3077L324.829 46.9454C324.615 47.2023 324.51 47.5376 324.537 47.8758L325.137 55.2967C325.214 56.2417 324.296 56.9335 323.453 56.5661L316.832 53.6809C316.531 53.5494 316.191 53.5494 315.889 53.6809L309.269 56.5661C308.426 56.9335 307.508 56.2417 307.584 55.2967L308.184 47.8758C308.212 47.5376 308.107 47.2023 307.893 46.9454L303.201 41.3077C302.603 40.5897 302.954 39.4704 303.845 39.2537L310.836 37.5525C311.154 37.475 311.429 37.2678 311.599 36.9776L315.319 30.6081Z" fill="#00CCCC"/>
  <path fill-rule="evenodd" clip-rule="evenodd" d="M210.841 71.48C212.21 76.0241 216.215 79.426 221.079 79.9088C221.471 79.9478 221.869 79.9677 222.272 79.9677H222.304C221.423 80.7592 220.452 81.4778 219.391 82.1235C219.318 82.168 219.244 82.2121 219.17 82.256C218.466 82.6724 217.724 83.0576 216.943 83.4115C215.224 84.1658 213.358 84.7396 211.345 85.1329C207.306 82.5473 204.243 78.5703 202.834 73.8782H203.319C203.635 73.8782 203.942 73.8714 204.243 73.858C206.483 73.7576 208.287 73.2822 209.654 72.432C209.919 72.2672 210.168 72.0882 210.4 71.8952C210.554 71.7621 210.701 71.6237 210.841 71.48ZM210.335 60.2472V46.8235C208.43 46.5051 206.399 46.3459 204.243 46.3459H201.979V58.2435H203.319C203.635 58.2435 203.942 58.2505 204.243 58.2645C206.483 58.3687 208.287 58.8623 209.654 59.7453C209.895 59.9005 210.122 60.0679 210.335 60.2472ZM201.979 31.6793V20.2903C201.979 9.08429 211.065 0 222.272 0H329.707C340.914 0 350 9.08429 350 20.2903V68.0322C350 79.2383 340.914 88.3226 329.707 88.3226H247.342L236.985 97.5588C232.673 101.404 226.596 100.412 223.344 96.6376C227.611 94.6692 231.449 91.9683 234.614 88.478L244.157 79.9677H329.707C336.299 79.9677 341.644 74.624 341.644 68.0322V20.2903C341.644 13.6985 336.299 8.35484 329.707 8.35484H222.272C215.679 8.35484 210.335 13.6985 210.335 20.2903V32.016C208.322 31.7863 206.287 31.6793 204.243 31.6793H201.979Z" fill="#00CCCC"/>
  <path fill-rule="evenodd" clip-rule="evenodd" d="M240.026 30.6081C239.552 29.797 238.417 29.797 237.944 30.6081L234.223 36.9776C234.053 37.2678 233.778 37.4751 233.46 37.5526L228.874 38.6686C232.31 41.0349 235.297 44.0244 237.67 47.6618C239.081 49.8047 240.187 52.0485 241.015 54.3603L246.077 56.5661C246.92 56.9336 247.838 56.2418 247.761 55.2967L247.161 47.8759C247.134 47.5377 247.239 47.2024 247.453 46.9455L252.145 41.3077C252.742 40.5898 252.391 39.4705 251.501 39.2538L244.51 37.5526C244.191 37.4751 243.916 37.2678 243.747 36.9776L240.026 30.6081Z" fill="#00CCCC"/>
  <path d="M37.9466 78.6068H24.9385V91.1908H13.085V78.6068H0V67.4719H13.085V54.8879H24.9385V67.4719H37.9466V78.6068Z" fill="white"/>
  <path d="M79.0779 85.5471H70.765V99.7327H55.5248V46.346H80.1555C85.0303 46.346 89.2637 47.1595 92.8556 48.7865C96.4476 50.3627 99.2185 52.6507 101.168 55.6505C103.118 58.5995 104.093 62.0824 104.093 66.0991C104.093 69.9633 103.17 73.3444 101.322 76.2425C99.5264 79.0898 96.9351 81.327 93.5484 82.954L105.171 99.7327H88.8531L79.0779 85.5471ZM88.6992 66.0991C88.6992 63.6077 87.9038 61.6756 86.3131 60.3028C84.7224 58.93 82.3619 58.2436 79.2318 58.2436H70.765V73.8783H79.2318C82.3619 73.8783 84.7224 73.2173 86.3131 71.8953C87.9038 70.5225 88.6992 68.5905 88.6992 66.0991Z" fill="white"/>
  <path d="M163.456 88.0639V99.7327H120.198V46.346H162.455V58.0148H135.285V67.0143H159.222V78.3017H135.285V88.0639H163.456Z" fill="white"/>
  <path d="M204.241 46.346C209.116 46.346 213.349 47.1595 216.941 48.7865C220.533 50.3627 223.304 52.6507 225.254 55.6505C227.204 58.5995 228.179 62.0824 228.179 66.0991C228.179 70.1158 227.204 73.5986 225.254 76.5476C223.304 79.4966 220.533 81.7846 216.941 83.4116C213.349 84.9878 209.116 85.7759 204.241 85.7759H194.85V99.7327H179.61V46.346H204.241ZM203.317 73.8783C206.447 73.8783 208.808 73.2173 210.398 71.8953C211.989 70.5225 212.785 68.5905 212.785 66.0991C212.785 63.6077 211.989 61.6756 210.398 60.3028C208.808 58.93 206.447 58.2436 203.317 58.2436H194.85V73.8783H203.317Z" fill="white"/>
</svg>
