<svg width="60" height="60" viewBox="0 0 60 60" fill="none" xmlns="http://www.w3.org/2000/svg">
<circle cx="30" cy="30" r="30" fill="#2A1646"/>
<path d="M40.6006 39.2012C39.5449 39.2012 38.6469 39.8868 38.3268 40.8359H31.8001C31.5611 40.1271 30.9998 39.5658 30.291 39.3268V37.6191H38.9922C39.429 37.6191 39.7832 37.265 39.7832 36.8281V17.791C39.7832 17.3542 39.429 17 38.9922 17H20.0078C19.571 17 19.2168 17.3542 19.2168 17.791V36.8281C19.2168 37.265 19.571 37.6191 20.0078 37.6191H28.709V39.3447C28.025 39.5933 27.4857 40.1447 27.2526 40.8359H20.6732C20.3531 39.8868 19.4551 39.2012 18.3994 39.2012C17.0764 39.2012 16 40.2775 16 41.6006C16 42.9236 17.0764 44 18.3994 44C19.4355 44 20.3203 43.3398 20.6553 42.418H27.2705C28.0358 44.5235 31.0179 44.5211 31.7822 42.418H38.3447C38.6797 43.3398 39.5645 44 40.6006 44C41.9236 44 43 42.9236 43 41.6006C43 40.2775 41.9236 39.2012 40.6006 39.2012ZM20.7988 24.9629H38.2012V29.709H20.7988V24.9629ZM38.2012 18.582V23.3809H20.7988V18.582H38.2012ZM20.7988 31.291H38.2012V36.0371H20.7988V31.291ZM18.3994 42.418C17.9487 42.418 17.582 42.0513 17.582 41.6006C17.582 41.1499 17.9487 40.7832 18.3994 40.7832C18.8501 40.7832 19.2168 41.1499 19.2168 41.6006C19.2168 42.0513 18.8501 42.418 18.3994 42.418ZM29.5264 42.418C29.0756 42.418 28.709 42.0513 28.709 41.6006C28.709 41.1499 29.0756 40.7832 29.5264 40.7832C29.9771 40.7832 30.3438 41.1499 30.3438 41.6006C30.3438 42.0513 29.9771 42.418 29.5264 42.418ZM40.6006 42.418C40.1499 42.418 39.7832 42.0513 39.7832 41.6006C39.7832 41.1499 40.1499 40.7832 40.6006 40.7832C41.0513 40.7832 41.418 41.1499 41.418 41.6006C41.418 42.0513 41.0513 42.418 40.6006 42.418Z" fill="#00CCCC"/>
<path d="M23.1719 21.7988C23.6087 21.7988 23.9629 21.4447 23.9629 21.0078C23.9629 20.5709 23.6087 20.2168 23.1719 20.2168C22.735 20.2168 22.3809 20.5709 22.3809 21.0078C22.3809 21.4447 22.735 21.7988 23.1719 21.7988Z" fill="#00CCCC"/>
<path d="M23.1719 28.127C23.6087 28.127 23.9629 27.7728 23.9629 27.3359C23.9629 26.8991 23.6087 26.5449 23.1719 26.5449C22.735 26.5449 22.3809 26.8991 22.3809 27.3359C22.3809 27.7728 22.735 28.127 23.1719 28.127Z" fill="#00CCCC"/>
<path d="M23.1719 34.4551C23.6087 34.4551 23.9629 34.1009 23.9629 33.6641C23.9629 33.2272 23.6087 32.873 23.1719 32.873C22.735 32.873 22.3809 33.2272 22.3809 33.6641C22.3809 34.1009 22.735 34.4551 23.1719 34.4551Z" fill="#00CCCC"/>
<path d="M26.3359 21.7988H35.8281C36.265 21.7988 36.6191 21.4447 36.6191 21.0078C36.6191 20.571 36.265 20.2168 35.8281 20.2168H26.3359C25.8991 20.2168 25.5449 20.571 25.5449 21.0078C25.5449 21.4447 25.8991 21.7988 26.3359 21.7988Z" fill="#00CCCC"/>
<path d="M35.8281 26.5449H26.3359C25.8991 26.5449 25.5449 26.8991 25.5449 27.3359C25.5449 27.7728 25.8991 28.127 26.3359 28.127H35.8281C36.265 28.127 36.6191 27.7728 36.6191 27.3359C36.6191 26.8991 36.265 26.5449 35.8281 26.5449Z" fill="#00CCCC"/>
<path d="M36.6191 33.6641C36.6191 33.2272 36.265 32.873 35.8281 32.873H26.3359C25.8991 32.873 25.5449 33.2272 25.5449 33.6641C25.5449 34.1009 25.8991 34.4551 26.3359 34.4551H35.8281C36.265 34.4551 36.6191 34.1009 36.6191 33.6641Z" fill="#00CCCC"/>
</svg>
