<svg width="55px" height="55px" viewBox="0 0 243 243" fill="none" xmlns="http://www.w3.org/2000/svg">
<circle cx="121.5" cy="121.5" r="121.5" fill="#00CCCC"/>
<path d="M192 162.568C192 164.358 191.669 166.695 191.006 169.578C190.343 172.462 189.647 174.732 188.918 176.389C187.526 179.704 183.482 183.217 176.787 186.929C170.556 190.31 164.391 192 158.293 192C156.503 192 154.763 191.884 153.072 191.652C151.382 191.42 149.476 191.006 147.355 190.409C145.234 189.813 143.66 189.332 142.632 188.967C141.605 188.603 139.765 187.923 137.114 186.929C134.462 185.935 132.838 185.338 132.241 185.139C125.745 182.819 119.945 180.068 114.841 176.886C106.356 171.65 97.5895 164.507 88.5412 155.459C79.4929 146.411 72.3504 137.644 67.1136 129.159C63.9318 124.055 61.1809 118.255 58.8608 111.759C58.6619 111.162 58.0653 109.538 57.071 106.886C56.0767 104.235 55.3973 102.395 55.0327 101.368C54.6681 100.34 54.1875 98.7661 53.5909 96.6449C52.9943 94.5237 52.58 92.6179 52.348 90.9276C52.116 89.2372 52 87.4972 52 85.7074C52 79.6089 53.6903 73.4441 57.071 67.2131C60.7831 60.518 64.2964 56.4744 67.6108 55.0824C69.268 54.3532 71.5384 53.6572 74.4219 52.9943C77.3054 52.3314 79.642 52 81.4318 52C82.3598 52 83.0559 52.0994 83.5199 52.2983C84.7131 52.696 86.4697 55.215 88.7898 59.8551C89.5189 61.1146 90.5133 62.9044 91.7727 65.2244C93.0322 67.5445 94.1922 69.6491 95.2528 71.5384C96.3134 73.4276 97.3409 75.2008 98.3352 76.858C98.5341 77.1231 99.1141 77.9517 100.075 79.3438C101.036 80.7358 101.749 81.9124 102.213 82.8736C102.677 83.8348 102.909 84.7794 102.909 85.7074C102.909 87.0331 101.964 88.6903 100.075 90.679C98.1861 92.6676 96.1312 94.4905 93.9105 96.1477C91.6899 97.8049 89.6349 99.5616 87.7457 101.418C85.8565 103.274 84.9119 104.798 84.9119 105.991C84.9119 106.588 85.0777 107.334 85.4091 108.229C85.7405 109.124 86.0223 109.803 86.2543 110.267C86.4863 110.731 86.9503 111.527 87.6463 112.653C88.3423 113.78 88.7235 114.41 88.7898 114.543C93.8277 123.624 99.5947 131.413 106.091 137.909C112.587 144.405 120.376 150.172 129.457 155.21C129.59 155.277 130.22 155.658 131.347 156.354C132.473 157.05 133.269 157.514 133.733 157.746C134.197 157.978 134.876 158.259 135.771 158.591C136.666 158.922 137.412 159.088 138.009 159.088C139.202 159.088 140.726 158.143 142.582 156.254C144.438 154.365 146.195 152.31 147.852 150.089C149.509 147.869 151.332 145.814 153.321 143.925C155.31 142.036 156.967 141.091 158.293 141.091C159.221 141.091 160.165 141.323 161.126 141.787C162.088 142.251 163.264 142.964 164.656 143.925C166.048 144.886 166.877 145.466 167.142 145.665C168.799 146.659 170.572 147.687 172.462 148.747C174.351 149.808 176.455 150.968 178.776 152.227C181.096 153.487 182.885 154.481 184.145 155.21C188.785 157.53 191.304 159.287 191.702 160.48C191.901 160.944 192 161.64 192 162.568Z" fill="white"/>
</svg>
