<svg width="60" height="60" viewBox="0 0 60 60" fill="none" xmlns="http://www.w3.org/2000/svg">
<circle cx="30" cy="30" r="30" fill="#2A1646"/>
<g clip-path="url(#clip0)">
<path d="M33.5781 37.3535H29.0469C28.5777 37.3535 28.1973 37.7339 28.1973 38.2031C28.1973 38.6723 28.5777 39.0527 29.0469 39.0527H33.5781C34.0473 39.0527 34.4277 38.6723 34.4277 38.2031C34.4277 37.7339 34.0473 37.3535 33.5781 37.3535Z" fill="#00CCCC"/>
<path d="M29.0469 35.4277H32.2188C32.688 35.4277 33.0684 35.0473 33.0684 34.5781C33.0684 34.1089 32.688 33.7285 32.2188 33.7285H29.0469C28.5777 33.7285 28.1973 34.1089 28.1973 34.5781C28.1973 35.0473 28.5777 35.4277 29.0469 35.4277Z" fill="#00CCCC"/>
<path d="M44 25.0625C44 21.3459 40.9764 18.3223 37.2598 18.3223C34.3166 18.3223 31.8083 20.2186 30.8917 22.8535H17.5488C16.1434 22.8535 15 23.9969 15 25.4023V40.1289C15 41.5343 16.1434 42.6777 17.5488 42.6777H38.6758C40.0812 42.6777 41.2246 41.5343 41.2246 40.1289V30.5097C42.9055 29.2828 44 27.2982 44 25.0625ZM37.2598 20.0215C40.0394 20.0215 42.3008 22.2829 42.3008 25.0625C42.3008 27.8421 40.0394 30.1035 37.2598 30.1035C34.4801 30.1035 32.2188 27.8421 32.2188 25.0625C32.2188 22.2829 34.4801 20.0215 37.2598 20.0215ZM39.5254 40.1289C39.5254 40.5974 39.1443 40.9785 38.6758 40.9785H17.5488C17.0804 40.9785 16.6992 40.5974 16.6992 40.1289V25.4023C16.6992 24.9339 17.0804 24.5527 17.5488 24.5527H30.5387C30.5261 24.7211 30.5195 24.891 30.5195 25.0625C30.5195 28.7791 33.5432 31.8027 37.2598 31.8027C38.0543 31.8027 38.817 31.6641 39.5254 31.4106V40.1289Z" fill="#00CCCC"/>
<path d="M35.5933 26.8018C35.7215 27.0583 35.9705 27.2327 36.2553 27.2658C36.2881 27.2695 36.3208 27.2715 36.3533 27.2715C36.6037 27.2715 36.8435 27.1607 37.0059 26.9658L39.2716 24.247C39.5719 23.8866 39.5232 23.3509 39.1628 23.0504C38.8024 22.7501 38.2666 22.7988 37.9662 23.1592L36.5322 24.88L36.2069 24.2295C35.997 23.8098 35.4867 23.6396 35.067 23.8495C34.6473 24.0593 34.4772 24.5697 34.6871 24.9894L35.5933 26.8018Z" fill="#00CCCC"/>
<path d="M24.464 33.1421C25.0207 32.5791 25.3652 31.8057 25.3652 30.9531C25.3652 29.2354 23.9677 27.8379 22.25 27.8379C20.5323 27.8379 19.1348 29.2354 19.1348 30.9531C19.1348 31.8057 19.4793 32.5791 20.036 33.1421C19.2118 33.7963 18.6816 34.8059 18.6816 35.9375V38.2031C18.6816 38.6723 19.062 39.0527 19.5312 39.0527H24.9688C25.438 39.0527 25.8184 38.6723 25.8184 38.2031V35.9375C25.8184 34.8059 25.2882 33.7963 24.464 33.1421ZM20.834 30.9531C20.834 30.1723 21.4692 29.5371 22.25 29.5371C23.0308 29.5371 23.666 30.1723 23.666 30.9531C23.666 31.7339 23.0308 32.3691 22.25 32.3691C21.4692 32.3691 20.834 31.7339 20.834 30.9531ZM24.1191 37.3535H20.3809V35.9375C20.3809 34.9069 21.2194 34.0684 22.25 34.0684C23.2806 34.0684 24.1191 34.9069 24.1191 35.9375V37.3535Z" fill="#00CCCC"/>
</g>
<defs>
<clipPath id="clip0">
<rect width="29" height="29" fill="white" transform="translate(15 16)"/>
</clipPath>
</defs>
</svg>
