<svg width="60" height="60" viewBox="0 0 60 60" fill="none" xmlns="http://www.w3.org/2000/svg">
<circle cx="30" cy="30" r="30" fill="#2A1646"/>
<g clip-path="url(#clip0)">
<path d="M40.254 20.1548C37.7057 17.4949 34.1798 15.9937 30.4961 16.0005C23.0518 15.9911 17.0094 22.0183 17 29.4627C16.9954 33.1436 18.4963 36.6663 21.1543 39.2129C21.162 39.2205 21.1649 39.2321 21.1726 39.2389C21.2507 39.3141 21.3355 39.3777 21.4146 39.45C21.6315 39.6428 21.8484 39.8423 22.0768 40.0284C22.1992 40.1248 22.3265 40.2212 22.4518 40.3099C22.6677 40.4708 22.8837 40.6318 23.1092 40.7803C23.2625 40.8767 23.4206 40.9731 23.5777 41.0695C23.7859 41.1948 23.9932 41.3211 24.2081 41.4358C24.3904 41.5322 24.5763 41.6151 24.7614 41.7028C24.9639 41.7992 25.1634 41.8955 25.3707 41.9823C25.5779 42.0691 25.7861 42.1366 25.9963 42.2117C26.2064 42.2869 26.3876 42.3563 26.5891 42.418C26.8166 42.4865 27.0499 42.5394 27.2812 42.5963C27.474 42.6435 27.661 42.6975 27.8596 42.7361C28.1257 42.7892 28.3956 42.8229 28.6655 42.8595C28.8323 42.8827 28.9952 42.9154 29.1639 42.9318C29.6054 42.9752 30.0507 42.9993 30.4999 42.9993C30.9491 42.9993 31.3945 42.9752 31.8359 42.9318C32.0046 42.9154 32.1675 42.8827 32.3343 42.8595C32.6042 42.8229 32.8741 42.7892 33.1402 42.7361C33.3329 42.6975 33.5258 42.6397 33.7186 42.5963C33.9499 42.5394 34.1832 42.4864 34.4107 42.418C34.6122 42.3563 34.8069 42.2812 35.0035 42.2117C35.2002 42.1423 35.4238 42.0671 35.6291 41.9823C35.8344 41.8975 36.0359 41.7982 36.2384 41.7028C36.4234 41.6151 36.6095 41.5321 36.7917 41.4358C37.0066 41.3211 37.2139 41.1948 37.4221 41.0695C37.5792 40.9731 37.7373 40.8854 37.8906 40.7803C38.1162 40.6319 38.3321 40.4709 38.548 40.3099C38.6733 40.2134 38.8005 40.1267 38.923 40.0284C39.1514 39.8452 39.3683 39.6505 39.5852 39.45C39.6642 39.3777 39.7491 39.3141 39.8272 39.2389C39.8349 39.2322 39.8378 39.2206 39.8455 39.2129C45.2212 34.0629 45.404 25.5303 40.254 20.1548ZM38.0874 38.2036C37.912 38.3578 37.7307 38.5043 37.5476 38.646C37.4397 38.729 37.3317 38.8109 37.2208 38.8899C37.0463 39.0162 36.869 39.1358 36.6887 39.2505C36.5576 39.3343 36.4236 39.4153 36.2886 39.4944C36.1189 39.5908 35.9464 39.6871 35.7719 39.7835C35.6177 39.8626 35.4605 39.9368 35.3025 40.0101C35.1445 40.0834 34.9699 40.1614 34.7993 40.2299C34.6287 40.2983 34.4475 40.3629 34.2691 40.4226C34.1062 40.4786 33.9433 40.5364 33.7784 40.5855C33.5857 40.6434 33.3842 40.6906 33.1846 40.7388C33.0285 40.7754 32.8743 40.8169 32.7162 40.8478C32.4877 40.8921 32.2544 40.923 32.0202 40.9548C31.8872 40.9721 31.7551 40.9962 31.6211 41.0097C31.2509 41.0454 30.8759 41.0666 30.4971 41.0666C30.1182 41.0666 29.7433 41.0454 29.3731 41.0097C29.2391 40.9962 29.107 40.9721 28.974 40.9548C28.7397 40.923 28.5065 40.8921 28.278 40.8478C28.1199 40.817 27.9656 40.7755 27.8095 40.7388C27.61 40.6907 27.4114 40.6424 27.2157 40.5855C27.0509 40.5364 26.888 40.4786 26.7251 40.4226C26.5467 40.361 26.3684 40.2983 26.1949 40.2299C26.0213 40.1614 25.8575 40.0862 25.6917 40.0101C25.5258 39.934 25.3764 39.8626 25.2222 39.7835C25.0478 39.693 24.8752 39.5975 24.7055 39.4944C24.5706 39.4153 24.4366 39.3343 24.3055 39.2505C24.1252 39.1358 23.9478 39.0162 23.7733 38.8899C23.6625 38.8109 23.5545 38.729 23.4465 38.646C23.2634 38.5043 23.0822 38.3569 22.9067 38.2036C22.8643 38.1718 22.8257 38.1313 22.7843 38.0946C22.8274 34.8154 24.9341 31.9199 28.0409 30.8696C29.5943 31.6086 31.3979 31.6086 32.9514 30.8696C36.0581 31.9199 38.1647 34.8153 38.2079 38.0946C38.1674 38.1313 38.1288 38.1679 38.0874 38.2036ZM27.1347 23.7295C28.1784 21.8732 30.5293 21.2146 32.3855 22.2583C34.2418 23.3021 34.9004 25.6529 33.8567 27.5092C33.5104 28.125 33.0015 28.634 32.3855 28.9803C32.3807 28.9803 32.3749 28.9803 32.3691 28.9861C32.1135 29.1283 31.8433 29.2428 31.5632 29.3273C31.5131 29.3418 31.4668 29.3611 31.4138 29.3736C31.3174 29.3987 31.2162 29.416 31.1169 29.4334C30.93 29.4661 30.7408 29.485 30.5511 29.4902H30.4412C30.2514 29.485 30.0623 29.4661 29.8753 29.4334C29.7789 29.416 29.6767 29.3987 29.5784 29.3736C29.5273 29.3611 29.482 29.3418 29.429 29.3273C29.1489 29.2428 28.8788 29.1284 28.6232 28.9861L28.6058 28.9803C26.7496 27.9366 26.0909 25.5857 27.1347 23.7295ZM39.918 36.1831C39.2994 33.2978 37.3994 30.8517 34.7569 29.5385C36.917 27.1854 36.7606 23.5266 34.4075 21.3665C32.0544 19.2063 28.3956 19.3627 26.2354 21.7159C24.2046 23.9281 24.2046 27.3264 26.2354 29.5385C23.5929 30.8518 21.6929 33.2978 21.0743 36.1831C17.3779 30.9764 18.6022 23.759 23.8089 20.0625C29.0157 16.3661 36.2331 17.5904 39.9295 22.7971C41.3191 24.7544 42.065 27.0957 42.0638 29.496C42.0638 31.8944 41.3135 34.2326 39.918 36.1831Z" fill="#00CCCC"/>
</g>
<defs>
<clipPath id="clip0">
<rect width="27" height="27" fill="white" transform="translate(17 16)"/>
</clipPath>
</defs>
</svg>
