<svg width="60" height="60" viewBox="0 0 60 60" fill="none" xmlns="http://www.w3.org/2000/svg">
<circle cx="30" cy="30" r="30" fill="#2A1646"/>
<g clip-path="url(#clip0)">
<path d="M40.4786 28.0297H36.7586V26.6403V24.2594C36.7586 20.8553 34.3421 17.8696 31.0126 17.1601C30.0085 16.9461 28.9908 16.9459 27.987 17.1601C24.6577 17.8696 22.2412 20.8553 22.2412 24.2595V26.6405V28.0299H18.5212C18.1708 28.0299 17.8867 28.3139 17.8867 28.6643C17.8867 29.0147 18.1708 29.2988 18.5212 29.2988H40.4786C40.829 29.2988 41.1131 29.0147 41.1131 28.6643C41.1131 28.3139 40.829 28.0297 40.4786 28.0297ZM30.7482 18.4013C33.4955 18.9868 35.4897 21.4505 35.4897 24.2595V26.006H23.5102V24.2595C23.5102 21.4505 25.5043 18.9868 28.2518 18.4013C29.0798 18.2249 29.92 18.2249 30.7482 18.4013Z" fill="#00CCCC"/>
<path d="M36.5276 37.0082C36.2995 36.906 36.032 36.9474 35.8457 37.114L29.5566 42.7307H29.4438L23.1547 37.114C22.9682 36.9473 22.7011 36.9057 22.4728 37.0082C22.2447 37.1105 22.0977 37.3372 22.0977 37.5873V43.3652C22.0977 43.7156 22.3817 43.9996 22.7321 43.9996H29.1987C29.1987 43.9996 29.2006 43.9996 29.2017 43.9996H29.2046H29.799H30.4187H36.2686C36.619 43.9996 36.903 43.7156 36.903 43.3652V37.5873C36.9027 37.3372 36.7558 37.1103 36.5276 37.0082Z" fill="#00CCCC"/>
<path d="M25.1196 35.3341H26.2298C27.567 35.3341 28.6815 34.3743 28.8798 33.052L29.1277 31.399H29.8713L30.1193 33.052C30.3175 34.3743 31.432 35.3341 32.7692 35.3341H33.8794C35.262 35.3341 36.4082 34.2968 36.5459 32.9212L36.8249 30.1299H36.1238H29.6811H29.3181H22.8754H22.1743L22.4533 32.9212C22.5909 34.2969 23.7371 35.3341 25.1196 35.3341Z" fill="#00CCCC"/>
</g>
<defs>
<clipPath id="clip0">
<rect width="27" height="27" fill="white" transform="translate(16 17)"/>
</clipPath>
</defs>
</svg>
