<svg width="25" height="25" viewBox="0 0 25 25" fill="none" xmlns="http://www.w3.org/2000/svg">
<circle cx="12.5" cy="12.5" r="12.5" fill="#00CCCC"/>
<path d="M11.4159 14.598C11.4159 14.1127 11.5233 13.7113 11.7379 13.394C11.9619 13.0767 12.2839 12.7267 12.7039 12.344C13.0119 12.064 13.2359 11.8307 13.3759 11.644C13.5253 11.448 13.5999 11.2287 13.5999 10.986C13.5999 10.6407 13.4599 10.37 13.1799 10.174C12.9093 9.96867 12.5453 9.866 12.0879 9.866C11.6493 9.866 11.2573 9.95933 10.9119 10.146C10.5759 10.3233 10.2913 10.5753 10.0579 10.902L8.36393 9.908C8.75593 9.31067 9.28326 8.84867 9.94593 8.522C10.6179 8.19533 11.4113 8.032 12.3259 8.032C13.3993 8.032 14.2579 8.26067 14.9019 8.718C15.5553 9.17533 15.8819 9.81 15.8819 10.622C15.8819 11.0047 15.8166 11.3407 15.6859 11.63C15.5646 11.9193 15.4106 12.1667 15.2239 12.372C15.0466 12.568 14.8133 12.7967 14.5239 13.058C14.1786 13.366 13.9266 13.6273 13.7679 13.842C13.6093 14.0473 13.5299 14.2993 13.5299 14.598H11.4159ZM12.4799 18.112C12.0973 18.112 11.7753 17.9907 11.5139 17.748C11.2619 17.496 11.1359 17.1927 11.1359 16.838C11.1359 16.4833 11.2619 16.1893 11.5139 15.956C11.7659 15.7133 12.0879 15.592 12.4799 15.592C12.8719 15.592 13.1939 15.7133 13.4459 15.956C13.6979 16.1893 13.8239 16.4833 13.8239 16.838C13.8239 17.1927 13.6933 17.496 13.4319 17.748C13.1799 17.9907 12.8626 18.112 12.4799 18.112Z" fill="white"/>
</svg>
