<svg width="60" height="60" viewBox="0 0 60 60" fill="none" xmlns="http://www.w3.org/2000/svg">
<circle cx="30" cy="30" r="30" fill="#2A1646"/>
<path d="M37.3195 17.8397L16.9445 23.2992C15.3717 23.7206 14.4349 25.3432 14.8563 26.916L18.132 39.141C18.5534 40.7139 20.176 41.6506 21.7488 41.2292L42.1238 35.7697C43.6967 35.3483 44.6334 33.7257 44.212 32.1529L40.9363 19.9279C40.5149 18.3551 38.8923 17.4183 37.3195 17.8397ZM17.3813 24.9292L37.7563 19.4697C38.4303 19.2891 39.1257 19.6906 39.3063 20.3647L39.7431 21.9947L16.9231 28.1093L16.4863 26.4793C16.3057 25.8052 16.7072 25.1098 17.3813 24.9292ZM41.6871 34.1397L21.3121 39.5992C20.638 39.7798 19.9426 39.3783 19.762 38.7043L17.3598 29.7393L40.1798 23.6247L42.582 32.5897C42.7626 33.2637 42.3611 33.9591 41.6871 34.1397Z" fill="#00CCCC"/>
<path d="M23.5094 36.3899L22.6944 36.6082C22.2444 36.7288 21.7817 36.4617 21.6611 36.0116L21.4427 35.1966C21.3221 34.7465 21.5892 34.2838 22.0393 34.1632L22.8543 33.9449C23.3044 33.8243 23.7671 34.0914 23.8877 34.5415L24.1061 35.3565C24.2267 35.8066 23.9595 36.2693 23.5094 36.3899Z" fill="#00CCCC"/>
</svg>
