<svg width="83" height="83" fill="none" xmlns="http://www.w3.org/2000/svg"><g filter="url(#filter0_d)"><path fill-rule="evenodd" clip-rule="evenodd" d="M73 37.48c0 17.346-14.103 31.407-31.5 31.407S10 54.826 10 37.48 24.103 6.072 41.5 6.072 73 20.134 73 37.48zm-30.198-2.92H39.63V31.4a.528.528 0 0 0-1.057 0v3.162H35.4a.528.528 0 1 0 0 1.054h3.172v3.163a.528.528 0 0 0 1.057 0v-3.163h3.172a.528.528 0 1 0 0-1.054zm4.156 8.339l7.855 8.145a.526.526 0 0 1-.381.892.526.526 0 0 1-.381-.162l-7.874-8.165a11.07 11.07 0 0 1-7.075 2.547C32.98 46.157 28 41.192 28 35.088c0-6.104 4.98-11.069 11.102-11.069 6.121 0 11.1 4.965 11.1 11.07 0 3.045-1.24 5.807-3.244 7.81zm-7.856-17.827c-5.54 0-10.045 4.493-10.045 10.015 0 5.523 4.506 10.015 10.045 10.015 5.538 0 10.044-4.492 10.044-10.015 0-5.522-4.506-10.015-10.044-10.015z" fill="#fff"/></g><defs><filter id="filter0_d" x="0" y=".072" width="83" height="82.816" filterUnits="userSpaceOnUse" color-interpolation-filters="sRGB"><feFlood flood-opacity="0" result="BackgroundImageFix"/><feColorMatrix in="SourceAlpha" values="0 0 0 0 0 0 0 0 0 0 0 0 0 0 0 0 0 0 127 0"/><feOffset dy="4"/><feGaussianBlur stdDeviation="5"/><feColorMatrix values="0 0 0 0 0 0 0 0 0 0 0 0 0 0 0 0 0 0 0.1 0"/><feBlend in2="BackgroundImageFix" result="effect1_dropShadow"/><feBlend in="SourceGraphic" in2="effect1_dropShadow" result="shape"/></filter></defs></svg>