<svg width="25" height="25" viewBox="0 0 25 25" fill="none" xmlns="http://www.w3.org/2000/svg">
<path d="M12.0479 2.14087C6.11985 2.14087 1.29785 6.96287 1.29785 12.8909C1.29785 18.8189 6.11985 23.6409 12.0479 23.6409C17.9759 23.6409 22.7979 18.8189 22.7979 12.8909C22.7979 6.96287 17.9759 2.14087 12.0479 2.14087ZM12.0479 22.1409C6.94685 22.1409 2.79785 17.9919 2.79785 12.8909C2.79785 7.78987 6.94685 3.64087 12.0479 3.64087C17.1489 3.64087 21.2979 7.78987 21.2979 12.8909C21.2979 17.9919 17.1489 22.1409 12.0479 22.1409ZM17.5779 10.3608C17.8708 10.6538 17.8708 11.1289 17.5779 11.4219L14.7849 14.2148C14.1039 14.8968 12.9929 14.8978 12.3109 14.2158L10.7218 12.6309C10.6238 12.5329 10.4659 12.5329 10.3679 12.6309L7.57685 15.4219C7.43085 15.5679 7.23885 15.6418 7.04685 15.6418C6.85485 15.6418 6.66285 15.5689 6.51685 15.4219C6.22385 15.1289 6.22385 14.6538 6.51685 14.3608L9.30785 11.5698C9.98985 10.8878 11.0998 10.8878 11.7818 11.5688L13.3708 13.1538C13.4688 13.2508 13.6269 13.2508 13.7249 13.1538L16.5179 10.3608C16.8109 10.0678 17.2849 10.0678 17.5779 10.3608Z" fill="#292421"/>
</svg>
