<svg width="25" height="24" viewBox="0 0 25 24" fill="none" xmlns="http://www.w3.org/2000/svg">
<path fill-rule="evenodd" clip-rule="evenodd" d="M16.394 2C16.534 3.212 16.029 4.405 15.29 5.283C14.52 6.147 13.286 6.807 12.086 6.722C11.929 5.557 12.537 4.317 13.218 3.561C13.988 2.701 15.325 2.044 16.394 2ZM20.233 8.509C20.091 8.589 17.879 9.849 17.903 12.411C17.931 15.513 20.76 16.538 20.793 16.549C20.777 16.621 20.35 18.029 19.291 19.457C18.405 20.715 17.476 21.945 16.003 21.967C15.303 21.983 14.829 21.791 14.336 21.592C13.822 21.384 13.286 21.167 12.447 21.167C11.559 21.167 10.999 21.391 10.459 21.607C9.99198 21.793 9.54098 21.974 8.90398 21.999C7.50098 22.049 6.42798 20.656 5.50998 19.409C3.67698 16.865 2.24898 12.236 4.16298 9.087C5.09098 7.542 6.78298 6.547 8.59098 6.521C9.38698 6.505 10.151 6.797 10.821 7.052C11.333 7.248 11.79 7.422 12.164 7.422C12.493 7.422 12.937 7.255 13.455 7.06C14.271 6.752 15.268 6.376 16.285 6.477C16.98 6.497 18.96 6.737 20.236 8.507L20.233 8.509Z" fill="white"/>
</svg>
