<svg width="51" height="51" viewBox="0 0 51 51" fill="none" xmlns="http://www.w3.org/2000/svg">
<path d="M11.2794 25.2627L5.66691 30.8773L0.000244141 25.2627L5.66483 19.5981L11.2794 25.2627ZM25.0002 11.5419L34.6669 21.2085L40.3336 15.546L25.0002 0.262695L9.66691 15.596L15.3336 21.2585L25.0002 11.5419ZM44.3357 19.5981L38.7211 25.2627L44.3857 30.9273L50.0482 25.2627L44.3357 19.5981ZM25.0002 38.9835L15.3336 29.2669L9.66691 34.9314L25.0002 50.2627L40.3336 34.9294L34.6669 29.2669L25.0002 38.9835ZM25.0002 30.8794L30.6648 25.2127L25.0002 19.6002L19.3357 25.2627L25.0002 30.8773V30.8794Z" fill="#EEB90B"/>
</svg>
