<svg width="23" height="25" viewBox="0 0 23 25" fill="none" xmlns="http://www.w3.org/2000/svg">
<path fill-rule="evenodd" clip-rule="evenodd" d="M11.3579 11.1238C11.8606 11.1238 12.4301 10.9954 12.8723 10.742C13.2509 10.4885 13.5022 10.1677 13.5022 9.59664C13.5022 9.08652 13.1236 8.57641 12.5573 8.45129C11.9242 8.25879 11.5456 8.25879 11.1034 8.25879C10.6611 8.25879 10.1584 8.32295 10.1584 8.32295V11.1879C10.1584 11.1238 10.852 11.1238 11.3579 11.1238Z" fill="white"/>
<path fill-rule="evenodd" clip-rule="evenodd" d="M13.4377 12.9074C13.1864 12.779 12.5564 12.5865 11.8597 12.5256C11.1661 12.4614 10.2212 12.5256 10.2212 12.5256V15.7082C10.2212 15.7082 11.1661 15.7082 11.8597 15.7082C12.4928 15.644 13.1864 15.5157 13.5014 15.3232C13.8163 15.1339 14.2586 14.8805 14.2586 14.1137C14.1981 13.3501 13.6922 13.0967 13.4377 12.9074Z" fill="white"/>
<path fill-rule="evenodd" clip-rule="evenodd" d="M22.0251 1.57606C15.0162 -0.525354 7.56824 -0.525354 0.5625 1.57606V12.9077V13.6712C0.5625 18.4451 4.66668 22.7731 11.2938 24.9996C17.9209 22.7731 22.0251 18.381 22.0251 13.6712V12.9077V1.57606ZM15.9007 16.533C15.0162 17.1715 14.0713 17.2356 13.6927 17.2998C13.5018 17.2998 13.1232 17.3607 12.7446 17.3607V19.7798H11.2938V17.4249C11.0425 17.4249 10.6002 17.4249 10.158 17.4249V19.7798H8.70404V17.4249C7.25326 17.4249 5.86612 17.4249 5.86612 17.4249L6.18109 15.6443C6.18109 15.6443 6.7474 15.6443 7.06555 15.6443C7.38053 15.6443 7.50461 15.6443 7.63187 15.516C7.75913 15.3877 7.75913 15.1984 7.75913 15.07C7.75913 14.9417 7.75913 9.34328 7.75913 8.9615C7.75913 8.5765 7.75913 8.45138 7.56824 8.25889C7.38053 8.0696 7.00192 8.0696 6.7474 8.0696C6.49606 8.0696 5.86612 8.0696 5.86612 8.0696V6.54246C5.86612 6.54246 7.25326 6.54246 8.70404 6.54246V4.18759L10.158 4.18438V6.54246C10.5366 6.54246 10.9152 6.54246 11.2938 6.54246V4.18438H12.7446V6.60342C13.8168 6.66758 14.6376 6.86008 15.3344 7.43115C16.2156 8.13376 16.2156 9.27912 16.1552 9.59673C16.1552 9.85019 16.0279 10.4245 15.7766 10.7421C15.5221 11.1239 14.9558 11.4415 14.9558 11.4415C14.9558 11.4415 15.6493 11.5698 16.1552 11.9516C16.6579 12.3334 17.0365 12.9686 16.9728 13.9889C16.9728 15.0059 16.7851 15.9619 15.9007 16.533Z" fill="white"/>
<path fill-rule="evenodd" clip-rule="evenodd" d="M10.7239 0.0483352C11.7992 0.176666 21.8974 1.95726 21.8974 14.7518C21.9611 14.4342 21.9611 14.0524 21.9611 13.7348V12.968V1.63964C18.3627 0.494285 14.5131 -0.0158302 10.7239 0.0483352Z" fill="white" fill-opacity="0.301961"/>
</svg>
