<svg width="25" height="25" viewBox="0 0 25 25" fill="none" xmlns="http://www.w3.org/2000/svg">
<path d="M16.0479 3.14087H8.04785C5.62985 3.14087 4.29785 4.47287 4.29785 6.89087V21.8909C4.29785 22.1589 4.44087 22.4058 4.67188 22.5388C4.78787 22.6068 4.91785 22.6409 5.04785 22.6409C5.17585 22.6409 5.30492 22.6079 5.41992 22.5419L12.0479 18.7539L18.6758 22.5409C18.9078 22.6739 19.1938 22.6728 19.4238 22.5378C19.6548 22.4038 19.7979 22.1569 19.7979 21.8899V6.88989C19.7979 4.47289 18.4659 3.14087 16.0479 3.14087ZM18.2979 20.5979L12.4199 17.2399C12.1899 17.1079 11.9058 17.1079 11.6758 17.2399L5.79785 20.5989V6.89087C5.79785 5.31387 6.47085 4.64087 8.04785 4.64087H16.0479C17.6249 4.64087 18.2979 5.31387 18.2979 6.89087V20.5979ZM15.7979 8.89087C15.7979 9.30487 15.4619 9.64087 15.0479 9.64087H9.04785C8.63385 9.64087 8.29785 9.30487 8.29785 8.89087C8.29785 8.47687 8.63385 8.14087 9.04785 8.14087H15.0479C15.4619 8.14087 15.7979 8.47687 15.7979 8.89087Z" fill="#292421"/>
</svg>
