<svg width="25" height="25" viewBox="0 0 25 25" fill="none" xmlns="http://www.w3.org/2000/svg">
<path d="M21.7807 10.66C21.2387 6.78499 18.1538 3.69989 14.2788 3.15889C13.7848 3.08889 13.2818 3.2399 12.9008 3.5699C12.5168 3.9039 12.2968 4.38492 12.2968 4.89192V10.9C12.2968 11.86 13.0778 12.6419 14.0388 12.6419H20.0478C20.5538 12.6419 21.0358 12.4219 21.3688 12.0389C21.6998 11.6579 21.8497 11.156 21.7807 10.66ZM20.2368 11.0529C20.2088 11.0859 20.1458 11.1409 20.0478 11.1409H14.0398C13.9058 11.1409 13.7978 11.033 13.7978 10.899V4.89094C13.7978 4.79194 13.8528 4.729 13.8858 4.701C13.9128 4.677 13.9658 4.64094 14.0398 4.64094C14.0498 4.64094 14.0608 4.6419 14.0708 4.6429C14.0718 4.6429 14.0718 4.6429 14.0718 4.6429C17.2858 5.0919 19.8448 7.6519 20.2948 10.8669C20.3078 10.9569 20.2648 11.0219 20.2368 11.0529ZM18.0918 13.5479H12.1408C11.7278 13.5479 11.3908 13.2119 11.3908 12.7979V6.847C11.3908 6.332 11.1618 5.84893 10.7628 5.52193C10.3718 5.20293 9.8668 5.07393 9.3748 5.17293C7.0928 5.63093 5.04379 7.0159 3.75279 8.9709C2.44779 10.9479 2.00076 13.3399 2.49376 15.7049C3.18876 19.0399 5.89677 21.7479 9.23277 22.4439C9.86077 22.5749 10.4908 22.64 11.1138 22.64C12.8388 22.64 14.5138 22.1439 15.9668 21.1849C17.9218 19.8939 19.3068 17.8459 19.7648 15.5639C19.8638 15.0739 19.7378 14.567 19.4168 14.176C19.0898 13.777 18.6068 13.5479 18.0918 13.5479ZM15.1408 19.9339C13.4998 21.0179 11.5088 21.3889 9.53978 20.9759C6.77878 20.3999 4.53776 18.159 3.96275 15.399C3.55175 13.428 3.92175 11.439 5.00475 9.79695C6.07675 8.17295 7.77679 7.024 9.66979 6.644C9.68179 6.642 9.69177 6.64094 9.70177 6.64094C9.74977 6.64094 9.78678 6.66194 9.81078 6.68294C9.83478 6.70194 9.88976 6.757 9.88976 6.847V12.7979C9.88976 14.0389 10.8998 15.0479 12.1398 15.0479H18.0908C18.1808 15.0479 18.2357 15.1029 18.2547 15.1269C18.2787 15.1569 18.3058 15.206 18.2928 15.27C17.9138 17.162 16.7648 18.8619 15.1408 19.9339Z" fill="#292421"/>
</svg>
