<svg width="25" height="25" viewBox="0 0 25 25" fill="none" xmlns="http://www.w3.org/2000/svg">
<path d="M18.0479 5.14087H6.04785C3.62985 5.14087 2.29785 6.47287 2.29785 8.89087V16.8909C2.29785 19.3089 3.62985 20.6409 6.04785 20.6409H18.0479C20.4659 20.6409 21.7979 19.3089 21.7979 16.8909V8.89087C21.7979 6.47287 20.4659 5.14087 18.0479 5.14087ZM20.2979 16.8909C20.2979 18.4679 19.6249 19.1409 18.0479 19.1409H6.04785C4.47085 19.1409 3.79785 18.4679 3.79785 16.8909V11.6409H20.2979V16.8909ZM20.2979 10.1409H3.79785V8.89087C3.79785 7.31387 4.47085 6.64087 6.04785 6.64087H18.0479C19.6249 6.64087 20.2979 7.31387 20.2979 8.89087V10.1409ZM6.29785 15.8909C6.29785 15.4769 6.63385 15.1409 7.04785 15.1409H10.0479C10.4619 15.1409 10.7979 15.4769 10.7979 15.8909C10.7979 16.3049 10.4619 16.6409 10.0479 16.6409H7.04785C6.63385 16.6409 6.29785 16.3049 6.29785 15.8909Z" fill="#292421"/>
</svg>
