<svg width="26" height="26" viewBox="0 0 26 26" fill="none" xmlns="http://www.w3.org/2000/svg">
<path d="M25.0215 11.9865C24.7487 5.5023 19.5407 0.29425 13.0564 0.0214844C13.1181 5.02432 13.4581 7.83489 15.3331 9.7099C17.2081 11.5849 20.0186 11.9249 25.0215 11.9865Z" fill="white"/>
<path d="M11.9865 0.0214844C5.5023 0.29425 0.29425 5.5023 0.0214844 11.9865C5.02432 11.9249 7.83489 11.5849 9.7099 9.7099C11.5849 7.83489 11.9249 5.02432 11.9865 0.0214844Z" fill="white"/>
<path d="M13.0564 25.0215C19.5407 24.7487 24.7487 19.5407 25.0215 13.0564C20.0187 13.1181 17.2081 13.4581 15.3331 15.3331C13.4581 17.2081 13.1181 20.0187 13.0564 25.0215Z" fill="white"/>
<path d="M11.9865 25.0215C11.9249 20.0187 11.5849 17.2081 9.7099 15.3331C7.83489 13.4581 5.02432 13.1181 0.0214844 13.0564C0.29425 19.5407 5.5023 24.7487 11.9865 25.0215Z" fill="white"/>
</svg>
