<svg width="26" height="25" viewBox="0 0 26 25" fill="none" xmlns="http://www.w3.org/2000/svg">
<path fill-rule="evenodd" clip-rule="evenodd" d="M13 25C19.9036 25 25.5 19.4036 25.5 12.5C25.5 5.59644 19.9036 0 13 0C6.09644 0 0.5 5.59644 0.5 12.5C0.5 19.4036 6.09644 25 13 25ZM6.5 8.84442C6.5 7.52949 7.55878 6.4707 8.87372 6.4707L8.87371 6.47072H17.1263C18.4412 6.47072 19.5 7.5295 19.5 8.84443V17.097C19.5 18.4119 18.4412 19.4707 17.1263 19.4707H15.2815V14.3885H17.1807L17.2673 12.5588H15.2815V11.2226C15.2815 10.7181 15.3873 10.4142 16.0469 10.4142C16.6563 10.4142 17.2148 10.4195 17.2148 10.4195L17.2579 8.71077C17.2579 8.71077 16.7103 8.63967 15.9697 8.63967C14.1406 8.63967 13.3465 9.76734 13.3465 10.9955V12.5588H12.0027V14.3885H13.3465V19.4707H8.87372C7.55878 19.4707 6.5 18.4119 6.5 17.097V8.84442Z" fill="white"/>
</svg>
