<svg width="25" height="25" viewBox="0 0 25 25" fill="none" xmlns="http://www.w3.org/2000/svg">
<path d="M18.0479 21.6409H6.04785C3.62985 21.6409 2.29785 20.3089 2.29785 17.8909V7.89087C2.29785 5.47287 3.62985 4.14087 6.04785 4.14087H10.0479C10.2469 4.14087 10.4379 4.21987 10.5779 4.36087L13.3579 7.14087H18.0479C20.4659 7.14087 21.7979 8.47287 21.7979 10.8909V17.8909C21.7979 20.3089 20.4659 21.6409 18.0479 21.6409ZM6.04785 5.64087C4.47085 5.64087 3.79785 6.31387 3.79785 7.89087V17.8909C3.79785 19.4679 4.47085 20.1409 6.04785 20.1409H18.0479C19.6249 20.1409 20.2979 19.4679 20.2979 17.8909V10.8909C20.2979 9.31387 19.6249 8.64087 18.0479 8.64087H13.0479C12.8489 8.64087 12.6578 8.56187 12.5178 8.42087L9.73779 5.64087H6.04785Z" fill="#292421"/>
</svg>
