<svg width="25" height="25" viewBox="0 0 25 25" fill="none" xmlns="http://www.w3.org/2000/svg">
<path d="M12.0479 2.14087C6.11985 2.14087 1.29785 6.96387 1.29785 12.8909C1.29785 18.8179 6.11985 23.6409 12.0479 23.6409C17.9759 23.6409 22.7979 18.8179 22.7979 12.8909C22.7979 6.96387 17.9759 2.14087 12.0479 2.14087ZM21.2599 12.1409H17.2098C17.0788 9.39787 16.2348 6.60288 14.7748 4.05188C18.3178 5.14788 20.9509 8.32087 21.2599 12.1409ZM12.7779 3.67786C14.5339 6.28886 15.5568 9.25087 15.7098 12.1409H8.38586C8.53786 9.25087 9.56184 6.28886 11.3178 3.67786C11.5598 3.65886 11.8019 3.64087 12.0479 3.64087C12.2939 3.64087 12.5369 3.65886 12.7779 3.67786ZM9.32086 4.05188C7.86086 6.60288 7.01686 9.39787 6.88586 12.1409H2.83585C3.14485 8.32087 5.77786 5.14788 9.32086 4.05188ZM2.83585 13.6409H6.88586C7.01686 16.3839 7.86086 19.1789 9.32086 21.7299C5.77786 20.6339 3.14485 17.4609 2.83585 13.6409ZM11.3178 22.1039C9.56184 19.4929 8.53886 16.5309 8.38586 13.6409H15.7098C15.5578 16.5309 14.5339 19.4929 12.7779 22.1039C12.5359 22.1229 12.2939 22.1409 12.0479 22.1409C11.8019 22.1409 11.5588 22.1229 11.3178 22.1039ZM14.7748 21.7299C16.2348 19.1789 17.0788 16.3839 17.2098 13.6409H21.2599C20.9509 17.4609 18.3178 20.6339 14.7748 21.7299Z" fill="#292421"/>
</svg>
