<svg width="24" height="24" viewBox="0 0 24 24" fill="none" xmlns="http://www.w3.org/2000/svg">
<path fill-rule="evenodd" clip-rule="evenodd" d="M3.19603 20.8223L11.939 12.0953L3.19603 3.35228C2.98103 3.69928 2.83203 4.26228 2.83203 5.07428V19.1003C2.83203 19.9113 2.98103 20.4743 3.19603 20.8223ZM15.63 15.7873L12.766 12.9073L4.25603 21.4343H4.33903C5.06703 21.4343 5.69603 21.1693 6.70603 20.6233L15.63 15.7873ZM16.704 8.96528L13.591 12.0953L16.704 15.2083L18.592 14.1813C19.287 13.8013 20.347 13.1053 20.347 12.0953C20.347 11.0683 19.287 10.3723 18.592 9.99128L16.704 8.96528ZM4.25603 2.73828L12.766 11.2663L15.631 8.38628L6.70603 3.55028C5.69603 3.00328 5.06703 2.73828 4.33903 2.73828H4.25603Z" fill="white"/>
</svg>
