<svg width="25" height="25" viewBox="0 0 25 25" fill="none" xmlns="http://www.w3.org/2000/svg">
<path d="M12.0479 23.6409C6.11985 23.6409 1.29785 18.8189 1.29785 12.8909C1.29785 6.96287 6.11985 2.14087 12.0479 2.14087C17.9759 2.14087 22.7979 6.96287 22.7979 12.8909C22.7979 18.8189 17.9759 23.6409 12.0479 23.6409ZM12.0479 3.64087C6.94685 3.64087 2.79785 7.78987 2.79785 12.8909C2.79785 17.9919 6.94685 22.1409 12.0479 22.1409C17.1489 22.1409 21.2979 17.9919 21.2979 12.8909C21.2979 7.78987 17.1489 3.64087 12.0479 3.64087ZM12.7979 17.3909V12.8198C12.7979 12.4058 12.4619 12.0698 12.0479 12.0698C11.6339 12.0698 11.2979 12.4058 11.2979 12.8198V17.3909C11.2979 17.8049 11.6339 18.1409 12.0479 18.1409C12.4619 18.1409 12.7979 17.8049 12.7979 17.3909ZM13.0679 9.39087C13.0679 8.83887 12.6209 8.39087 12.0679 8.39087H12.0579C11.5059 8.39087 11.0627 8.83887 11.0627 9.39087C11.0627 9.94287 11.5159 10.3909 12.0679 10.3909C12.6199 10.3909 13.0679 9.94287 13.0679 9.39087Z" fill="#292421"/>
</svg>
