<svg width="25" height="25" viewBox="0 0 25 25" fill="none" xmlns="http://www.w3.org/2000/svg">
<path fill-rule="evenodd" clip-rule="evenodd" d="M11.2423 9.95543C11.6419 9.79486 12.0694 9.7153 12.5 9.72139C13.362 9.72139 14.1886 10.0631 14.798 10.6726C15.4075 11.2821 15.7499 12.1087 15.7499 12.9706C15.7499 13.8326 15.4075 14.6592 14.798 15.2687C14.1886 15.8781 13.362 16.2205 12.5 16.2205C12.0694 16.2266 11.6419 16.1471 11.2423 15.9865C10.8428 15.8259 10.4791 15.5875 10.1724 15.2852C9.86576 14.9828 9.62225 14.6225 9.45604 14.2252C9.28984 13.828 9.20425 13.4016 9.20425 12.971C9.20425 12.5403 9.28984 12.114 9.45604 11.7167C9.62225 11.3194 9.86576 10.9591 10.1724 10.6567C10.4791 10.3544 10.8428 10.116 11.2423 9.95543ZM13.2571 11.1593C13.0164 11.0635 12.7591 11.0166 12.5 11.0213C11.9829 11.0213 11.4876 11.2261 11.1219 11.5918C10.7562 11.9575 10.5508 12.4535 10.5508 12.9706C10.5508 13.4878 10.7562 13.9838 11.1219 14.3494C11.4876 14.7151 11.9835 14.9206 12.5007 14.9206C12.7597 14.9253 13.0171 14.8783 13.2577 14.7824C13.4984 14.6865 13.7175 14.5436 13.9023 14.3621C14.0872 14.1805 14.2339 13.964 14.3341 13.7251C14.4343 13.4862 14.4859 13.2297 14.4859 12.9706C14.4858 12.7116 14.4342 12.4551 14.3339 12.2162C14.2336 11.9774 14.0868 11.7609 13.9019 11.5794C13.717 11.3979 13.4978 11.2551 13.2571 11.1593Z" fill="white"/>
<path d="M15.359 8.99535C15.5044 8.84402 15.7027 8.75482 15.9124 8.74643V8.74513C16.1278 8.74513 16.3345 8.83072 16.4869 8.98309C16.6392 9.13546 16.7248 9.34212 16.7248 9.5576C16.7248 9.77308 16.6392 9.97973 16.4869 10.1321C16.3345 10.2845 16.1278 10.3701 15.9124 10.3701C15.7027 10.3617 15.5044 10.2725 15.359 10.1211C15.2136 9.96982 15.1324 9.7681 15.1324 9.55825C15.1324 9.34839 15.2136 9.14668 15.359 8.99535Z" fill="white"/>
<path fill-rule="evenodd" clip-rule="evenodd" d="M12.5 25C19.4036 25 25 19.4036 25 12.5C25 5.59644 19.4036 0 12.5 0C5.59644 0 0 5.59644 0 12.5C0 19.4036 5.59644 25 12.5 25ZM14.591 6.4858C14.1168 6.47445 13.6425 6.46968 13.1682 6.4715L11.8319 6.47085C11.3578 6.46971 10.8837 6.47513 10.4097 6.4871L10.2837 6.49035L9.82088 6.50985C9.12866 6.54235 8.65744 6.65155 8.24276 6.81209C7.80921 6.97561 7.41658 7.23182 7.09232 7.56282C6.76081 7.88679 6.50434 8.27949 6.34096 8.71328C6.18042 9.12796 6.07122 9.5992 6.03872 10.2914C6.03092 10.4643 6.02442 10.6086 6.01922 10.7542L6.01467 10.8803C6.00333 11.3543 5.99856 11.8284 6.00037 12.3025V13.6388C5.99922 14.1131 6.00464 14.5874 6.01662 15.0616L6.01987 15.1877C6.02563 15.342 6.03213 15.4963 6.03937 15.6505C6.07187 16.3421 6.18107 16.8139 6.34161 17.228C6.50489 17.6619 6.76087 18.0549 7.09167 18.3797C7.41616 18.7105 7.80903 18.9663 8.24276 19.1292C8.65744 19.2891 9.12931 19.3996 9.82088 19.4321C9.9751 19.4395 10.1294 19.446 10.2837 19.4516L10.4097 19.4555C10.8839 19.467 11.3582 19.472 11.8325 19.4704H12.6833L13.1682 19.4698C13.6425 19.4713 14.1168 19.4664 14.591 19.4548L14.7171 19.4509C14.8584 19.4459 14.998 19.4396 15.1648 19.4321L15.1799 19.4314C15.8714 19.3989 16.3433 19.2897 16.7573 19.1292C17.1911 18.9659 17.5841 18.7101 17.9091 18.3797C18.24 18.0551 18.4958 17.662 18.6585 17.228C18.8184 16.8139 18.9289 16.3421 18.9614 15.6505L18.9621 15.6342C18.9696 15.4679 18.9758 15.3287 18.9809 15.1877L18.9848 15.0616C18.9963 14.5874 19.0013 14.1131 18.9997 13.6388V12.7873L18.9991 12.3025C19.0006 11.8284 18.9957 11.3543 18.9841 10.8803L18.9802 10.7542C18.975 10.6086 18.9685 10.4643 18.9607 10.2914C18.9282 9.59985 18.819 9.12731 18.6585 8.71328C18.4952 8.27971 18.2395 7.8869 17.9091 7.56217C17.5477 7.20078 17.1863 6.97719 16.7573 6.81209C16.3433 6.65155 15.8714 6.54235 15.1799 6.50985L15.1639 6.50913C14.9974 6.50165 14.8582 6.49539 14.7171 6.49035L14.591 6.4858Z" fill="white"/>
</svg>
