<svg width="25" height="25" viewBox="0 0 25 25" fill="none" xmlns="http://www.w3.org/2000/svg">
<path fill-rule="evenodd" clip-rule="evenodd" d="M12.5 25C19.4036 25 25 19.4036 25 12.5C25 5.59644 19.4036 0 12.5 0C5.59644 0 0 5.59644 0 12.5C0 19.4036 5.59644 25 12.5 25ZM8.49018 17.6922C11.3555 17.6922 13.6784 15.2899 13.6784 12.3266C13.6784 9.36334 11.3557 6.96094 8.49018 6.96094C5.62468 6.96094 3.30176 9.36388 3.30176 12.3266C3.30176 15.2894 5.62486 17.6922 8.49018 17.6922ZM16.7759 17.378C18.2086 17.378 19.3701 15.1159 19.3701 12.3266C19.3701 9.5366 18.2085 7.27525 16.7757 7.27525C15.343 7.27525 14.1817 9.53733 14.1817 12.3266C14.1817 15.1159 15.3431 17.378 16.7759 17.378ZM20.7857 16.8519C21.2897 16.8519 21.6981 14.8252 21.6981 12.3266C21.6981 9.82738 21.2895 7.80139 20.7857 7.80139C20.282 7.80139 19.8735 9.82756 19.8735 12.3266C19.8735 14.8257 20.2818 16.8519 20.7857 16.8519Z" fill="white"/>
</svg>
