<svg width="24" height="25" viewBox="0 0 24 25" fill="none" xmlns="http://www.w3.org/2000/svg">
<path d="M16 7.39795H3C2.586 7.39795 2.25 7.06195 2.25 6.64795C2.25 6.23395 2.586 5.89795 3 5.89795H16C16.414 5.89795 16.75 6.23395 16.75 6.64795C16.75 7.06195 16.414 7.39795 16 7.39795ZM21.75 12.6479C21.75 12.2339 21.414 11.8979 21 11.8979H3C2.586 11.8979 2.25 12.2339 2.25 12.6479C2.25 13.0619 2.586 13.3979 3 13.3979H21C21.414 13.3979 21.75 13.0619 21.75 12.6479ZM12.75 18.6479C12.75 18.2339 12.414 17.8979 12 17.8979H3C2.586 17.8979 2.25 18.2339 2.25 18.6479C2.25 19.0619 2.586 19.3979 3 19.3979H12C12.414 19.3979 12.75 19.0619 12.75 18.6479Z" fill="white"/>
</svg>
