<svg width="26" height="25" viewBox="0 0 26 25" fill="none" xmlns="http://www.w3.org/2000/svg">
<path d="M14.2871 6.26551C13.9826 6.15247 13.775 6.12887 13.652 6.13756C13.5277 6.14626 13.4879 6.17856 13.4581 6.20589C13.4009 6.26303 13.3935 6.35992 13.3935 6.35992C13.3935 6.39222 13.3885 6.42576 13.3786 6.45681C13.3786 6.45681 13.3748 6.46054 13.3736 6.52141C13.3736 6.58352 13.381 6.67792 13.4258 6.79718C13.5153 7.03568 13.7589 7.39219 14.4474 7.75865C14.4344 7.7038 14.4199 7.64834 14.4053 7.59301C14.3616 7.42652 14.3182 7.26125 14.3182 7.11767C14.3169 7.00214 14.3778 6.89531 14.476 6.83817C14.5755 6.77979 14.6985 6.77979 14.7979 6.83817C14.8961 6.89531 14.957 7.00214 14.9545 7.11767C14.9545 7.54002 15.1895 8.2928 15.6705 8.89402C16.1515 9.49525 16.8487 9.95984 17.8182 9.95984C18.1724 9.95984 18.329 9.88282 18.3874 9.83189C18.4458 9.7822 18.457 9.73873 18.4545 9.6468V9.64183C18.4545 8.46298 17.9648 7.79094 17.3198 7.36238C16.6735 6.93382 15.8494 6.77979 15.2727 6.77979C15.2031 6.77979 15.1348 6.75618 15.0788 6.71271C14.6562 6.38725 14.2983 6.27048 14.2983 6.27048C14.2946 6.26924 14.2908 6.268 14.2871 6.26551Z" fill="#292421"/>
<path d="M12.7574 6.32571L12.7571 6.32265C12.7571 6.32762 12.7571 6.33507 12.7559 6.34004C12.7565 6.33663 12.757 6.33428 12.757 6.33428C12.757 6.33428 12.7571 6.33234 12.7571 6.33011C12.7579 6.3278 12.7574 6.32571 12.7574 6.32571Z" fill="#292421"/>
<path d="M12.7546 6.3475C12.7496 6.37855 12.7447 6.42327 12.7422 6.46675C12.7447 6.4183 12.7496 6.37855 12.7546 6.3475Z" fill="#292421"/>
<path d="M14.1653 8.3313C14.0646 8.27913 13.9714 8.22447 13.8832 8.17106C13.9714 8.22447 14.0634 8.27913 14.1653 8.33255L14.1678 8.33379L14.1665 8.3313H14.1653Z" fill="#292421"/>
<path d="M14.5249 8.5125C14.5148 8.50756 14.5047 8.50264 14.4947 8.49776C14.527 8.51394 14.5536 8.52778 14.5782 8.54064C14.6255 8.5653 14.6658 8.58634 14.7271 8.61329C14.8448 8.84063 14.9909 9.06356 15.1608 9.27446C15.0467 9.12729 14.9691 8.97291 14.8911 8.8179C14.8616 8.75919 14.832 8.70039 14.8004 8.64186C14.7141 8.60489 14.6177 8.55782 14.5249 8.5125Z" fill="#292421"/>
<path d="M15.4194 9.5673C15.9041 10.0642 16.5591 10.4567 17.372 10.5648C16.5566 10.4592 15.9078 10.0704 15.4194 9.5673Z" fill="#292421"/>
<path d="M18.9455 10.1536C19.0496 9.99395 19.0895 9.81288 19.091 9.66081C19.09 9.84581 19.0392 10.0131 18.9455 10.1536Z" fill="#292421"/>
<path d="M18.9184 10.1877C18.8917 10.2234 18.8607 10.2566 18.8262 10.289C18.8298 10.286 18.8335 10.2831 18.8373 10.2803C18.8426 10.2763 18.8479 10.2723 18.8523 10.2679C18.8773 10.2429 18.8982 10.2156 18.9184 10.1877Z" fill="#292421"/>
<path d="M18.4748 10.4956C18.4874 10.4904 18.4999 10.4852 18.513 10.4803C18.4995 10.4853 18.4865 10.4907 18.4735 10.496C18.4539 10.5041 18.4344 10.5121 18.4135 10.5188C18.4355 10.512 18.4552 10.5038 18.4748 10.4956Z" fill="#292421"/>
<path fill-rule="evenodd" clip-rule="evenodd" d="M13 25C19.9036 25 25.5 19.4036 25.5 12.5C25.5 5.59644 19.9036 0 13 0C6.09644 0 0.5 5.59644 0.5 12.5C0.5 19.4036 6.09644 25 13 25ZM13.6048 5.5028C13.6669 5.49907 13.7315 5.49907 13.7999 5.5028C14.0025 5.51522 14.2337 5.56987 14.5034 5.66925C14.5096 5.67049 14.9297 5.84813 15.3709 6.1562C16.0446 6.16862 16.9146 6.33011 17.6715 6.83196C18.4121 7.32542 19.0099 8.16664 19.0807 9.39563C20.9429 11.2585 20.9988 13.6691 21 13.7709C21 14.633 20.7427 15.3212 20.2344 15.8218C19.4302 16.6131 18.2843 16.638 18.1438 16.638H18.1314C14.046 16.638 7 12.5523 7 8.36981C7 7.7102 7.81783 5.82577 11.4545 5.82577C11.4856 5.82577 12.0723 5.83695 12.8466 5.98974C12.8392 6.00372 12.8356 6.01607 12.8318 6.02895C12.8299 6.03552 12.828 6.04223 12.8255 6.04937C12.8627 5.95247 12.9162 5.84937 13.0131 5.75372C13.1486 5.6208 13.3549 5.52143 13.6048 5.5028ZM7 14.7299C7 13.3076 7.17276 12.1449 7.3418 11.3474C7.4984 11.5896 7.66992 11.8281 7.8576 12.0617C7.73704 12.7722 7.63636 13.6803 7.63636 14.7299C7.63636 14.8368 7.64879 14.9411 7.66868 15.0467C7.67073 15.0467 7.6732 15.0474 7.6732 15.0474L7.67614 15.0479C8.0142 15.0479 8.43679 13.8256 8.68786 12.9784C8.95756 13.2442 9.24343 13.5026 9.54297 13.7511C9.15021 14.4927 8.51758 15.9485 9.23473 16.5485C9.31428 16.6143 9.40128 16.6417 9.49325 16.6367C10.0339 16.6057 10.7498 15.5311 11.1252 14.8989C11.5241 15.1523 11.9355 15.3895 12.3532 15.6094C11.9989 16.1796 11.4483 17.1622 11.4545 17.7485C11.4583 18.0367 11.6385 18.228 11.9853 18.228C12.4949 18.228 13.5265 17.0106 14.0286 16.3771C14.4922 16.5597 14.9558 16.7187 15.4119 16.8479L14.4077 17.91C14.4077 17.91 13.9714 18.2652 14.0037 18.6354C14.7271 18.346 15.6083 17.7969 16.4696 17.1001C16.7567 17.156 17.0376 17.1994 17.3111 17.228C15.7537 18.5944 14.082 19.5 13.0455 19.5C11.5639 19.5 7 17.3535 7 14.7299Z" fill="#292421"/>
</svg>
