<svg width="70" height="70" viewBox="0 0 70 70" fill="none" xmlns="http://www.w3.org/2000/svg">
<path d="M28.05 0H25.1695V2.88055H28.05V0Z" fill="#292421"/>
<path d="M39.2373 0H36.3567V2.88055H39.2373V0Z" fill="#292421"/>
<path d="M44.8302 0H41.9497V2.88055H44.8302V0Z" fill="#292421"/>
<path d="M33.6438 2.79644H30.7633V5.67699H33.6438V2.79644Z" fill="#292421"/>
<path d="M36.4403 2.79644H33.5597V5.67699H36.4403V2.79644Z" fill="#292421"/>
<path d="M39.2373 2.79644H36.3567V5.67699H39.2373V2.79644Z" fill="#292421"/>
<path d="M42.0337 2.79644H39.1532V5.67699H42.0337V2.79644Z" fill="#292421"/>
<path d="M44.8301 2.79644H41.9496V5.67699H44.8301V2.79644Z" fill="#292421"/>
<path d="M25.2536 5.59288H22.373V8.47343H25.2536V5.59288Z" fill="#292421"/>
<path d="M28.05 5.59288H25.1695V8.47343H28.05V5.59288Z" fill="#292421"/>
<path d="M30.847 5.59288H27.9664V8.47343H30.847V5.59288Z" fill="#292421"/>
<path d="M39.2373 5.59288H36.3567V8.47343H39.2373V5.59288Z" fill="#292421"/>
<path d="M44.8301 5.59288H41.9496V8.47343H44.8301V5.59288Z" fill="#292421"/>
<path d="M25.2536 8.38932H22.373V11.2699H25.2536V8.38932Z" fill="#292421"/>
<path d="M28.05 8.38932H25.1695V11.2699H28.05V8.38932Z" fill="#292421"/>
<path d="M30.847 8.38932H27.9664V11.2699H30.847V8.38932Z" fill="#292421"/>
<path d="M33.6438 8.38932H30.7633V11.2699H33.6438V8.38932Z" fill="#292421"/>
<path d="M36.4403 8.38932H33.5597V11.2699H36.4403V8.38932Z" fill="#292421"/>
<path d="M42.0337 8.38932H39.1532V11.2699H42.0337V8.38932Z" fill="#292421"/>
<path d="M44.8301 8.38932H41.9496V11.2699H44.8301V8.38932Z" fill="#292421"/>
<path d="M47.6266 8.38932H44.746V11.2699H47.6266V8.38932Z" fill="#292421"/>
<path d="M25.2536 11.1869H22.373V14.0674H25.2536V11.1869Z" fill="#292421"/>
<path d="M47.6266 11.1869H44.746V14.0674H47.6266V11.1869Z" fill="#292421"/>
<path d="M25.2536 13.9833H22.373V16.8638H25.2536V13.9833Z" fill="#292421"/>
<path d="M33.6438 13.9833H30.7633V16.8638H33.6438V13.9833Z" fill="#292421"/>
<path d="M36.4403 13.9833H33.5597V16.8638H36.4403V13.9833Z" fill="#292421"/>
<path d="M44.8301 13.9833H41.9496V16.8638H44.8301V13.9833Z" fill="#292421"/>
<path d="M47.6266 13.9833H44.746V16.8638H47.6266V13.9833Z" fill="#292421"/>
<path d="M25.2536 16.7797H22.373V19.6603H25.2536V16.7797Z" fill="#292421"/>
<path d="M30.847 16.7797H27.9664V19.6603H30.847V16.7797Z" fill="#292421"/>
<path d="M36.4403 16.7797H33.5597V19.6603H36.4403V16.7797Z" fill="#292421"/>
<path d="M42.0337 16.7797H39.1532V19.6603H42.0337V16.7797Z" fill="#292421"/>
<path d="M47.6266 16.7797H44.746V19.6603H47.6266V16.7797Z" fill="#292421"/>
<path d="M25.2537 19.5761H22.3731V22.4566H25.2537V19.5761Z" fill="#292421"/>
<path d="M33.6439 19.5761H30.7633V22.4566H33.6439V19.5761Z" fill="#292421"/>
<path d="M36.4403 19.5762H33.5597V22.4567H36.4403V19.5762Z" fill="#292421"/>
<path d="M42.0336 19.5761H39.1531V22.4566H42.0336V19.5761Z" fill="#292421"/>
<path d="M47.6266 19.5762H44.746V22.4567H47.6266V19.5762Z" fill="#292421"/>
<path d="M2.88055 22.3734H0V25.254H2.88055V22.3734Z" fill="#292421"/>
<path d="M8.47397 22.3734H5.59343V25.254H8.47397V22.3734Z" fill="#292421"/>
<path d="M11.2704 22.3734H8.38987V25.254H11.2704V22.3734Z" fill="#292421"/>
<path d="M14.0673 22.3734H11.1867V25.254H14.0673V22.3734Z" fill="#292421"/>
<path d="M16.8637 22.3734H13.9831V25.254H16.8637V22.3734Z" fill="#292421"/>
<path d="M19.6607 22.3734H16.7801V25.254H19.6607V22.3734Z" fill="#292421"/>
<path d="M28.05 22.3734H25.1695V25.254H28.05V22.3734Z" fill="#292421"/>
<path d="M33.6438 22.3734H30.7633V25.254H33.6438V22.3734Z" fill="#292421"/>
<path d="M53.22 22.3734H50.3395V25.254H53.22V22.3734Z" fill="#292421"/>
<path d="M56.0169 22.3734H53.1363V25.254H56.0169V22.3734Z" fill="#292421"/>
<path d="M58.8138 22.3734H55.9333V25.254H58.8138V22.3734Z" fill="#292421"/>
<path d="M61.6103 22.3734H58.7297V25.254H61.6103V22.3734Z" fill="#292421"/>
<path d="M64.4067 22.3734H61.5262V25.254H64.4067V22.3734Z" fill="#292421"/>
<path d="M8.47397 25.1699H5.59343V28.0504H8.47397V25.1699Z" fill="#292421"/>
<path d="M11.2704 25.1699H8.38987V28.0504H11.2704V25.1699Z" fill="#292421"/>
<path d="M22.4571 25.1699H19.5766V28.0504H22.4571V25.1699Z" fill="#292421"/>
<path d="M28.05 25.1699H25.1695V28.0504H28.05V25.1699Z" fill="#292421"/>
<path d="M33.6438 25.1699H30.7633V28.0504H33.6438V25.1699Z" fill="#292421"/>
<path d="M39.2373 25.1699H36.3567V28.0504H39.2373V25.1699Z" fill="#292421"/>
<path d="M42.0337 25.1699H39.1532V28.0504H42.0337V25.1699Z" fill="#292421"/>
<path d="M47.6266 25.1699H44.746V28.0504H47.6266V25.1699Z" fill="#292421"/>
<path d="M67.2032 25.1699H64.3226V28.0504H67.2032V25.1699Z" fill="#292421"/>
<path d="M2.88055 27.9663H0V30.8468H2.88055V27.9663Z" fill="#292421"/>
<path d="M5.67699 27.9663H2.79644V30.8468H5.67699V27.9663Z" fill="#292421"/>
<path d="M8.47397 27.9663H5.59343V30.8468H8.47397V27.9663Z" fill="#292421"/>
<path d="M11.2704 27.9663H8.38987V30.8468H11.2704V27.9663Z" fill="#292421"/>
<path d="M14.0673 27.9663H11.1867V30.8468H14.0673V27.9663Z" fill="#292421"/>
<path d="M19.6607 27.9663H16.7801V30.8468H19.6607V27.9663Z" fill="#292421"/>
<path d="M30.847 27.9663H27.9664V30.8468H30.847V27.9663Z" fill="#292421"/>
<path d="M33.6438 27.9663H30.7633V30.8468H33.6438V27.9663Z" fill="#292421"/>
<path d="M36.4403 27.9663H33.5597V30.8468H36.4403V27.9663Z" fill="#292421"/>
<path d="M39.2373 27.9663H36.3567V30.8468H39.2373V27.9663Z" fill="#292421"/>
<path d="M42.0337 27.9663H39.1532V30.8468H42.0337V27.9663Z" fill="#292421"/>
<path d="M44.8301 27.9663H41.9496V30.8468H44.8301V27.9663Z" fill="#292421"/>
<path d="M50.4236 27.9663H47.543V30.8468H50.4236V27.9663Z" fill="#292421"/>
<path d="M61.6103 27.9663H58.7297V30.8468H61.6103V27.9663Z" fill="#292421"/>
<path d="M67.2032 27.9663H64.3226V30.8468H67.2032V27.9663Z" fill="#292421"/>
<path d="M70.0002 27.9663H67.1196V30.8468H70.0002V27.9663Z" fill="#292421"/>
<path d="M2.88055 30.7638H0V33.6444H2.88055V30.7638Z" fill="#292421"/>
<path d="M5.67699 30.7638H2.79644V33.6444H5.67699V30.7638Z" fill="#292421"/>
<path d="M16.8637 30.7638H13.9831V33.6444H16.8637V30.7638Z" fill="#292421"/>
<path d="M22.4571 30.7638H19.5766V33.6444H22.4571V30.7638Z" fill="#292421"/>
<path d="M25.2536 30.7638H22.373V33.6444H25.2536V30.7638Z" fill="#292421"/>
<path d="M39.2373 30.7638H36.3567V33.6444H39.2373V30.7638Z" fill="#292421"/>
<path d="M44.8301 30.7638H41.9496V33.6444H44.8301V30.7638Z" fill="#292421"/>
<path d="M56.0169 30.7638H53.1363V33.6444H56.0169V30.7638Z" fill="#292421"/>
<path d="M70.0002 30.7638H67.1196V33.6444H70.0002V30.7638Z" fill="#292421"/>
<path d="M5.67699 33.5603H2.79644V36.4408H5.67699V33.5603Z" fill="#292421"/>
<path d="M8.47397 33.5603H5.59343V36.4408H8.47397V33.5603Z" fill="#292421"/>
<path d="M11.2704 33.5603H8.38987V36.4408H11.2704V33.5603Z" fill="#292421"/>
<path d="M14.0673 33.5603H11.1867V36.4408H14.0673V33.5603Z" fill="#292421"/>
<path d="M19.6607 33.5603H16.7801V36.4408H19.6607V33.5603Z" fill="#292421"/>
<path d="M25.2536 33.5603H22.373V36.4408H25.2536V33.5603Z" fill="#292421"/>
<path d="M30.847 33.5603H27.9664V36.4408H30.847V33.5603Z" fill="#292421"/>
<path d="M33.6438 33.5603H30.7633V36.4408H33.6438V33.5603Z" fill="#292421"/>
<path d="M36.4403 33.5603H33.5597V36.4408H36.4403V33.5603Z" fill="#292421"/>
<path d="M42.0337 33.5603H39.1532V36.4408H42.0337V33.5603Z" fill="#292421"/>
<path d="M50.4236 33.5603H47.543V36.4408H50.4236V33.5603Z" fill="#292421"/>
<path d="M53.22 33.5603H50.3395V36.4408H53.22V33.5603Z" fill="#292421"/>
<path d="M56.0169 33.5603H53.1363V36.4408H56.0169V33.5603Z" fill="#292421"/>
<path d="M58.8138 33.5603H55.9333V36.4408H58.8138V33.5603Z" fill="#292421"/>
<path d="M64.4067 33.5603H61.5262V36.4408H64.4067V33.5603Z" fill="#292421"/>
<path d="M67.2032 33.5603H64.3226V36.4408H67.2032V33.5603Z" fill="#292421"/>
<path d="M70.0002 33.5603H67.1196V36.4408H70.0002V33.5603Z" fill="#292421"/>
<path d="M2.88055 36.3567H0V39.2373H2.88055V36.3567Z" fill="#292421"/>
<path d="M5.67699 36.3567H2.79644V39.2373H5.67699V36.3567Z" fill="#292421"/>
<path d="M14.0673 36.3567H11.1867V39.2373H14.0673V36.3567Z" fill="#292421"/>
<path d="M25.2536 36.3567H22.373V39.2373H25.2536V36.3567Z" fill="#292421"/>
<path d="M47.6266 36.3567H44.746V39.2373H47.6266V36.3567Z" fill="#292421"/>
<path d="M56.0169 36.3567H53.1363V39.2373H56.0169V36.3567Z" fill="#292421"/>
<path d="M61.6103 36.3567H58.7297V39.2373H61.6103V36.3567Z" fill="#292421"/>
<path d="M67.2032 36.3567H64.3226V39.2373H67.2032V36.3567Z" fill="#292421"/>
<path d="M2.88055 39.1531H0V42.0336H2.88055V39.1531Z" fill="#292421"/>
<path d="M14.0673 39.1531H11.1868V42.0336H14.0673V39.1531Z" fill="#292421"/>
<path d="M16.8637 39.1532H13.9831V42.0337H16.8637V39.1532Z" fill="#292421"/>
<path d="M19.6607 39.1532H16.7801V42.0337H19.6607V39.1532Z" fill="#292421"/>
<path d="M33.6439 39.1531H30.7633V42.0336H33.6439V39.1531Z" fill="#292421"/>
<path d="M36.4403 39.1532H33.5597V42.0337H36.4403V39.1532Z" fill="#292421"/>
<path d="M44.8302 39.1531H41.9497V42.0336H44.8302V39.1531Z" fill="#292421"/>
<path d="M47.6266 39.1532H44.746V42.0337H47.6266V39.1532Z" fill="#292421"/>
<path d="M50.4236 39.1532H47.543V42.0337H50.4236V39.1532Z" fill="#292421"/>
<path d="M56.0169 39.1532H53.1363V42.0337H56.0169V39.1532Z" fill="#292421"/>
<path d="M58.8138 39.1532H55.9333V42.0337H58.8138V39.1532Z" fill="#292421"/>
<path d="M61.6102 39.1531H58.7296V42.0336H61.6102V39.1531Z" fill="#292421"/>
<path d="M67.2032 39.1532H64.3226V42.0337H67.2032V39.1532Z" fill="#292421"/>
<path d="M70.0002 39.1532H67.1196V42.0337H70.0002V39.1532Z" fill="#292421"/>
<path d="M2.88055 41.9497H0V44.8302H2.88055V41.9497Z" fill="#292421"/>
<path d="M11.2703 41.9497H8.38974V44.8302H11.2703V41.9497Z" fill="#292421"/>
<path d="M22.4571 41.9497H19.5765V44.8302H22.4571V41.9497Z" fill="#292421"/>
<path d="M33.6439 41.9497H30.7633V44.8302H33.6439V41.9497Z" fill="#292421"/>
<path d="M42.0336 41.9497H39.1531V44.8302H42.0336V41.9497Z" fill="#292421"/>
<path d="M50.4236 41.9496H47.543V44.8301H50.4236V41.9496Z" fill="#292421"/>
<path d="M53.2199 41.9497H50.3394V44.8302H53.2199V41.9497Z" fill="#292421"/>
<path d="M56.0169 41.9496H53.1363V44.8301H56.0169V41.9496Z" fill="#292421"/>
<path d="M58.8138 41.9496H55.9333V44.8301H58.8138V41.9496Z" fill="#292421"/>
<path d="M70.0002 41.9496H67.1196V44.8301H70.0002V41.9496Z" fill="#292421"/>
<path d="M2.88055 44.746H0V47.6266H2.88055V44.746Z" fill="#292421"/>
<path d="M14.0673 44.746H11.1867V47.6266H14.0673V44.746Z" fill="#292421"/>
<path d="M19.6607 44.746H16.7801V47.6266H19.6607V44.746Z" fill="#292421"/>
<path d="M22.4571 44.746H19.5766V47.6266H22.4571V44.746Z" fill="#292421"/>
<path d="M25.2536 44.746H22.373V47.6266H25.2536V44.746Z" fill="#292421"/>
<path d="M30.847 44.746H27.9664V47.6266H30.847V44.746Z" fill="#292421"/>
<path d="M33.6438 44.746H30.7633V47.6266H33.6438V44.746Z" fill="#292421"/>
<path d="M44.8301 44.746H41.9496V47.6266H44.8301V44.746Z" fill="#292421"/>
<path d="M47.6266 44.746H44.746V47.6266H47.6266V44.746Z" fill="#292421"/>
<path d="M50.4236 44.746H47.543V47.6266H50.4236V44.746Z" fill="#292421"/>
<path d="M53.22 44.746H50.3395V47.6266H53.22V44.746Z" fill="#292421"/>
<path d="M56.0169 44.746H53.1363V47.6266H56.0169V44.746Z" fill="#292421"/>
<path d="M58.8138 44.746H55.9333V47.6266H58.8138V44.746Z" fill="#292421"/>
<path d="M64.4067 44.746H61.5262V47.6266H64.4067V44.746Z" fill="#292421"/>
<path d="M25.2536 47.5425H22.373V50.423H25.2536V47.5425Z" fill="#292421"/>
<path d="M28.05 47.5425H25.1695V50.423H28.05V47.5425Z" fill="#292421"/>
<path d="M36.4403 47.5425H33.5597V50.423H36.4403V47.5425Z" fill="#292421"/>
<path d="M39.2373 47.5425H36.3567V50.423H39.2373V47.5425Z" fill="#292421"/>
<path d="M42.0337 47.5425H39.1532V50.423H42.0337V47.5425Z" fill="#292421"/>
<path d="M47.6266 47.5425H44.746V50.423H47.6266V47.5425Z" fill="#292421"/>
<path d="M58.8138 47.5425H55.9333V50.423H58.8138V47.5425Z" fill="#292421"/>
<path d="M61.6103 47.5425H58.7297V50.423H61.6103V47.5425Z" fill="#292421"/>
<path d="M28.05 50.3389H25.1695V53.2195H28.05V50.3389Z" fill="#292421"/>
<path d="M39.2373 50.3389H36.3567V53.2195H39.2373V50.3389Z" fill="#292421"/>
<path d="M42.0337 50.3389H39.1532V53.2195H42.0337V50.3389Z" fill="#292421"/>
<path d="M47.6266 50.3389H44.746V53.2195H47.6266V50.3389Z" fill="#292421"/>
<path d="M53.22 50.3389H50.3395V53.2195H53.22V50.3389Z" fill="#292421"/>
<path d="M58.8138 50.3389H55.9333V53.2195H58.8138V50.3389Z" fill="#292421"/>
<path d="M64.4067 50.3389H61.5262V53.2195H64.4067V50.3389Z" fill="#292421"/>
<path d="M67.2032 50.3389H64.3226V53.2195H67.2032V50.3389Z" fill="#292421"/>
<path d="M70.0002 50.3389H67.1196V53.2195H70.0002V50.3389Z" fill="#292421"/>
<path d="M25.2536 53.1365H22.373V56.017H25.2536V53.1365Z" fill="#292421"/>
<path d="M28.05 53.1365H25.1695V56.017H28.05V53.1365Z" fill="#292421"/>
<path d="M30.847 53.1365H27.9664V56.017H30.847V53.1365Z" fill="#292421"/>
<path d="M36.4403 53.1365H33.5597V56.017H36.4403V53.1365Z" fill="#292421"/>
<path d="M39.2373 53.1365H36.3567V56.017H39.2373V53.1365Z" fill="#292421"/>
<path d="M47.6266 53.1365H44.746V56.017H47.6266V53.1365Z" fill="#292421"/>
<path d="M58.8138 53.1365H55.9333V56.017H58.8138V53.1365Z" fill="#292421"/>
<path d="M61.6103 53.1365H58.7297V56.017H61.6103V53.1365Z" fill="#292421"/>
<path d="M67.2032 53.1365H64.3226V56.017H67.2032V53.1365Z" fill="#292421"/>
<path d="M70.0002 53.1365H67.1196V56.017H70.0002V53.1365Z" fill="#292421"/>
<path d="M25.2536 55.9329H22.373V58.8134H25.2536V55.9329Z" fill="#292421"/>
<path d="M36.4403 55.9329H33.5597V58.8134H36.4403V55.9329Z" fill="#292421"/>
<path d="M42.0337 55.9329H39.1532V58.8134H42.0337V55.9329Z" fill="#292421"/>
<path d="M44.8301 55.9329H41.9496V58.8134H44.8301V55.9329Z" fill="#292421"/>
<path d="M47.6266 55.9329H44.746V58.8134H47.6266V55.9329Z" fill="#292421"/>
<path d="M50.4236 55.9329H47.543V58.8134H50.4236V55.9329Z" fill="#292421"/>
<path d="M53.22 55.9329H50.3395V58.8134H53.22V55.9329Z" fill="#292421"/>
<path d="M56.0169 55.9329H53.1363V58.8134H56.0169V55.9329Z" fill="#292421"/>
<path d="M58.8138 55.9329H55.9333V58.8134H58.8138V55.9329Z" fill="#292421"/>
<path d="M64.4067 55.9329H61.5262V58.8134H64.4067V55.9329Z" fill="#292421"/>
<path d="M70.0002 55.9329H67.1196V58.8134H70.0002V55.9329Z" fill="#292421"/>
<path d="M25.2536 58.7293H22.373V61.6099H25.2536V58.7293Z" fill="#292421"/>
<path d="M47.6266 58.7293H44.746V61.6099H47.6266V58.7293Z" fill="#292421"/>
<path d="M50.4236 58.7293H47.543V61.6099H50.4236V58.7293Z" fill="#292421"/>
<path d="M53.22 58.7293H50.3395V61.6099H53.22V58.7293Z" fill="#292421"/>
<path d="M58.8138 58.7293H55.9333V61.6099H58.8138V58.7293Z" fill="#292421"/>
<path d="M61.6103 58.7293H58.7297V61.6099H61.6103V58.7293Z" fill="#292421"/>
<path d="M64.4067 58.7293H61.5262V61.6099H64.4067V58.7293Z" fill="#292421"/>
<path d="M67.2032 58.7293H64.3226V61.6099H67.2032V58.7293Z" fill="#292421"/>
<path d="M70.0002 58.7293H67.1196V61.6099H70.0002V58.7293Z" fill="#292421"/>
<path d="M25.2537 61.5267H22.3731V64.4072H25.2537V61.5267Z" fill="#292421"/>
<path d="M28.05 61.5266H25.1695V64.4071H28.05V61.5266Z" fill="#292421"/>
<path d="M30.847 61.5266H27.9664V64.4071H30.847V61.5266Z" fill="#292421"/>
<path d="M33.6439 61.5267H30.7633V64.4072H33.6439V61.5267Z" fill="#292421"/>
<path d="M36.4403 61.5266H33.5597V64.4071H36.4403V61.5266Z" fill="#292421"/>
<path d="M47.6266 61.5266H44.746V64.4071H47.6266V61.5266Z" fill="#292421"/>
<path d="M61.6102 61.5267H58.7296V64.4072H61.6102V61.5267Z" fill="#292421"/>
<path d="M64.4067 61.5267H61.5262V64.4072H64.4067V61.5267Z" fill="#292421"/>
<path d="M70.0002 61.5266H67.1196V64.4071H70.0002V61.5266Z" fill="#292421"/>
<path d="M28.05 64.323H25.1695V67.2036H28.05V64.323Z" fill="#292421"/>
<path d="M33.6438 64.323H30.7633V67.2036H33.6438V64.323Z" fill="#292421"/>
<path d="M42.0337 64.323H39.1532V67.2036H42.0337V64.323Z" fill="#292421"/>
<path d="M44.8301 64.323H41.9496V67.2036H44.8301V64.323Z" fill="#292421"/>
<path d="M47.6266 64.323H44.746V67.2036H47.6266V64.323Z" fill="#292421"/>
<path d="M50.4236 64.323H47.543V67.2036H50.4236V64.323Z" fill="#292421"/>
<path d="M53.22 64.323H50.3395V67.2036H53.22V64.323Z" fill="#292421"/>
<path d="M56.0169 64.323H53.1363V67.2036H56.0169V64.323Z" fill="#292421"/>
<path d="M58.8138 64.323H55.9333V67.2036H58.8138V64.323Z" fill="#292421"/>
<path d="M61.6103 64.323H58.7297V67.2036H61.6103V64.323Z" fill="#292421"/>
<path d="M70.0002 64.323H67.1196V67.2036H70.0002V64.323Z" fill="#292421"/>
<path d="M25.2536 67.1195H22.373V70H25.2536V67.1195Z" fill="#292421"/>
<path d="M28.05 67.1195H25.1695V70H28.05V67.1195Z" fill="#292421"/>
<path d="M33.6438 67.1195H30.7633V70H33.6438V67.1195Z" fill="#292421"/>
<path d="M44.8301 67.1195H41.9496V70H44.8301V67.1195Z" fill="#292421"/>
<path d="M50.4236 67.1195H47.543V70H50.4236V67.1195Z" fill="#292421"/>
<path d="M53.22 67.1195H50.3395V70H53.22V67.1195Z" fill="#292421"/>
<path d="M56.0169 67.1195H53.1363V70H56.0169V67.1195Z" fill="#292421"/>
<path d="M58.8138 67.1195H55.9333V70H58.8138V67.1195Z" fill="#292421"/>
<path d="M61.6103 67.1195H58.7297V70H61.6103V67.1195Z" fill="#292421"/>
<path d="M64.4067 67.1195H61.5262V70H64.4067V67.1195Z" fill="#292421"/>
<path d="M67.2032 67.1195H64.3226V70H67.2032V67.1195Z" fill="#292421"/>
<path d="M70.0002 67.1195H67.1196V70H70.0002V67.1195Z" fill="#292421"/>
<path d="M6.29245 19.5765H13.4239C16.7799 19.5765 19.5765 16.7799 19.5765 13.4239V6.29245C19.5765 2.79665 16.7799 0 13.2841 0H6.15262C2.79665 0 0 2.79665 0 6.15262V13.2841C0 16.7799 2.79665 19.5765 6.29245 19.5765ZM16.7799 6.71195V12.8646C16.7799 14.9621 14.9621 16.7799 12.8646 16.7799H6.71195C4.47463 16.7799 2.79665 15.1019 2.79665 12.8646V6.71195C2.79665 4.61447 4.61447 2.79665 6.71195 2.79665H12.8646C15.1019 2.79665 16.7799 4.47463 16.7799 6.71195Z" fill="#292421"/>
<path d="M56.6319 19.5765H63.7633C67.1193 19.5765 69.9159 16.7799 69.9159 13.4239V6.29245C69.9159 2.79665 67.1193 0 63.6235 0H56.492C53.136 0 50.3394 2.79665 50.3394 6.15262V13.2841C50.3394 16.7799 53.136 19.5765 56.6319 19.5765ZM67.1193 6.71195V12.8646C67.1193 14.9621 65.3015 16.7799 63.204 16.7799H57.0513C54.814 16.7799 53.136 15.1019 53.136 12.8646V6.71195C53.136 4.61447 54.9539 2.79665 57.0513 2.79665H63.204C65.4413 2.79665 67.1193 4.47463 67.1193 6.71195Z" fill="#292421"/>
<path d="M6.29245 69.915H13.4239C16.7799 69.915 19.5765 67.1183 19.5765 63.7623V56.6309C19.5765 53.1351 16.7799 50.3384 13.2841 50.3384H6.15262C2.79665 50.3384 0 53.1351 0 56.4911V63.6225C0 67.1183 2.79665 69.915 6.29245 69.915ZM16.7799 57.0504V63.203C16.7799 65.3005 14.9621 67.1183 12.8646 67.1183H6.71195C4.47463 67.1183 2.79665 65.4403 2.79665 63.203V57.0504C2.79665 54.9529 4.61447 53.1351 6.71195 53.1351H12.8646C15.1019 53.1351 16.7799 54.8131 16.7799 57.0504Z" fill="#292421"/>
<path d="M13.9836 7.96975V11.7452C13.9836 12.8639 12.865 13.9825 11.6065 13.9825H7.97085C6.57252 13.9825 5.5937 13.0037 5.5937 11.6054V7.96975C5.5937 6.71126 6.71236 5.5926 7.97085 5.5926H11.7463C13.0048 5.5926 13.9836 6.57143 13.9836 7.96975Z" fill="#292421"/>
<path d="M64.3235 7.96975V11.7452C64.3235 12.8639 63.2048 13.9825 61.9463 13.9825H58.3107C56.9124 13.9825 55.9336 13.0037 55.9336 11.6054V7.96975C55.9336 6.71126 57.0522 5.5926 58.3107 5.5926H62.0862C63.3447 5.5926 64.3235 6.57143 64.3235 7.96975Z" fill="#292421"/>
<path d="M13.9836 58.3104V62.0859C13.9836 63.2045 12.865 64.3232 11.6065 64.3232H7.97085C6.57252 64.3232 5.5937 63.3443 5.5937 61.946V58.3104C5.5937 57.0519 6.71236 55.9332 7.97085 55.9332H11.7463C13.0048 55.9332 13.9836 56.9121 13.9836 58.3104Z" fill="#292421"/>
</svg>
