<svg width="25" height="25" viewBox="0 0 25 25" fill="none" xmlns="http://www.w3.org/2000/svg">
<rect x="14.9941" y="3.17773" width="6.2" height="6.2" rx="3.1" stroke="#292421" stroke-width="1.6"/>
<rect x="2.81641" y="16.4043" width="6.2" height="6.2" rx="3.1" stroke="#292421" stroke-width="1.6"/>
<path fill-rule="evenodd" clip-rule="evenodd" d="M6.28017 5.65957C5.72045 6.21928 5.40601 6.97843 5.40601 7.76999L7.00538 7.76999C7.00538 7.40261 7.15132 7.05027 7.4111 6.7905C7.67088 6.53072 8.02321 6.38478 8.39059 6.38478L8.39059 6.38459C8.40265 6.38513 8.41477 6.3854 8.42695 6.3854L11.2481 6.3854C11.69 6.3854 12.0481 6.02723 12.0481 5.5854C12.0481 5.14357 11.69 4.7854 11.2481 4.7854L8.42695 4.7854C8.41477 4.7854 8.40265 4.78567 8.39059 4.78621L8.39059 4.7854C7.59903 4.7854 6.83989 5.09985 6.28017 5.65957Z" fill="#292421"/>
<rect x="7.0061" y="6.76416" width="4.06726" height="1.6" rx="0.8" transform="rotate(90 7.0061 6.76416)" fill="#292421"/>
<path d="M6.9282 13.5669C6.53444 13.9784 5.87708 13.9784 5.48332 13.5669L3.71662 11.721C3.10791 11.085 3.5587 10.0296 4.43906 10.0296L7.97246 10.0296C8.85282 10.0296 9.30361 11.085 8.6949 11.721L6.9282 13.5669Z" fill="#292421"/>
<path fill-rule="evenodd" clip-rule="evenodd" d="M18.5692 20.2984C19.1289 19.7387 19.4434 18.9796 19.4434 18.188L17.844 18.188C17.844 18.5554 17.698 18.9077 17.4383 19.1675C17.1785 19.4273 16.8262 19.5732 16.4588 19.5732L16.4588 19.5734C16.4467 19.5729 16.4346 19.5726 16.4224 19.5726L13.6012 19.5726C13.1594 19.5726 12.8012 19.9308 12.8012 20.3726C12.8012 20.8144 13.1594 21.1726 13.6012 21.1726L16.4224 21.1726C16.4346 21.1726 16.4467 21.1723 16.4588 21.1718L16.4588 21.1726C17.2503 21.1726 18.0095 20.8582 18.5692 20.2984Z" fill="#292421"/>
<rect x="17.8433" y="19.1938" width="4.06726" height="1.6" rx="0.8" transform="rotate(-90 17.8433 19.1938)" fill="#292421"/>
<path d="M17.9212 12.3911C18.3149 11.9797 18.9723 11.9797 19.366 12.3911L21.1327 14.237C21.7415 14.873 21.2907 15.9285 20.4103 15.9285H16.8769C15.9965 15.9285 15.5458 14.873 16.1545 14.237L17.9212 12.3911Z" fill="#292421"/>
</svg>
