<svg width="26" height="25" viewBox="0 0 26 25" fill="none" xmlns="http://www.w3.org/2000/svg">
<g clip-path="url(#clip0_141_500)">
<path d="M12.7812 0.390625C6.09141 0.390625 0.671875 5.81094 0.671875 12.5C0.671875 19.1891 6.09219 24.6094 12.7812 24.6094C19.4711 24.6094 24.8906 19.1891 24.8906 12.5C24.8906 5.81094 19.4703 0.390625 12.7812 0.390625ZM18.7289 8.68672L16.7414 18.0523C16.5945 18.7164 16.1992 18.8773 15.6477 18.5648L12.6203 16.3336L11.1602 17.7398C10.9992 17.9008 10.8625 18.0375 10.55 18.0375L10.7648 14.9562L16.375 9.8875C16.6195 9.67266 16.3211 9.55078 15.9984 9.76562L9.06484 14.1305L6.07656 13.1977C5.42734 12.993 5.4125 12.5484 6.21328 12.2359L17.8883 7.73359C18.4305 7.53828 18.9039 7.86562 18.7281 8.68594L18.7289 8.68672Z" fill="#292421"/>
</g>
<defs>
<clipPath id="clip0_141_500">
<rect width="25" height="25" fill="white" transform="translate(0.28125)"/>
</clipPath>
</defs>
</svg>
