<svg width="25" height="25" viewBox="0 0 25 25" fill="none" xmlns="http://www.w3.org/2000/svg">
<path fill-rule="evenodd" clip-rule="evenodd" d="M12.5 25C19.4036 25 25 19.4036 25 12.5C25 5.59644 19.4036 0 12.5 0C5.59644 0 0 5.59644 0 12.5C0 19.4036 5.59644 25 12.5 25ZM14.5919 9.0377C14.5919 10.1738 15.4126 11.0979 16.5487 11.0979C17.1969 11.0979 17.7934 10.8031 18.1882 10.2876L18.964 10.8807C18.383 11.6392 17.5952 12.0754 16.5487 12.0754C14.873 12.0754 13.511 10.7134 13.511 9.0377C13.511 7.36197 14.873 6 16.5487 6C17.2349 6 18.0555 6.22412 18.5934 6.6465L18.7813 6.79304V8.24811H17.8038V7.24991C17.4797 7.0482 17.1073 6.92579 16.5832 6.92579C15.4005 6.92579 14.5919 7.90158 14.5919 9.0377ZM10.0888 10.4307H10.1112L11.5887 6.14309H13.2851V7.1206H12.3352L10.5095 12.0064V12.0082H9.57853L7.82694 7.1206H6.80977V6.14309H8.61826L10.0888 10.4307ZM18.3559 18.4349L18.3214 17.035V13.6197H16.2836V14.5973H17.2922V16.9126C17.2922 17.9108 16.5284 18.6159 15.7595 18.6159C14.9906 18.6159 14.5889 18.0832 14.5889 17.085V13.6197H12.6856V14.5973H13.5597V17.2574C13.5597 18.6107 14.3183 19.5417 15.6733 19.5417C16.4509 19.5417 17.0439 19.1124 17.3973 18.4452H17.4129L17.5525 19.3762H19.1179V18.4332H18.3559V18.4349ZM6.0051 19.4072H5V18.4021H6.0051V19.4072ZM8.88591 14.7524H8.87385L8.81006 13.6197H7.01364V14.5111H7.97047V18.4332H7.01364V19.3762H11.4512V18.4504H8.98246V16.0834C9.09452 15.2265 9.73585 14.4938 10.6134 14.4938H10.6289L10.6116 15.3696H11.5892V13.6008H10.8185C9.93239 13.6008 9.27554 14.0801 8.88591 14.7524Z" fill="white"/>
</svg>
