<svg width="36" height="51" viewBox="0 0 36 51" fill="none" xmlns="http://www.w3.org/2000/svg">
<path d="M18.1582 24.4981C16.5016 24.4981 14.9129 23.84 13.7415 22.6687C12.5701 21.4973 11.912 19.9085 11.912 18.252C11.912 16.5954 12.5701 15.0066 13.7415 13.8352C14.9129 12.6639 16.5016 12.0058 18.1582 12.0058C19.8148 12.0058 21.4035 12.6639 22.5749 13.8352C23.7463 15.0066 24.4044 16.5954 24.4044 18.252C24.4044 19.0722 24.2428 19.8844 23.9289 20.6423C23.615 21.4001 23.1549 22.0886 22.5749 22.6687C21.9949 23.2487 21.3063 23.7088 20.5485 24.0227C19.7907 24.3366 18.9785 24.4981 18.1582 24.4981ZM18.1582 0.762695C13.5198 0.762695 9.0713 2.60531 5.79143 5.88518C2.51156 9.16505 0.668945 13.6135 0.668945 18.252C0.668945 31.3689 18.1582 50.732 18.1582 50.732C18.1582 50.732 35.6475 31.3689 35.6475 18.252C35.6475 13.6135 33.8048 9.16505 30.525 5.88518C27.2451 2.60531 22.7966 0.762695 18.1582 0.762695Z" fill="#FED602"/>
</svg>
