<svg width="26" height="25" viewBox="0 0 26 25" fill="none" xmlns="http://www.w3.org/2000/svg">
<g clip-path="url(#clip0_141_509)">
<path d="M13.2188 0.5C6.59125 0.5 1.21875 5.8725 1.21875 12.5C1.21875 19.1275 6.59125 24.5 13.2188 24.5C19.8463 24.5 25.2188 19.1275 25.2188 12.5C25.2188 5.8725 19.8463 0.5 13.2188 0.5ZM17.8338 14.0388C17.8338 14.0388 18.895 15.0863 19.1562 15.5725C19.1637 15.5825 19.1675 15.5925 19.17 15.5975C19.2762 15.7762 19.3013 15.915 19.2488 16.0188C19.1613 16.1912 18.8613 16.2763 18.7588 16.2838H16.8838C16.7538 16.2838 16.4812 16.25 16.1512 16.0225C15.8975 15.845 15.6475 15.5538 15.4038 15.27C15.04 14.8475 14.725 14.4825 14.4075 14.4825C14.3672 14.4824 14.3271 14.4888 14.2888 14.5013C14.0488 14.5788 13.7413 14.9213 13.7413 15.8338C13.7413 16.1188 13.5163 16.2825 13.3575 16.2825H12.4987C12.2063 16.2825 10.6825 16.18 9.3325 14.7563C7.68 13.0125 6.1925 9.515 6.18 9.4825C6.08625 9.25625 6.28 9.135 6.49125 9.135H8.385C8.6375 9.135 8.72 9.28875 8.7775 9.425C8.845 9.58375 9.0925 10.215 9.49875 10.925C10.1575 12.0825 10.5613 12.5525 10.885 12.5525C10.9457 12.5518 11.0053 12.5363 11.0588 12.5075C11.4813 12.2725 11.4025 10.7662 11.3837 10.4537C11.3837 10.395 11.3825 9.78 11.1662 9.485C11.0112 9.27125 10.7475 9.19 10.5875 9.16C10.6523 9.07064 10.7376 8.99818 10.8363 8.94875C11.1263 8.80375 11.6488 8.7825 12.1675 8.7825H12.4563C13.0188 8.79 13.1638 8.82625 13.3675 8.8775C13.78 8.97625 13.7888 9.2425 13.7525 10.1537C13.7413 10.4125 13.73 10.705 13.73 11.05C13.73 11.125 13.7263 11.205 13.7263 11.29C13.7138 11.7537 13.6988 12.28 14.0263 12.4963C14.069 12.523 14.1183 12.5373 14.1688 12.5375C14.2825 12.5375 14.625 12.5375 15.5525 10.9462C15.8385 10.4341 16.0871 9.90185 16.2963 9.35375C16.315 9.32125 16.37 9.22125 16.435 9.1825C16.483 9.15804 16.5362 9.1456 16.59 9.14625H18.8162C19.0588 9.14625 19.225 9.1825 19.2563 9.27625C19.3113 9.425 19.2463 9.87875 18.23 11.255L17.7763 11.8538C16.855 13.0613 16.855 13.1225 17.8338 14.0388Z" fill="#292421"/>
</g>
<defs>
<clipPath id="clip0_141_509">
<rect width="25" height="25" fill="white" transform="translate(0.71875)"/>
</clipPath>
</defs>
</svg>
