<svg width="25" height="25" viewBox="0 0 25 25" fill="none" xmlns="http://www.w3.org/2000/svg">
<path d="M12.2188 0.5C5.59125 0.5 0.21875 5.8725 0.21875 12.5C0.21875 19.1275 5.59125 24.5 12.2188 24.5C18.8463 24.5 24.2188 19.1275 24.2188 12.5C24.2188 5.8725 18.8463 0.5 12.2188 0.5ZM16.8338 14.0388C16.8338 14.0388 17.895 15.0863 18.1562 15.5725C18.1637 15.5825 18.1675 15.5925 18.17 15.5975C18.2762 15.7762 18.3013 15.915 18.2488 16.0188C18.1613 16.1912 17.8613 16.2763 17.7588 16.2838H15.8838C15.7538 16.2838 15.4812 16.25 15.1512 16.0225C14.8975 15.845 14.6475 15.5538 14.4038 15.27C14.04 14.8475 13.725 14.4825 13.4075 14.4825C13.3672 14.4824 13.3271 14.4888 13.2888 14.5013C13.0488 14.5788 12.7413 14.9213 12.7413 15.8338C12.7413 16.1188 12.5163 16.2825 12.3575 16.2825H11.4987C11.2063 16.2825 9.6825 16.18 8.3325 14.7563C6.68 13.0125 5.1925 9.515 5.18 9.4825C5.08625 9.25625 5.28 9.135 5.49125 9.135H7.385C7.6375 9.135 7.72 9.28875 7.7775 9.425C7.845 9.58375 8.0925 10.215 8.49875 10.925C9.1575 12.0825 9.56125 12.5525 9.885 12.5525C9.94571 12.5518 10.0053 12.5363 10.0588 12.5075C10.4813 12.2725 10.4025 10.7662 10.3837 10.4537C10.3837 10.395 10.3825 9.78 10.1662 9.485C10.0112 9.27125 9.7475 9.19 9.5875 9.16C9.65226 9.07064 9.73758 8.99818 9.83625 8.94875C10.1263 8.80375 10.6488 8.7825 11.1675 8.7825H11.4563C12.0188 8.79 12.1638 8.82625 12.3675 8.8775C12.78 8.97625 12.7888 9.2425 12.7525 10.1537C12.7413 10.4125 12.73 10.705 12.73 11.05C12.73 11.125 12.7263 11.205 12.7263 11.29C12.7138 11.7537 12.6988 12.28 13.0263 12.4963C13.069 12.523 13.1183 12.5373 13.1688 12.5375C13.2825 12.5375 13.625 12.5375 14.5525 10.9462C14.8385 10.4341 15.0871 9.90185 15.2963 9.35375C15.315 9.32125 15.37 9.22125 15.435 9.1825C15.483 9.15804 15.5362 9.1456 15.59 9.14625H17.8162C18.0588 9.14625 18.225 9.1825 18.2563 9.27625C18.3113 9.425 18.2463 9.87875 17.23 11.255L16.7763 11.8538C15.855 13.0613 15.855 13.1225 16.8338 14.0388Z" fill="white"/>
</svg>
