<svg width="21" height="21" viewBox="0 0 21 21" fill="none" xmlns="http://www.w3.org/2000/svg">
<path d="M10.5 20.2422C11.7478 20.2438 12.9836 19.9988 14.1364 19.5213C15.2892 19.0438 16.3363 18.3431 17.2175 17.4597C18.101 16.5785 18.8016 15.5314 19.2791 14.3786C19.7566 13.2258 20.0016 11.99 20 10.7422C20.0016 9.49441 19.7566 8.25861 19.2791 7.1058C18.8016 5.953 18.1009 4.90592 17.2175 4.02475C16.3363 3.14126 15.2892 2.44062 14.1364 1.9631C12.9836 1.48557 11.7478 1.24058 10.5 1.2422C9.25223 1.2406 8.01642 1.48561 6.86362 1.96313C5.71081 2.44066 4.66374 3.14128 3.78256 4.02475C2.89909 4.90592 2.19847 5.953 1.72095 7.1058C1.24342 8.25861 0.998417 9.49441 1.00001 10.7422C0.998391 11.99 1.24339 13.2258 1.72091 14.3786C2.19843 15.5314 2.89907 16.5785 3.78256 17.4597C4.66374 18.3431 5.71081 19.0438 6.86362 19.5213C8.01642 19.9988 9.25223 20.2438 10.5 20.2422Z" stroke="#EE2F2B" stroke-width="1.5" stroke-linejoin="round"/>
<path fill-rule="evenodd" clip-rule="evenodd" d="M10.5 16.916C10.8149 16.916 11.117 16.7909 11.3397 16.5682C11.5624 16.3455 11.6875 16.0435 11.6875 15.7285C11.6875 15.4136 11.5624 15.1115 11.3397 14.8888C11.117 14.6661 10.8149 14.541 10.5 14.541C10.1851 14.541 9.88301 14.6661 9.66031 14.8888C9.43761 15.1115 9.3125 15.4136 9.3125 15.7285C9.3125 16.0435 9.43761 16.3455 9.66031 16.5682C9.88301 16.7909 10.1851 16.916 10.5 16.916Z" fill="#EE2F2B"/>
<path d="M10.5 5.04102V12.641" stroke="#EE2F2B" stroke-width="1.5" stroke-linecap="round" stroke-linejoin="round"/>
</svg>
