<svg width="1248" height="1047" fill="none" xmlns="http://www.w3.org/2000/svg"><path opacity=".7" d="M780 275c104.4 7.6 191.833 56.833 222.5 80.5 83 151.5 14 293.5-54.5 338.5s-175.5 80.5-353 71-222.5-45-317-116-52.5-222.5-17-293.5S450.5 225 533.5 225s116 40.5 246.5 50z" stroke="#F1ECE8" stroke-width="2" stroke-dasharray="9 9"/><g opacity=".7" filter="url(#filter0_f)"><circle cx="220.5" cy="519.5" r="4.5" fill="#CCC1B7"/></g><g opacity=".7" filter="url(#filter1_f)"><circle cx="852.5" cy="286.5" r="4.5" fill="#CCC1B7"/></g><g opacity=".7" filter="url(#filter2_f)"><circle cx="831.5" cy="744.5" r="4.5" fill="#CCC1B7"/></g><g opacity=".7" filter="url(#filter3_f)"><circle cx="481.5" cy="752.5" r="4.5" fill="#CCC1B7"/></g><g opacity=".7" filter="url(#filter4_f)"><circle cx="414.5" cy="249.5" r="4.5" fill="#CCC1B7"/></g><g opacity=".7" filter="url(#filter5_f)"><circle cx="1040.5" cy="491.5" r="4.5" fill="#CCC1B7"/></g><path opacity=".7" d="M151.698 253.235C501.716-97.333 917.454 135.48 1081.57 295.707c105.2 115.225 109.18 252.532 93.35 363.152-13.94 97.377-66.25 195.622-183.78 268.631-117.536 73.01-160.549 101.46-305.168 38.202-232.307-101.62-219.472-80.631-328.941-111.477C237.5 820.534 180 784.502 139.046 715.691 38.708 547.104 35.804 369.312 151.698 253.235z" stroke="#F1ECE8" stroke-width="2"/><g opacity=".7" filter="url(#filter6_f)"><circle cx="312.5" cy="840.5" r="4.5" fill="#CCC1B7"/></g><g opacity=".7" filter="url(#filter7_f)"><circle cx="1127.5" cy="793.5" r="4.5" fill="#CCC1B7"/></g><g opacity=".7" filter="url(#filter8_f)"><circle cx="67.5" cy="523.5" r="4.5" fill="#CCC1B7"/></g><g opacity=".7" filter="url(#filter9_f)"><circle cx="573.5" cy="70.5" r="4.5" fill="#CCC1B7"/></g><g opacity=".7" filter="url(#filter10_f)"><circle cx="1159.5" cy="425.5" r="4.5" fill="#CCC1B7"/></g><g opacity=".7" filter="url(#filter11_f)"><circle cx="782.5" cy="997.5" r="4.5" fill="#CCC1B7"/></g><g opacity=".7" filter="url(#filter12_f)"><circle cx="261.5" cy="162.5" r="4.5" fill="#CCC1B7"/></g><g opacity=".7" filter="url(#filter13_f)"><circle cx="907.5" cy="167.5" r="4.5" fill="#CCC1B7"/></g><defs><filter id="filter0_f" x="212" y="511" width="17" height="17" filterUnits="userSpaceOnUse" color-interpolation-filters="sRGB"><feFlood flood-opacity="0" result="BackgroundImageFix"/><feBlend in="SourceGraphic" in2="BackgroundImageFix" result="shape"/><feGaussianBlur stdDeviation="2" result="effect1_foregroundBlur"/></filter><filter id="filter1_f" x="844" y="278" width="17" height="17" filterUnits="userSpaceOnUse" color-interpolation-filters="sRGB"><feFlood flood-opacity="0" result="BackgroundImageFix"/><feBlend in="SourceGraphic" in2="BackgroundImageFix" result="shape"/><feGaussianBlur stdDeviation="2" result="effect1_foregroundBlur"/></filter><filter id="filter2_f" x="823" y="736" width="17" height="17" filterUnits="userSpaceOnUse" color-interpolation-filters="sRGB"><feFlood flood-opacity="0" result="BackgroundImageFix"/><feBlend in="SourceGraphic" in2="BackgroundImageFix" result="shape"/><feGaussianBlur stdDeviation="2" result="effect1_foregroundBlur"/></filter><filter id="filter3_f" x="473" y="744" width="17" height="17" filterUnits="userSpaceOnUse" color-interpolation-filters="sRGB"><feFlood flood-opacity="0" result="BackgroundImageFix"/><feBlend in="SourceGraphic" in2="BackgroundImageFix" result="shape"/><feGaussianBlur stdDeviation="2" result="effect1_foregroundBlur"/></filter><filter id="filter4_f" x="406" y="241" width="17" height="17" filterUnits="userSpaceOnUse" color-interpolation-filters="sRGB"><feFlood flood-opacity="0" result="BackgroundImageFix"/><feBlend in="SourceGraphic" in2="BackgroundImageFix" result="shape"/><feGaussianBlur stdDeviation="2" result="effect1_foregroundBlur"/></filter><filter id="filter5_f" x="1032" y="483" width="17" height="17" filterUnits="userSpaceOnUse" color-interpolation-filters="sRGB"><feFlood flood-opacity="0" result="BackgroundImageFix"/><feBlend in="SourceGraphic" in2="BackgroundImageFix" result="shape"/><feGaussianBlur stdDeviation="2" result="effect1_foregroundBlur"/></filter><filter id="filter6_f" x="304" y="832" width="17" height="17" filterUnits="userSpaceOnUse" color-interpolation-filters="sRGB"><feFlood flood-opacity="0" result="BackgroundImageFix"/><feBlend in="SourceGraphic" in2="BackgroundImageFix" result="shape"/><feGaussianBlur stdDeviation="2" result="effect1_foregroundBlur"/></filter><filter id="filter7_f" x="1119" y="785" width="17" height="17" filterUnits="userSpaceOnUse" color-interpolation-filters="sRGB"><feFlood flood-opacity="0" result="BackgroundImageFix"/><feBlend in="SourceGraphic" in2="BackgroundImageFix" result="shape"/><feGaussianBlur stdDeviation="2" result="effect1_foregroundBlur"/></filter><filter id="filter8_f" x="59" y="515" width="17" height="17" filterUnits="userSpaceOnUse" color-interpolation-filters="sRGB"><feFlood flood-opacity="0" result="BackgroundImageFix"/><feBlend in="SourceGraphic" in2="BackgroundImageFix" result="shape"/><feGaussianBlur stdDeviation="2" result="effect1_foregroundBlur"/></filter><filter id="filter9_f" x="565" y="62" width="17" height="17" filterUnits="userSpaceOnUse" color-interpolation-filters="sRGB"><feFlood flood-opacity="0" result="BackgroundImageFix"/><feBlend in="SourceGraphic" in2="BackgroundImageFix" result="shape"/><feGaussianBlur stdDeviation="2" result="effect1_foregroundBlur"/></filter><filter id="filter10_f" x="1151" y="417" width="17" height="17" filterUnits="userSpaceOnUse" color-interpolation-filters="sRGB"><feFlood flood-opacity="0" result="BackgroundImageFix"/><feBlend in="SourceGraphic" in2="BackgroundImageFix" result="shape"/><feGaussianBlur stdDeviation="2" result="effect1_foregroundBlur"/></filter><filter id="filter11_f" x="774" y="989" width="17" height="17" filterUnits="userSpaceOnUse" color-interpolation-filters="sRGB"><feFlood flood-opacity="0" result="BackgroundImageFix"/><feBlend in="SourceGraphic" in2="BackgroundImageFix" result="shape"/><feGaussianBlur stdDeviation="2" result="effect1_foregroundBlur"/></filter><filter id="filter12_f" x="253" y="154" width="17" height="17" filterUnits="userSpaceOnUse" color-interpolation-filters="sRGB"><feFlood flood-opacity="0" result="BackgroundImageFix"/><feBlend in="SourceGraphic" in2="BackgroundImageFix" result="shape"/><feGaussianBlur stdDeviation="2" result="effect1_foregroundBlur"/></filter><filter id="filter13_f" x="899" y="159" width="17" height="17" filterUnits="userSpaceOnUse" color-interpolation-filters="sRGB"><feFlood flood-opacity="0" result="BackgroundImageFix"/><feBlend in="SourceGraphic" in2="BackgroundImageFix" result="shape"/><feGaussianBlur stdDeviation="2" result="effect1_foregroundBlur"/></filter></defs></svg>