<svg width="320" height="151" fill="none" xmlns="http://www.w3.org/2000/svg"><path opacity=".7" d="M.002 61.545C.354 19.048 57.684 7.192 106.127 2.525 154.569-2.14 311.244-.913 319.716 78.79c7.953 74.818-153.64 76.561-202.333 67.293C68.689 136.814-.438 114.667.003 61.545z" stroke="#F1ECE8" stroke-width=".6"/><g opacity=".5" filter="url(#filter0_f)"><circle cx="68.5" cy="133.5" r="1.5" fill="#B49A85"/></g><g opacity=".5" filter="url(#filter1_f)"><circle cx="306.5" cy="47.5" r="1.5" fill="#CECBC4"/></g><path opacity=".7" d="M299.07 66.888c5.643 17.277-14.23 48.913-64.204 60.957-37.699 9.085-97.025 4.837-131.803-2.55-40.914-8.69-66.047-20.395-78.03-36.54-10.075-13.578-5.642-38.693 18.907-52.46C68.488 22.53 151.194 23.04 202.92 25.079c51.728 2.04 89.561 21.639 96.149 41.81z" stroke="#F1ECE8" stroke-width=".6" stroke-dasharray="3.1 3.1"/><g opacity=".5" filter="url(#filter2_f)"><circle cx="67.5" cy="29.5" r="1.5" fill="#CECBC4"/></g><g opacity=".5" filter="url(#filter3_f)"><circle cx="276.5" cy="109.5" r="1.5" fill="#B49A85"/></g><defs><filter id="filter0_f" x="65.623" y="130.623" width="5.753" height="5.753" filterUnits="userSpaceOnUse" color-interpolation-filters="sRGB"><feFlood flood-opacity="0" result="BackgroundImageFix"/><feBlend in="SourceGraphic" in2="BackgroundImageFix" result="shape"/><feGaussianBlur stdDeviation=".688" result="effect1_foregroundBlur"/></filter><filter id="filter1_f" x="303.623" y="44.623" width="5.753" height="5.753" filterUnits="userSpaceOnUse" color-interpolation-filters="sRGB"><feFlood flood-opacity="0" result="BackgroundImageFix"/><feBlend in="SourceGraphic" in2="BackgroundImageFix" result="shape"/><feGaussianBlur stdDeviation=".688" result="effect1_foregroundBlur"/></filter><filter id="filter2_f" x="64.623" y="26.623" width="5.753" height="5.753" filterUnits="userSpaceOnUse" color-interpolation-filters="sRGB"><feFlood flood-opacity="0" result="BackgroundImageFix"/><feBlend in="SourceGraphic" in2="BackgroundImageFix" result="shape"/><feGaussianBlur stdDeviation=".688" result="effect1_foregroundBlur"/></filter><filter id="filter3_f" x="273.623" y="106.623" width="5.753" height="5.753" filterUnits="userSpaceOnUse" color-interpolation-filters="sRGB"><feFlood flood-opacity="0" result="BackgroundImageFix"/><feBlend in="SourceGraphic" in2="BackgroundImageFix" result="shape"/><feGaussianBlur stdDeviation=".688" result="effect1_foregroundBlur"/></filter></defs></svg>