<svg width="73" height="73" fill="none" xmlns="http://www.w3.org/2000/svg"><circle cx="36.5" cy="36.5" r="36.5" fill="#fff"/><path d="M37.174 53.477a2.07 2.07 0 0 1-1.365-.513 409.901 409.901 0 0 0-4.014-3.453l-.006-.005c-3.556-3.03-6.628-5.648-8.764-8.226-2.39-2.883-3.502-5.616-3.502-8.601 0-2.9.995-5.577 2.8-7.536 1.828-1.982 4.336-3.073 7.062-3.073 2.038 0 3.904.644 5.547 1.915.829.64 1.58 1.426 2.242 2.341.662-.915 1.413-1.7 2.243-2.341 1.642-1.27 3.509-1.915 5.546-1.915 2.727 0 5.234 1.091 7.062 3.073 1.805 1.96 2.8 4.635 2.8 7.536 0 2.985-1.113 5.718-3.501 8.6-2.137 2.579-5.208 5.196-8.764 8.226a405.529 405.529 0 0 0-4.022 3.46c-.377.33-.862.512-1.364.512zm-7.789-29.34c-2.142 0-4.11.856-5.541 2.408-1.453 1.576-2.253 3.754-2.253 6.134 0 2.51.933 4.757 3.026 7.281 2.022 2.44 5.03 5.004 8.513 7.972l.006.006a411.32 411.32 0 0 1 4.035 3.47 482.084 482.084 0 0 1 4.048-3.476c3.483-2.968 6.49-5.531 8.513-7.972 2.092-2.524 3.025-4.77 3.025-7.281 0-2.38-.8-4.558-2.253-6.134-1.431-1.552-3.399-2.407-5.54-2.407-1.57 0-3.01.498-4.282 1.482-1.134.877-1.924 1.986-2.387 2.761a1.295 1.295 0 0 1-1.12.637c-.465 0-.884-.238-1.122-.637-.463-.775-1.252-1.884-2.386-2.76-1.273-.984-2.713-1.483-4.282-1.483z" fill="url(#paint0_linear)"/><defs><linearGradient id="paint0_linear" x1="19.523" y1="38.198" x2="55.175" y2="38.198" gradientUnits="userSpaceOnUse"><stop stop-color="#F48922"/><stop offset="1" stop-color="#FFB015"/></linearGradient></defs></svg>