<svg width="435" height="565" fill="none" xmlns="http://www.w3.org/2000/svg"><path d="M59 1h356c10.493 0 19 8.507 19 19v525c0 10.493-8.507 19-19 19H59c-10.493 0-19-8.507-19-19V110.42c0-3.278-1.42-6.545-3.61-9.617-2.196-3.08-5.218-6.043-8.56-8.736-6.68-5.381-14.766-9.786-20.451-11.957-.515-.196-.686-.439-.751-.611-.074-.197-.083-.505.084-.932.344-.878 1.296-1.883 2.501-2.432 13.935-6.359 23.876-19.493 28.746-28.336 1.46-2.65 2.041-5.63 2.041-8.577V20C40 9.507 48.507 1 59 1z" fill="#fff" stroke="#EEEBE5" stroke-width="2"/></svg>