<svg width="476" height="104" fill="none" xmlns="http://www.w3.org/2000/svg"><path d="M447.563 100.836a1.355 1.355 0 0 0 0 2.709c15.698-.018 28.42-12.74 28.437-28.438v-8.125c.024-8.25-6.645-14.958-14.896-14.982-8.251-.023-14.958 6.646-14.982 14.897-.023 8.25 6.646 14.958 14.897 14.982a14.938 14.938 0 0 0 12.251-6.33c-.25 14.024-11.68 25.268-25.707 25.287zm-21.667-18.958a14.879 14.879 0 0 0 12.166-6.33c-.251 14.025-11.681 25.269-25.708 25.288a1.355 1.355 0 0 0 0 2.709c15.699-.018 28.42-12.74 28.438-28.438v-8.125c0-8.227-6.669-14.896-14.896-14.896S411 58.756 411 66.982c0 8.227 6.669 14.896 14.896 14.896zM28.438 2.708a1.354 1.354 0 0 0 0-2.708C12.74.018.018 12.74 0 28.438v8.125c-.023 8.25 6.646 14.958 14.897 14.982 8.25.023 14.958-6.646 14.981-14.897.024-8.25-6.645-14.958-14.896-14.982a14.94 14.94 0 0 0-12.252 6.33C2.98 13.972 14.411 2.728 28.438 2.708zm21.666 18.959a14.88 14.88 0 0 0-12.166 6.33c.252-14.026 11.682-25.27 25.708-25.29a1.354 1.354 0 0 0 0-2.708c-15.698.018-28.42 12.74-28.438 28.438v8.125c0 8.226 6.67 14.896 14.896 14.896 8.227 0 14.896-6.67 14.896-14.896 0-8.227-6.669-14.896-14.896-14.896z" fill="#EEEBE5" fill-opacity=".7"/></svg>