<svg width="248" height="73" fill="none" xmlns="http://www.w3.org/2000/svg"><path d="M236.187 71.95a.525.525 0 0 0 0 1.05c6.091-.007 11.027-4.943 11.034-11.034v-3.153a5.797 5.797 0 1 0-1.059 3.324 9.99 9.99 0 0 1-9.975 9.812zm-8.407-7.357a5.773 5.773 0 0 0 4.72-2.456 9.99 9.99 0 0 1-9.975 9.812.525.525 0 0 0 0 1.051c6.091-.007 11.028-4.943 11.035-11.034v-3.153a5.78 5.78 0 1 0-5.78 5.78zM11.034 1.05a.526.526 0 0 0 0-1.05C4.944.007.007 4.943 0 11.034v3.153a5.797 5.797 0 1 0 1.06-3.324 9.99 9.99 0 0 1 9.974-9.812zm8.406 7.357a5.773 5.773 0 0 0-4.72 2.456 9.99 9.99 0 0 1 9.975-9.812.526.526 0 0 0 0-1.051c-6.09.007-11.027 4.943-11.034 11.034v3.153a5.78 5.78 0 1 0 5.78-5.78z" fill="#EEEBE5" fill-opacity=".7"/></svg>