<svg width="280" height="136" fill="none" xmlns="http://www.w3.org/2000/svg"><path opacity=".7" d="M1.002 55.45C1.308 17.231 51.113 6.568 93.198 2.372c42.084-4.197 178.196-3.093 185.556 68.587 6.909 67.286-133.475 68.853-175.778 60.518C60.674 123.142.619 103.224 1.002 55.45z" stroke="#F1ECE8" stroke-width=".6"/><g opacity=".5" filter="url(#filter0_f)"><circle cx="59.5" cy="119.5" r="1.5" fill="#B49A85"/></g><g opacity=".5" filter="url(#filter1_f)"><circle cx="190.5" cy="6.5" r="1.5" fill="#CECBC4"/></g><path opacity=".7" d="M138.357 24.04c43.847.933 81.548 10.105 97.85 28.256 16.301 18.151.483 43.523-18.173 52.969-18.656 9.447-60.413 14.178-96.107 10.471-35.694-3.708-78.8-14.284-84.558-45.581-5.758-31.298 57.141-47.05 100.988-46.116z" stroke="#F1ECE8" stroke-width=".6" stroke-dasharray="3.1 3.1"/><g opacity=".5" filter="url(#filter2_f)"><circle cx="57.5" cy="40.5" r="1.5" fill="#CECBC4"/></g><g opacity=".5" filter="url(#filter3_f)"><circle cx="227.5" cy="98.5" r="1.5" fill="#B49A85"/></g><defs><filter id="filter0_f" x="56.623" y="116.623" width="5.753" height="5.753" filterUnits="userSpaceOnUse" color-interpolation-filters="sRGB"><feFlood flood-opacity="0" result="BackgroundImageFix"/><feBlend in="SourceGraphic" in2="BackgroundImageFix" result="shape"/><feGaussianBlur stdDeviation=".688" result="effect1_foregroundBlur"/></filter><filter id="filter1_f" x="187.623" y="3.623" width="5.753" height="5.753" filterUnits="userSpaceOnUse" color-interpolation-filters="sRGB"><feFlood flood-opacity="0" result="BackgroundImageFix"/><feBlend in="SourceGraphic" in2="BackgroundImageFix" result="shape"/><feGaussianBlur stdDeviation=".688" result="effect1_foregroundBlur"/></filter><filter id="filter2_f" x="54.623" y="37.623" width="5.753" height="5.753" filterUnits="userSpaceOnUse" color-interpolation-filters="sRGB"><feFlood flood-opacity="0" result="BackgroundImageFix"/><feBlend in="SourceGraphic" in2="BackgroundImageFix" result="shape"/><feGaussianBlur stdDeviation=".688" result="effect1_foregroundBlur"/></filter><filter id="filter3_f" x="224.623" y="95.623" width="5.753" height="5.753" filterUnits="userSpaceOnUse" color-interpolation-filters="sRGB"><feFlood flood-opacity="0" result="BackgroundImageFix"/><feBlend in="SourceGraphic" in2="BackgroundImageFix" result="shape"/><feGaussianBlur stdDeviation=".688" result="effect1_foregroundBlur"/></filter></defs></svg>