<svg width="127" height="150" fill="none" xmlns="http://www.w3.org/2000/svg"><path d="M79.595 47.25A16.209 16.209 0 1 0 53.06 59.735c-7.425 2.583-13.18 7.865-15.51 14.374a33.574 33.574 0 0 1-7.615-15.585 3.27 3.27 0 0 0-6.417 1.257 40.351 40.351 0 1 0 39.596-48.142 3.269 3.269 0 1 0 0 6.538A33.788 33.788 0 0 1 89.05 73.644c-2.435-6.295-8.09-11.388-15.337-13.91a16.181 16.181 0 0 0 5.882-12.483zm-16.209-9.67a9.67 9.67 0 1 1-9.671 9.67 9.682 9.682 0 0 1 9.671-9.67zm20.298 41.21a33.719 33.719 0 0 1-40.64.387c.906-8.183 9.676-14.627 20.342-14.627 10.498 0 19.164 6.242 20.298 14.24zM46.36 116.31H34.782a3.266 3.266 0 0 0-3.27 3.269 3.27 3.27 0 0 0 3.27 3.269H46.36a3.269 3.269 0 1 0 0-6.538zm48.082.241H60.39a3.027 3.027 0 1 0 0 6.055h34.053a3.03 3.03 0 0 0 3.028-3.027 3.028 3.028 0 0 0-3.028-3.028zM46.36 100.046H34.782a3.27 3.27 0 0 0 0 6.539H46.36a3.27 3.27 0 0 0 0-6.539zm48.082.242H60.39a3.027 3.027 0 1 0 0 6.055h34.053a3.027 3.027 0 1 0 0-6.055zM20.197 32.194a3.029 3.029 0 0 0 4.28 0l11.464-11.463a3.027 3.027 0 0 0-4.281-4.28l-9.323 9.321-3.49-3.49a3.027 3.027 0 0 0-4.282 4.28l5.632 5.632z" fill="#CCC1B7" fill-opacity=".5"/><path d="M25.253 48.413A24.092 24.092 0 1 0 1.162 24.322a24.12 24.12 0 0 0 24.091 24.091zm0-42.128A18.037 18.037 0 1 1 7.217 24.322 18.057 18.057 0 0 1 25.253 6.285z" fill="#CCC1B7" fill-opacity=".5"/><path d="M114.609 0h-59.93a3.27 3.27 0 0 0 0 6.538h59.93a5.085 5.085 0 0 1 5.078 5.078v126.768a5.086 5.086 0 0 1-5.078 5.078H11.616a5.085 5.085 0 0 1-5.078-5.078V62.461a3.27 3.27 0 0 0-6.538 0v75.923A11.63 11.63 0 0 0 11.616 150h102.993a11.626 11.626 0 0 0 11.616-11.616V11.616A11.626 11.626 0 0 0 114.609 0z" fill="#CCC1B7" fill-opacity=".5"/></svg>