<svg width="285" height="149" fill="none" xmlns="http://www.w3.org/2000/svg"><path opacity=".7" d="M92.453 24.27c48.958-13.748 108.249 2.622 131.775 12.526 63.777 35.537-4.924 73.987-41.971 90.153-37.047 16.167-119.114 2.039-145.14-26.07-26.027-28.11-5.862-59.423 55.336-76.609z" stroke="#F1ECE8" stroke-width=".6" stroke-dasharray="3.1 3.1"/><g opacity=".5" filter="url(#filter0_f)"><circle cx="36.5" cy="53.5" r="1.5" fill="#CECBC4"/></g><g opacity=".5" filter="url(#filter1_f)"><circle cx="210.5" cy="112.5" r="1.5" fill="#B49A85"/></g><path opacity=".7" d="M122.163 3c-40.467 0-69.06 7.405-78.584 12.166-9.524 4.761-33.772 15.87-40.916 43.904-7.144 28.036 11.04 47.949 11.04 47.949 7.063 12.452 36.112 37.992 95.809 40.537 59.696 2.546 98.857-6.338 115.266-14.43 17.656-6.717 54.294-28.557 58.451-49.723 5.196-26.448-16.374-49.694-49.868-61.36C199.867 10.377 174.77 3 122.163 3z" stroke="#F1ECE8" stroke-width=".6"/><g opacity=".5" filter="url(#filter2_f)"><circle cx="27.5" cy="122.5" r="1.5" fill="#B49A85"/></g><g opacity=".5" filter="url(#filter3_f)"><circle cx="273.5" cy="48.5" r="1.5" fill="#CECBC4"/></g><g opacity=".5" filter="url(#filter4_f)"><circle cx="115.5" cy="3.5" r="1.5" fill="#B49A85"/></g><defs><filter id="filter0_f" x="33.623" y="50.623" width="5.753" height="5.753" filterUnits="userSpaceOnUse" color-interpolation-filters="sRGB"><feFlood flood-opacity="0" result="BackgroundImageFix"/><feBlend in="SourceGraphic" in2="BackgroundImageFix" result="shape"/><feGaussianBlur stdDeviation=".688" result="effect1_foregroundBlur"/></filter><filter id="filter1_f" x="207.623" y="109.623" width="5.753" height="5.753" filterUnits="userSpaceOnUse" color-interpolation-filters="sRGB"><feFlood flood-opacity="0" result="BackgroundImageFix"/><feBlend in="SourceGraphic" in2="BackgroundImageFix" result="shape"/><feGaussianBlur stdDeviation=".688" result="effect1_foregroundBlur"/></filter><filter id="filter2_f" x="24.623" y="119.623" width="5.753" height="5.753" filterUnits="userSpaceOnUse" color-interpolation-filters="sRGB"><feFlood flood-opacity="0" result="BackgroundImageFix"/><feBlend in="SourceGraphic" in2="BackgroundImageFix" result="shape"/><feGaussianBlur stdDeviation=".688" result="effect1_foregroundBlur"/></filter><filter id="filter3_f" x="270.623" y="45.623" width="5.753" height="5.753" filterUnits="userSpaceOnUse" color-interpolation-filters="sRGB"><feFlood flood-opacity="0" result="BackgroundImageFix"/><feBlend in="SourceGraphic" in2="BackgroundImageFix" result="shape"/><feGaussianBlur stdDeviation=".688" result="effect1_foregroundBlur"/></filter><filter id="filter4_f" x="112.623" y=".623" width="5.753" height="5.753" filterUnits="userSpaceOnUse" color-interpolation-filters="sRGB"><feFlood flood-opacity="0" result="BackgroundImageFix"/><feBlend in="SourceGraphic" in2="BackgroundImageFix" result="shape"/><feGaussianBlur stdDeviation=".688" result="effect1_foregroundBlur"/></filter></defs></svg>