<svg width="199" height="202" fill="none" xmlns="http://www.w3.org/2000/svg"><path d="M177.488 108.261l8.531-14.776c2.594-4.493.136-8.832-1.532-10.493a3.67 3.67 0 0 0-.678-.519l-6.246-3.605 6.64-11.5a3.3 3.3 0 0 0-1.207-4.506L93.964 11.46a3.291 3.291 0 0 0-4.505 1.207l-6.64 11.5-13.252-7.65a3.298 3.298 0 0 0-3.297 5.711l13.252 7.651-6.646 11.51a3.3 3.3 0 0 0 1.207 4.505l6.34 3.66-3.572 6.189a10.227 10.227 0 0 0-1.161 8.19 9.81 9.81 0 0 0 4.557 5.715c.972.56 2.03.956 3.13 1.173l-3.528 6.112a11.313 11.313 0 0 0-1.472 8.441 9.37 9.37 0 0 0 4.468 5.982c4.217 2.434 10.382 1.628 13.988-4.618l11.999-20.782 54.283 31.34a3.309 3.309 0 0 0 4.505-1.207l6.646-11.51 5.769 3.332a2.055 2.055 0 0 1 .272 2.276l-8.525 14.766c-.147.233-3.732 5.893-14.62 3.402-13.656-3.124-52.888-12.079-52.888-12.079a3.302 3.302 0 0 0-3.596 1.568l-2.43 4.207-6.74-3.891a8.328 8.328 0 0 0-8.74 14.172l-25.562 30.049a3.616 3.616 0 0 0-.345.487c-4.831 8.368-1.482 19.365 7.467 24.531 8.949 5.167 20.147 2.569 24.978-5.799.098-.174.181-.355.25-.542l6.893-19.35a3.297 3.297 0 0 0-6.21-2.215l-6.783 19.047c-3.088 5.02-10.128 6.44-15.83 3.147-5.703-3.292-7.993-10.098-5.19-15.283l26.128-30.701 8.416 4.859-2.127 5.97a3.304 3.304 0 0 0 1.457 3.963 3.281 3.281 0 0 0 3.062.123 3.284 3.284 0 0 0 1.692-1.872l1.734-4.85a8.327 8.327 0 0 0 7.903-14.655l-6.741-3.892 1.215-2.104 50.523 11.538c15.886 3.638 21.58-6.136 21.79-6.522zM88.275 62.338c-1.786 3.094-4.254 1.873-4.73 1.598-.476-.275-2.768-1.801-.982-4.895l3.573-6.189 5.712 3.298-3.573 6.188zm2.846 21.102c-1.621 2.809-3.693 2.946-4.978 2.204-1.286-.743-2.203-2.605-.582-5.413L97.56 59.448l5.56 3.21L91.121 83.44zm34.917-42.889a3.3 3.3 0 0 0-4.505 1.207l-10.355 17.936-30.94-17.863 13.284-23.01 44.031 25.42-2.93 5.075a4.262 4.262 0 0 1-7.378-4.26 3.307 3.307 0 0 0-1.207-4.505zm37.519 49.385L116.89 62.992l5.392-9.34a11.654 11.654 0 0 0 3.288 2.813c4.675 2.7 11.247 2.242 14.765-3.851l2.93-5.074 33.577 19.386-13.285 23.01zm-56.154 25.017a1.733 1.733 0 0 1 .636 2.372 1.74 1.74 0 0 1-2.373.636L86.473 106.88a1.735 1.735 0 0 1-.635-2.372c.23-.399.61-.69 1.054-.81a1.74 1.74 0 0 1 1.318.174l19.193 11.081z" fill="#CCC1B7" fill-opacity=".5"/></svg>