<svg width="30" height="30" fill="none" xmlns="http://www.w3.org/2000/svg"><circle cx="15" cy="15" r="15" fill="url(#paint0_linear)"/><path d="M12.826 14.192a.55.55 0 0 0-.014-.124l-.996-4.395a.56.56 0 0 0-.354-.403 3.193 3.193 0 0 0-1.079-.186 3.228 3.228 0 0 0-3.224 3.224 11.163 11.163 0 0 0 6.192 10.03.56.56 0 0 0 .502-1.003 10.048 10.048 0 0 1-5.573-9.027 2.1 2.1 0 0 1 2.516-2.061l.83 3.658-.93.511a.56.56 0 0 0-.26.677 8.483 8.483 0 0 0 5.152 5.151.56.56 0 0 0 .677-.258l.512-.93 3.657.828a2.105 2.105 0 0 1-2.061 2.517c-.694 0-1.385-.07-2.065-.211a.56.56 0 0 0-.228 1.098c.754.156 1.523.234 2.293.234a3.228 3.228 0 0 0 3.04-4.297.56.56 0 0 0-.404-.36l-4.396-.996a.56.56 0 0 0-.615.276l-.479.87a7.372 7.372 0 0 1-3.853-3.853l.87-.478a.562.562 0 0 0 .29-.492zm10.319 1.892a.562.562 0 0 0 .56-.561 8.374 8.374 0 0 0-8.363-8.364.56.56 0 1 0 0 1.121 7.25 7.25 0 0 1 7.242 7.243.56.56 0 0 0 .56.56z" fill="#fff"/><path d="M21.068 15.65a.563.563 0 0 0 .561-.56 5.862 5.862 0 0 0-5.855-5.856.56.56 0 1 0 0 1.122 4.739 4.739 0 0 1 4.734 4.733.563.563 0 0 0 .56.561z" fill="#fff"/><path d="M16.375 11.422a.56.56 0 1 0 0 1.121 1.949 1.949 0 0 1 1.946 1.947.56.56 0 1 0 1.121 0 3.07 3.07 0 0 0-3.067-3.068z" fill="#fff"/><defs><linearGradient id="paint0_linear" x1="0" y1="14.86" x2="30" y2="14.86" gradientUnits="userSpaceOnUse"><stop stop-color="#F48922"/><stop offset="1" stop-color="#FFB015"/></linearGradient></defs></svg>