<svg width="25" height="24" viewBox="0 0 25 24" fill="none" xmlns="http://www.w3.org/2000/svg">
<path d="M11.6447 1.41207C12.0339 0.769545 12.9661 0.769545 13.3553 1.41207L16.7418 7.00262C16.881 7.23251 17.107 7.39666 17.3687 7.45807L23.7321 8.95122C24.4634 9.12283 24.7515 10.0094 24.2607 10.5781L19.9902 15.5264C19.8146 15.7299 19.7283 15.9955 19.7508 16.2634L20.2971 22.7767C20.3599 23.5253 19.6057 24.0733 18.9132 23.7822L12.8874 21.2499C12.6396 21.1458 12.3603 21.1458 12.1126 21.2499L6.0868 23.7822C5.39426 24.0733 4.64008 23.5253 4.70287 22.7767L5.24919 16.2634C5.27166 15.9955 5.18536 15.7299 5.00975 15.5264L0.739302 10.5781C0.248498 10.0094 0.536568 9.12283 1.26792 8.95122L7.63132 7.45807C7.893 7.39667 8.11894 7.23251 8.2582 7.00262L11.6447 1.41207Z" fill="url(#paint0_linear)"/>
<defs>
<linearGradient id="paint0_linear" x1="7.775" y1="1.0125" x2="24.9875" y2="31.05" gradientUnits="userSpaceOnUse">
<stop stop-color="#FDF2A1"/>
<stop offset="1" stop-color="#FE8102"/>
</linearGradient>
</defs>
</svg>
