<svg width="153" height="153" fill="none" xmlns="http://www.w3.org/2000/svg"><path d="M103.395 95.326a2.988 2.988 0 0 0-2.989 2.989v20.619c0 8.238-6.703 14.941-14.941 14.941H53.2a2.988 2.988 0 0 0-2.988 2.986l-.005 5.941-7.132-7.132a2.989 2.989 0 0 0-2.74-1.795H20.918c-8.239 0-14.941-6.703-14.941-14.941v-46.02c0-8.239 6.702-14.941 14.941-14.941H51.1a2.988 2.988 0 0 0 0-5.977H20.918C9.384 51.996 0 61.38 0 72.914v46.02c0 11.534 9.384 20.918 20.918 20.918h17.887l12.273 12.273a2.99 2.99 0 0 0 5.102-2.111l.007-10.162h29.278c11.534 0 20.918-9.384 20.918-20.918v-20.62a2.988 2.988 0 0 0-2.988-2.988z" fill="#CCC1B7" fill-opacity=".5"/><path d="M109.567 0h-7.563C78.054 0 58.57 19.484 58.57 43.434c0 23.949 19.485 43.433 43.433 43.433h7.564c3.738 0 7.437-.475 11.023-1.413l11.173 11.166a2.986 2.986 0 0 0 5.1-2.114v-17.29a43.839 43.839 0 0 0 11.417-14.074c3.132-6.14 4.72-12.77 4.72-19.709C153 19.485 133.516 0 109.567 0zm22.51 73.373a2.99 2.99 0 0 0-1.19 2.387v11.535l-7.313-7.31a2.99 2.99 0 0 0-2.99-.742 37.47 37.47 0 0 1-11.017 1.647h-7.563c-20.654 0-37.457-16.803-37.457-37.456 0-20.654 16.803-37.457 37.457-37.457h7.563c20.654 0 37.456 16.803 37.456 37.457 0 11.872-5.447 22.785-14.946 29.939z" fill="#CCC1B7" fill-opacity=".5"/><path d="M119.242 32.699c-.431-6.256-5.474-11.3-11.73-11.73-3.547-.244-6.931.952-9.522 3.37a12.697 12.697 0 0 0-4.02 9.25 2.988 2.988 0 0 0 5.977 0 6.61 6.61 0 0 1 2.121-4.88 6.629 6.629 0 0 1 5.033-1.778c3.296.227 5.952 2.884 6.179 6.179.229 3.328-1.954 6.269-5.192 6.993a5.656 5.656 0 0 0-4.455 5.543v7.18a2.99 2.99 0 0 0 5.977 0v-6.94c6.021-1.456 10.061-6.965 9.632-13.187zm-10.507 29.834a3.012 3.012 0 0 0-2.113-.876c-.786 0-1.557.32-2.113.876a3.014 3.014 0 0 0-.875 2.112c0 .79.32 1.56.875 2.116a3.009 3.009 0 0 0 2.113.873c.786 0 1.557-.317 2.113-.873a3.017 3.017 0 0 0 .875-2.115c0-.786-.32-1.557-.875-2.113zM82.178 92.637H19.125a2.988 2.988 0 0 0 0 5.976h63.053a2.988 2.988 0 1 0 0-5.976zm2.112 17.61a3.01 3.01 0 0 0-2.112-.876 3.01 3.01 0 0 0-2.113.876 3.006 3.006 0 0 0-.876 2.112c0 .786.32 1.557.876 2.113a3.01 3.01 0 0 0 2.113.876 3.01 3.01 0 0 0 2.112-.876 3.005 3.005 0 0 0 .876-2.113c0-.786-.32-1.557-.876-2.112zm-13.866-.876H19.125a2.988 2.988 0 0 0 0 5.977h51.299a2.988 2.988 0 0 0 0-5.977zm-7.67-33.469H19.125a2.988 2.988 0 0 0 0 5.977h43.629a2.988 2.988 0 1 0 0-5.977z" fill="#CCC1B7" fill-opacity=".5"/></svg>