<svg width="171" height="170" fill="none" xmlns="http://www.w3.org/2000/svg"><path d="M144.171 23.957A85.015 85.015 0 0 0 11.838 128.289l-10.69 33.805a5.341 5.341 0 0 0 1.359 5.428 5.335 5.335 0 0 0 5.457 1.234l32.753-11.192A84.62 84.62 0 0 0 85.013 170a88.3 88.3 0 0 0 1.782-.018c45.844-.943 83.176-39.031 83.218-84.907a84.319 84.319 0 0 0-25.842-61.118zM86.643 162.573a77.218 77.218 0 0 1-43.455-12.204 3.707 3.707 0 0 0-3.198-.387L9.451 160.417l9.96-31.496a3.7 3.7 0 0 0-.386-3.071 77.6 77.6 0 0 1 119.988-96.573 76.975 76.975 0 0 1 23.59 55.79c-.039 41.877-34.115 76.646-75.96 77.506z" fill="#CCC1B7" fill-opacity=".5"/><path d="M153.939 67.27a70.71 70.71 0 0 0-8.285-19.54 3.708 3.708 0 0 0-5.097-1.215 3.718 3.718 0 0 0-1.663 2.296 3.7 3.7 0 0 0 .448 2.8 63.34 63.34 0 0 1 7.418 17.494 63.95 63.95 0 0 1 1.984 15.845 3.705 3.705 0 0 0 7.411 0 71.425 71.425 0 0 0-2.216-17.68zm-27.45-40.13a3.704 3.704 0 0 0-5.819 3.607c.159.97.696 1.837 1.494 2.41a64.271 64.271 0 0 1 7.749 6.56 3.704 3.704 0 1 0 5.221-5.258 71.754 71.754 0 0 0-8.645-7.319zm-1.21 22.676a25.792 25.792 0 0 0-19.619-7.525c-7.19.313-14.295 3.391-20.723 8.945-14.63-12.581-30.999-10.41-40.163-1.246a25.89 25.89 0 0 0-7.57 19.56c.322 8.155 4.213 16.187 11.252 23.225L82.32 126.64a3.687 3.687 0 0 0 2.62 1.086 3.709 3.709 0 0 0 2.62-1.086l33.864-33.864h-.001c15.368-15.367 13.572-33.243 3.856-42.959zm-9.095 37.72L84.94 118.78 53.695 87.536c-5.697-5.698-8.839-12.018-9.086-18.278A18.522 18.522 0 0 1 63.247 49.81c.264 0 .529.006.795.016 6.26.247 12.58 3.39 18.278 9.086a3.706 3.706 0 0 0 5.24 0c12.483-12.481 25.587-10.748 32.479-3.855a18.475 18.475 0 0 1 5.362 14.056c-.275 6.297-3.462 12.668-9.217 18.424z" fill="#CCC1B7" fill-opacity=".5"/><path d="M63.253 54.749a13.445 13.445 0 0 0-12.667 8.35c-2.67 6.444-.263 14.077 6.602 20.943a3.705 3.705 0 0 0 5.24-5.24c-4.64-4.64-6.461-9.33-4.997-12.867a6.076 6.076 0 0 1 5.822-3.776 3.705 3.705 0 0 0 0-7.41z" fill="#CCC1B7" fill-opacity=".5"/></svg>