<svg width="20" height="20" fill="none" xmlns="http://www.w3.org/2000/svg"><path d="M7.85 7.075a.77.77 0 0 0-.02-.172L6.452.816a.777.777 0 0 0-.49-.558A4.422 4.422 0 0 0 4.465 0 4.47 4.47 0 0 0 0 4.466a15.463 15.463 0 0 0 8.577 13.893.776.776 0 1 0 .697-1.389 13.918 13.918 0 0 1-7.72-12.504 2.91 2.91 0 0 1 3.485-2.855l1.148 5.067-1.288.709a.777.777 0 0 0-.359.937 11.751 11.751 0 0 0 7.136 7.136.777.777 0 0 0 .937-.359l.71-1.288 5.066 1.148a2.916 2.916 0 0 1-2.855 3.486c-.96 0-1.92-.098-2.86-.293a.777.777 0 0 0-.316 1.521c1.045.216 2.11.325 3.176.325a4.47 4.47 0 0 0 4.212-5.953.776.776 0 0 0-.56-.498l-6.09-1.38a.776.776 0 0 0-.851.383l-.664 1.205a10.211 10.211 0 0 1-5.338-5.338l1.205-.662a.779.779 0 0 0 .402-.682z" fill="#fff"/></svg>