<svg width="23" height="22" fill="none" xmlns="http://www.w3.org/2000/svg"><path d="M14.38 0H8.51a8.624 8.624 0 0 0-4.488 1.252.482.482 0 1 0 .502.823A7.66 7.66 0 0 1 8.51.964h5.87c4.16 0 7.547 3.306 7.547 7.37v2.67c0 4.064-3.386 7.37-7.548 7.37H9.474a.481.481 0 0 0-.303.108l-2.499 2.026v-1.986a.482.482 0 0 0-.346-.462C3.17 17.13.964 14.229.964 11.004v-2.67a7.152 7.152 0 0 1 .834-3.372.482.482 0 0 0-.852-.45A8.218 8.218 0 0 0 0 8.334v2.67c0 3.53 2.33 6.716 5.709 7.87v2.644a.482.482 0 0 0 .785.374l3.151-2.554h4.735c4.693 0 8.511-3.739 8.511-8.334v-2.67C22.891 3.74 19.073 0 14.381 0z" fill="#fff" fill-opacity=".8"/><path d="M9.287 9.07a.477.477 0 0 0-.012-.107L8.42 5.187a.482.482 0 0 0-.305-.346 2.743 2.743 0 0 0-.927-.16 2.773 2.773 0 0 0-2.77 2.77 9.592 9.592 0 0 0 5.32 8.618.482.482 0 0 0 .432-.861A8.634 8.634 0 0 1 5.381 7.45a1.805 1.805 0 0 1 2.162-1.77l.713 3.143-.8.44a.482.482 0 0 0-.222.581 7.29 7.29 0 0 0 4.427 4.427.481.481 0 0 0 .581-.223l.44-.799 3.143.712a1.809 1.809 0 0 1-1.771 2.162 8.81 8.81 0 0 1-1.774-.18.481.481 0 0 0-.196.943 9.709 9.709 0 0 0 1.97.201 2.773 2.773 0 0 0 2.613-3.692.482.482 0 0 0-.348-.31l-3.777-.856a.482.482 0 0 0-.529.238l-.411.747a6.334 6.334 0 0 1-3.311-3.31l.747-.411a.483.483 0 0 0 .25-.423zm8.867 1.627a.482.482 0 0 0 .482-.482 7.195 7.195 0 0 0-7.187-7.187.482.482 0 0 0 0 .964 6.23 6.23 0 0 1 6.223 6.223.482.482 0 0 0 .482.482z" fill="#fff" fill-opacity=".8"/><path d="M16.37 10.325a.482.482 0 0 0 .482-.481 5.037 5.037 0 0 0-5.032-5.031.482.482 0 0 0 0 .963 4.072 4.072 0 0 1 4.068 4.068.481.481 0 0 0 .482.481z" fill="#fff" fill-opacity=".8"/><path d="M12.336 6.691a.482.482 0 0 0 0 .964 1.675 1.675 0 0 1 1.673 1.673.482.482 0 0 0 .964 0 2.639 2.639 0 0 0-2.637-2.637z" fill="#fff" fill-opacity=".8"/></svg>