<svg width="21" height="21" fill="none" xmlns="http://www.w3.org/2000/svg"><path d="M16.331 12.921a.465.465 0 0 0-.335-.298l-3.644-.826a.464.464 0 0 0-.51.23l-.397.72a6.11 6.11 0 0 1-3.194-3.193l.721-.397a.466.466 0 0 0 .23-.51l-.826-3.643a.465.465 0 0 0-.294-.334 2.645 2.645 0 0 0-.894-.155 2.675 2.675 0 0 0-2.672 2.673 9.306 9.306 0 0 0 9.295 9.295 2.675 2.675 0 0 0 2.52-3.562zm-2.52 2.633a8.375 8.375 0 0 1-8.366-8.366 1.745 1.745 0 0 1 2.086-1.709l.687 3.032-.771.425a.465.465 0 0 0-.215.56 7.032 7.032 0 0 0 4.27 4.27.465.465 0 0 0 .561-.214l.425-.77 3.031.686a1.745 1.745 0 0 1-1.708 2.086z" fill="#fff"/><path d="M10.5 0a10.501 10.501 0 0 0-9.11 15.723l-1.37 4.68a.465.465 0 0 0 .576.577l4.681-1.371A10.5 10.5 0 1 0 10.5 0zm0 20.07a9.543 9.543 0 0 1-4.922-1.362.465.465 0 0 0-.37-.048L1.15 19.85l1.189-4.059a.464.464 0 0 0-.048-.37A9.57 9.57 0 1 1 10.5 20.07z" fill="#fff"/></svg>