<svg width="22" height="18" viewBox="0 0 22 18" fill="none" xmlns="http://www.w3.org/2000/svg">
<path fill-rule="evenodd" clip-rule="evenodd" d="M0.6875 16.5625C0.6875 16.3139 0.786272 16.0754 0.962088 15.8996C1.1379 15.7238 1.37636 15.625 1.625 15.625H20.375C20.6236 15.625 20.8621 15.7238 21.0379 15.8996C21.2137 16.0754 21.3125 16.3139 21.3125 16.5625C21.3125 16.8111 21.2137 17.0496 21.0379 17.2254C20.8621 17.4012 20.6236 17.5 20.375 17.5H1.625C1.37636 17.5 1.1379 17.4012 0.962088 17.2254C0.786272 17.0496 0.6875 16.8111 0.6875 16.5625ZM0.6875 9.0625C0.6875 8.81386 0.786272 8.5754 0.962088 8.39959C1.1379 8.22377 1.37636 8.125 1.625 8.125H20.375C20.6236 8.125 20.8621 8.22377 21.0379 8.39959C21.2137 8.5754 21.3125 8.81386 21.3125 9.0625C21.3125 9.31114 21.2137 9.5496 21.0379 9.72541C20.8621 9.90123 20.6236 10 20.375 10H1.625C1.37636 10 1.1379 9.90123 0.962088 9.72541C0.786272 9.5496 0.6875 9.31114 0.6875 9.0625ZM0.6875 1.5625C0.6875 1.31386 0.786272 1.0754 0.962088 0.899588C1.1379 0.723772 1.37636 0.625 1.625 0.625H20.375C20.6236 0.625 20.8621 0.723772 21.0379 0.899588C21.2137 1.0754 21.3125 1.31386 21.3125 1.5625C21.3125 1.81114 21.2137 2.0496 21.0379 2.22541C20.8621 2.40123 20.6236 2.5 20.375 2.5H1.625C1.37636 2.5 1.1379 2.40123 0.962088 2.22541C0.786272 2.0496 0.6875 1.81114 0.6875 1.5625Z" fill="white"/>
</svg>
