<svg width="30" height="30" fill="none" xmlns="http://www.w3.org/2000/svg"><circle cx="14.668" cy="14.668" r="14.668" fill="#fff"/><path d="M12.542 13.876a.543.543 0 0 0-.014-.121l-.974-4.297a.549.549 0 0 0-.346-.394 3.121 3.121 0 0 0-1.055-.182A3.156 3.156 0 0 0 7 12.033a10.916 10.916 0 0 0 6.055 9.807.548.548 0 0 0 .492-.98 9.825 9.825 0 0 1-5.45-8.827 2.054 2.054 0 0 1 2.46-2.016l.81 3.577-.909.5a.549.549 0 0 0-.253.663 8.296 8.296 0 0 0 5.037 5.037.548.548 0 0 0 .662-.253l.501-.91 3.576.81a2.059 2.059 0 0 1-2.016 2.46 9.85 9.85 0 0 1-2.018-.205.548.548 0 0 0-.223 1.074c.738.152 1.489.23 2.242.229a3.156 3.156 0 0 0 2.973-4.202.547.547 0 0 0-.395-.352l-4.299-.974a.548.548 0 0 0-.601.27l-.469.851a7.209 7.209 0 0 1-3.768-3.768l.85-.467a.55.55 0 0 0 .285-.482zm10.09 1.851a.547.547 0 0 0 .548-.549A8.188 8.188 0 0 0 15 7a.548.548 0 1 0 0 1.096 7.09 7.09 0 0 1 7.082 7.082.55.55 0 0 0 .549.549z" fill="#322823"/><path d="M20.602 15.304a.55.55 0 0 0 .549-.548 5.732 5.732 0 0 0-5.726-5.726.548.548 0 1 0 0 1.097 4.634 4.634 0 0 1 4.63 4.629.55.55 0 0 0 .547.548z" fill="#322823"/><path d="M16.011 11.169a.548.548 0 0 0 0 1.096 1.906 1.906 0 0 1 1.904 1.904.548.548 0 1 0 1.096 0 3.003 3.003 0 0 0-3-3z" fill="#322823"/></svg>