<svg width="17" height="16" fill="none" xmlns="http://www.w3.org/2000/svg"><path d="M10.458 0H6.19a6.272 6.272 0 0 0-3.265.91.35.35 0 1 0 .365.6A5.57 5.57 0 0 1 6.19.7h4.268c3.027 0 5.49 2.405 5.49 5.361v1.942c0 2.956-2.463 5.36-5.49 5.36H6.891a.35.35 0 0 0-.221.078l-1.817 1.474V13.47a.35.35 0 0 0-.252-.336c-2.296-.676-3.9-2.786-3.9-5.131V6.06a5.201 5.201 0 0 1 .607-2.453.35.35 0 0 0-.62-.327A5.977 5.977 0 0 0 0 6.061v1.942c0 2.567 1.694 4.884 4.152 5.723v1.924a.35.35 0 0 0 .57.272l2.293-1.858h3.443c3.413 0 6.19-2.72 6.19-6.061V6.06c0-3.34-2.777-6.06-6.19-6.06z" fill="#fff" fill-opacity=".8"/><path d="M6.754 6.596a.347.347 0 0 0-.008-.077l-.623-2.746a.35.35 0 0 0-.221-.252 1.995 1.995 0 0 0-.674-.117A2.017 2.017 0 0 0 3.213 5.42a6.976 6.976 0 0 0 3.87 6.268.35.35 0 0 0 .314-.626A6.279 6.279 0 0 1 3.914 5.42a1.313 1.313 0 0 1 1.572-1.288l.518 2.286-.581.32a.35.35 0 0 0-.162.423 5.302 5.302 0 0 0 3.22 3.219.35.35 0 0 0 .422-.162l.32-.58 2.286.517a1.316 1.316 0 0 1-1.288 1.573c-.434 0-.866-.045-1.29-.132a.35.35 0 0 0-.143.686 7.06 7.06 0 0 0 1.433.146 2.017 2.017 0 0 0 1.9-2.685.35.35 0 0 0-.253-.225l-2.747-.622a.35.35 0 0 0-.384.172l-.3.544A4.607 4.607 0 0 1 6.03 7.203l.544-.299a.351.351 0 0 0 .181-.308zm6.449 1.184a.35.35 0 0 0 .35-.351 5.233 5.233 0 0 0-5.226-5.227.35.35 0 0 0 0 .7 4.531 4.531 0 0 1 4.526 4.527.35.35 0 0 0 .35.35z" fill="#fff" fill-opacity=".8"/><path d="M11.905 7.51a.35.35 0 0 0 .35-.351 3.663 3.663 0 0 0-3.658-3.66.35.35 0 1 0 0 .701 2.962 2.962 0 0 1 2.958 2.959.35.35 0 0 0 .35.35z" fill="#fff" fill-opacity=".8"/><path d="M8.972 4.866a.35.35 0 0 0 0 .701 1.218 1.218 0 0 1 1.216 1.217.35.35 0 1 0 .701 0 1.92 1.92 0 0 0-1.917-1.918z" fill="#fff" fill-opacity=".8"/></svg>