<svg width="17" height="16" fill="none" xmlns="http://www.w3.org/2000/svg"><path d="M16.057 7.724c0 4.267-3.485 7.725-7.784 7.725a7.8 7.8 0 0 1-3.613-.881.408.408 0 0 0-.312-.029l-3.4 1.08a.396.396 0 0 1-.496-.504l1.094-3.227a.408.408 0 0 0-.035-.335A7.642 7.642 0 0 1 .488 7.724C.488 3.458 3.973 0 8.273 0c4.3 0 7.784 3.458 7.784 7.724zM8.273 1.23c-3.61 0-6.545 2.913-6.545 6.494 0 1.348.416 2.6 1.128 3.64a.41.41 0 0 1 .052.363l-.5 1.474a.396.396 0 0 0 .496.505l1.588-.505a.41.41 0 0 1 .34.045 6.54 6.54 0 0 0 3.44.973c3.61 0 6.546-2.913 6.546-6.494S11.882 1.23 8.273 1.23zm3.93 8.273c-.047-.078-.175-.126-.365-.22-.191-.095-1.13-.553-1.304-.616-.175-.063-.303-.095-.43.094-.127.19-.492.616-.604.742-.111.127-.222.143-.413.048-.191-.095-.806-.295-1.535-.94a5.708 5.708 0 0 1-1.061-1.31c-.111-.19-.012-.292.084-.387.085-.084.19-.22.286-.331.096-.11.127-.19.19-.316.064-.126.033-.237-.015-.332-.048-.094-.43-1.026-.589-1.405-.159-.38-.318-.316-.43-.316-.11 0-.238-.016-.365-.016a.704.704 0 0 0-.509.237c-.175.19-.667.648-.667 1.58 0 .93.683 1.83.779 1.957.095.126 1.32 2.1 3.26 2.858 1.94.758 1.94.505 2.29.474.349-.032 1.128-.458 1.287-.9.159-.443.159-.822.112-.9z" fill="#fff" fill-opacity=".8"/></svg>