<svg width="423" height="146" transform="rotate(180)" fill="none" xmlns="http://www.w3.org/2000/svg"><mask id="path-1-inside-1" fill="#fff"><path fill-rule="evenodd" clip-rule="evenodd" d="M20 0C8.954 0 0 8.954 0 20v92.803c0 11.045 8.954 20 20 20h168.833l19.538 12.209a6.5 6.5 0 0 0 6.889 0l19.538-12.209H403c11.046 0 20-8.955 20-20V20c0-11.046-8.954-20-20-20H20z"/></mask><path fill-rule="evenodd" clip-rule="evenodd" d="M20 0C8.954 0 0 8.954 0 20v92.803c0 11.045 8.954 20 20 20h168.833l19.538 12.209a6.5 6.5 0 0 0 6.889 0l19.538-12.209H403c11.046 0 20-8.955 20-20V20c0-11.046-8.954-20-20-20H20z" fill="white"/><path d="M188.833 132.803l1.59-2.544-.729-.456h-.861v3zm19.538 12.209l1.59-2.544-1.59 2.544zm6.889 0l-1.59-2.544 1.59 2.544zm19.538-12.209v-3h-.86l-.73.456 1.59 2.544zM3 20c0-9.389 7.611-17 17-17v-6C7.297-3-3 7.297-3 20h6zm0 92.803V20h-6v92.803h6zm17 17c-9.389 0-17-7.611-17-17h-6c0 12.702 10.297 23 23 23v-6zm168.833 0H20v6h168.833v-6zm-1.589 5.544l19.537 12.209 3.18-5.088-19.538-12.209-3.179 5.088zm19.537 12.209a9.5 9.5 0 0 0 10.069 0l-3.18-5.088a3.5 3.5 0 0 1-3.709 0l-3.18 5.088zm10.069 0l19.538-12.209-3.18-5.088-19.538 12.209 3.18 5.088zM403 129.803H234.798v6H403v-6zm17-17c0 9.389-7.611 17-17 17v6c12.703 0 23-10.298 23-23h-6zM420 20v92.803h6V20h-6zM403 3c9.389 0 17 7.611 17 17h6c0-12.703-10.297-23-23-23v6zM20 3h383v-6H20v6z" fill="url(#paint0_linear)" mask="url(#path-1-inside-1)"/><defs><linearGradient id="paint0_linear" x1="0" y1="66.696" x2="423" y2="66.696" gradientUnits="userSpaceOnUse"><stop stop-color="#F48922"/><stop offset="1" stop-color="#FFB015"/></linearGradient></defs></svg>