<svg width="217" height="221" fill="none" xmlns="http://www.w3.org/2000/svg"><path d="M133.017 92.917l27.244-19.794a4.83 4.83 0 0 0 1.757-5.407 4.832 4.832 0 0 0-4.599-3.342h-33.676l-10.407-32.028a4.84 4.84 0 0 0-4.599-3.341 4.836 4.836 0 0 0-4.599 3.341L93.731 64.374H60.054a4.836 4.836 0 0 0-2.842 8.749l27.245 19.794-10.406 32.028a4.837 4.837 0 0 0 4.598 6.331 4.838 4.838 0 0 0 2.842-.924l27.246-19.795 27.245 19.795c.827.6 1.822.924 2.843.924a4.837 4.837 0 0 0 4.598-6.331l-10.406-32.028zm-21.438 7.751a4.836 4.836 0 0 0-5.684 0L87.848 113.78l6.893-21.216a4.837 4.837 0 0 0-1.757-5.407L74.937 74.046h22.307a4.832 4.832 0 0 0 4.599-3.341l6.894-21.216 6.894 21.216a4.832 4.832 0 0 0 4.598 3.34h22.308L124.49 87.158a4.83 4.83 0 0 0-1.757 5.407l6.893 21.216-18.047-13.112z" fill="#CCC1B7" fill-opacity=".5"/><path d="M215.198 191.526l-42.606-63.165a80.063 80.063 0 0 0-21.819-116.44A80.062 80.062 0 0 0 45.136 128.683L.923 189.538a4.836 4.836 0 0 0 5.668 7.348l26.796-10.439-1.648 28.711a4.834 4.834 0 0 0 6.257 4.896 4.833 4.833 0 0 0 2.484-1.777l44.758-61.605a80.122 80.122 0 0 0 47.392-.119l42.032 62.315a4.841 4.841 0 0 0 5.475 1.905 4.836 4.836 0 0 0 3.369-4.717l-.644-28.751 26.415 11.368a4.832 4.832 0 0 0 5.635-1.357 4.833 4.833 0 0 0 .286-5.79zm-172.86 7.738l1.136-19.778a4.835 4.835 0 0 0-6.583-4.783l-18.46 7.191 32.384-44.574 23.908 17.37-32.384 44.574zM38.353 80.14a70.385 70.385 0 1 1 70.385 70.385A70.465 70.465 0 0 1 38.352 80.14zm141.418 95.306a4.834 4.834 0 0 0-6.746 4.551l.444 19.805-30.81-45.677 24.5-16.525 30.809 45.677-18.197-7.831z" fill="#CCC1B7" fill-opacity=".5"/></svg>