<svg width="53" height="47" fill="none" xmlns="http://www.w3.org/2000/svg"><path d="M51.188 13.34h-8.293l4.952-5.512c.275-.307.415-.702.393-1.112a1.532 1.532 0 0 0-.51-1.064L45.6 3.739a1.542 1.542 0 0 0-2.175.117l-8.52 9.485H20.077a.776.776 0 1 0 0 1.552H33.51l-3.464 3.856a1.531 1.531 0 0 0-.378 1.256l-1.19 3.22a1.228 1.228 0 0 0 .333 1.347 1.23 1.23 0 0 0 1.375.187l3.076-1.53c.02.001.038.003.058.003.028 0 .056 0 .084-.002a1.53 1.53 0 0 0 1.064-.51l7.031-7.827h9.688a.26.26 0 0 1 .26.26v29.911a.259.259 0 0 1-.26.259H45.54a.776.776 0 1 0 0 1.553h5.648c1 0 1.812-.813 1.812-1.812V15.152c0-1-.813-1.811-1.812-1.811zM46.684 6.8l-.922 1.026L43.65 5.93l.923-1.027L46.684 6.8zm-4.071.285l.478.43L31.69 20.206l-.479-.43L42.613 7.085zM30.78 21.478l.897.806-1.464.728.567-1.534zm2.542.196l-.479-.429L44.246 8.551l.478.43-11.402 12.693z" fill="#fff"/><path d="M42.16 45.323H7.24a5.694 5.694 0 0 1-5.687-5.688v-.41a5.693 5.693 0 0 1 5.687-5.688h1.596c.999 0 1.811-.812 1.811-1.811V14.893h6.049a.776.776 0 1 0 0-1.552h-6.049v-2.696a.776.776 0 1 0-1.553 0v21.08a.259.259 0 0 1-.258.26H7.24a7.231 7.231 0 0 0-5.687 2.764V7.24A5.694 5.694 0 0 1 7.24 1.553h1.596c.142 0 .258.116.258.259v5.452a.776.776 0 1 0 1.553 0V1.812c0-1-.812-1.812-1.811-1.812H7.24C3.248 0 0 3.248 0 7.24v32.395c0 3.992 3.248 7.24 7.24 7.24h34.92a.776.776 0 0 0 0-1.552z" fill="#fff"/><path d="M41.426 21.537a5.976 5.976 0 0 0-5.957 5.611h-3.575a.776.776 0 0 0-.776.777v8.868c0 .429.348.776.777.776h8.868a.776.776 0 0 0 .776-.776v-3.319a5.976 5.976 0 0 0 5.857-5.967 5.977 5.977 0 0 0-5.97-5.97zm-1.44 10.145a4.434 4.434 0 0 1-2.811-2.981h2.812v2.98zm-7.315 4.335V28.7h2.906a5.989 5.989 0 0 0 4.41 4.6v2.716H32.67zm8.869-4.096v-3.996a.777.777 0 0 0-.777-.777h-3.738a4.422 4.422 0 0 1 4.402-4.058 4.422 4.422 0 0 1 4.417 4.417 4.422 4.422 0 0 1-4.304 4.414z" fill="#fff"/><path d="M44.31 34.013a.776.776 0 1 0 0 1.553h1.728a.776.776 0 1 0 0-1.553H44.31zm2.504 2.78a.776.776 0 0 0-.776-.776H44.31a.776.776 0 1 0 0 1.552h1.727a.776.776 0 0 0 .776-.776zM14.182 21.228h1.242a.776.776 0 1 0 0-1.553h-1.242a.777.777 0 0 0 0 1.553zm0 2.262h5.993a.776.776 0 1 0 0-1.553h-5.993a.776.776 0 0 0 0 1.553zm4.75-2.262h1.243a.776.776 0 1 0 0-1.553h-1.243a.777.777 0 0 0 0 1.553zm5.993-1.553h-1.242a.777.777 0 0 0 0 1.553h1.242a.776.776 0 1 0 0-1.553zm-10.743 6.06h5.993a.776.776 0 1 0 0-1.553h-5.993a.776.776 0 0 0 0 1.553zm-.777 1.468c0 .429.348.776.777.776h9.501a.776.776 0 1 0 0-1.553h-9.501a.776.776 0 0 0-.777.777zm12.297 2.245a.776.776 0 0 0-.777-.777H14.182a.776.776 0 0 0 0 1.553h10.743c.43 0 .777-.347.777-.776zm-8.604 3.617a.776.776 0 0 0-.777-.777h-2.14a.776.776 0 0 0-.776.777v2.139c0 .429.348.776.777.776h2.14a.776.776 0 0 0 .776-.776v-2.14zm-1.553 1.363h-.587v-.587h.587v.587zm6.685-1.363a.776.776 0 0 0-.776-.777h-2.14a.776.776 0 0 0-.776.777v2.139c0 .429.348.776.776.776h2.14a.776.776 0 0 0 .776-.776v-2.14zm-1.553 1.363h-.586v-.587h.586v.587zm6.687-1.363a.776.776 0 0 0-.777-.777h-2.139a.776.776 0 0 0-.776.777v2.139c0 .429.347.776.776.776h2.14a.776.776 0 0 0 .776-.776v-2.14zm-1.553 1.363h-.587v-.587h.587v.587zm-9.49 3.312h-2.14a.776.776 0 0 0-.776.777v2.139c0 .429.348.776.777.776h2.14a.776.776 0 0 0 .776-.776v-2.14a.776.776 0 0 0-.777-.776zm-.776 2.14h-.587v-.587h.587v.586zm5.909-2.14h-2.14a.776.776 0 0 0-.776.777v2.139c0 .429.348.776.776.776h2.14a.776.776 0 0 0 .776-.776v-2.14a.776.776 0 0 0-.776-.776zm-.777 2.14h-.586v-.587h.586v.586zm3.771 1.552h2.14a.776.776 0 0 0 .776-.776v-2.14a.777.777 0 0 0-.777-.776h-2.139a.776.776 0 0 0-.776.776v2.14c0 .429.347.776.776.776zm.776-2.139h.587v.586h-.587v-.586z" fill="#fff"/></svg>