<svg width="47" height="53" fill="none" xmlns="http://www.w3.org/2000/svg"><path d="M43.972 6.187h-2.516V2.57A2.573 2.573 0 0 0 38.886 0H5.708a2.573 2.573 0 0 0-2.57 2.57v3.617H.776a.776.776 0 1 0 0 1.553h2.362v3.617a2.573 2.573 0 0 0 2.57 2.57h1.126v2.475c0 1.7 1.383 3.083 3.083 3.083.557 0 1.08-.15 1.53-.408v3.73c0 1.7 1.384 3.084 3.085 3.084 1.7 0 3.083-1.383 3.083-3.084v-8.88h2.942a.776.776 0 1 0 0-1.553H19.48c.28-.472.442-1.022.442-1.61V6.86c.472.28 1.023.442 1.61.442a3.166 3.166 0 0 0 3.163-3.163V1.553h14.191c.56 0 1.017.456 1.017 1.017v8.787c0 .561-.456 1.018-1.017 1.018H24.18a.776.776 0 1 0 0 1.552h14.706a2.573 2.573 0 0 0 2.57-2.57V7.74h2.516c.42 0 .763.342.763.763v7.922c0 .688-.46 1.305-1.12 1.502l-20.82 6.201a1.795 1.795 0 0 0-1.274 1.71V27.2h-3.478a1.983 1.983 0 0 0-1.98 1.981v1.07c0 1 .747 1.829 1.713 1.96l-1.433 14.377C16.002 50.011 18.693 53 22.148 53c3.44 0 6.146-2.975 5.804-6.412l-.503-5.049a.776.776 0 1 0-1.545.154l.503 5.05a4.283 4.283 0 0 1-4.26 4.704 4.283 4.283 0 0 1-4.259-4.705l1.446-14.51h5.627l.582 5.838a.776.776 0 1 0 1.545-.154l-.567-5.684h.172a1.983 1.983 0 0 0 1.981-1.982v-1.069a1.983 1.983 0 0 0-1.981-1.981h-3.62v-1.362c0-.102.068-.192.165-.221l20.82-6.202a3.139 3.139 0 0 0 2.23-2.99V8.503a2.318 2.318 0 0 0-2.316-2.316zM11.448 16.402a1.532 1.532 0 0 1-3.062 0v-2.475h3.062v2.475zm4.614 6.405a1.531 1.531 0 0 1-3.061.001v-8.88h3.061v8.88zm5.47-17.058c-.888 0-1.61-.723-1.61-1.61a.776.776 0 1 0-1.553 0v6.625c0 .888-.722 1.61-1.61 1.61H5.71a1.019 1.019 0 0 1-1.018-1.017V2.57c0-.56.456-1.017 1.017-1.017h17.434v2.586c0 .887-.722 1.61-1.61 1.61zm5.161 23.004c.232 0 .428.196.428.428v1.07a.434.434 0 0 1-.428.428h-8.65a.434.434 0 0 1-.428-.429v-1.069c0-.232.196-.428.428-.428h8.65z" fill="#fff"/><path d="M22.148 44.288a2.607 2.607 0 0 0-2.604 2.604 2.606 2.606 0 0 0 2.604 2.603 2.606 2.606 0 0 0 2.603-2.603 2.606 2.606 0 0 0-2.604-2.604zm0 3.655a1.052 1.052 0 0 1 0-2.102 1.052 1.052 0 0 1 0 2.102z" fill="#fff"/></svg>