<svg width="54" height="54" fill="none" xmlns="http://www.w3.org/2000/svg"><path d="M53.164.738h-15.04a.782.782 0 0 0 0 1.563h14.259V8.73h-2.995V6.52a.782.782 0 0 0-1.563 0v2.21h-3.362V6.52a.782.782 0 0 0-1.563 0v2.21h-3.362V6.52a.782.782 0 0 0-1.563 0v2.21h-3.362V6.52a.782.782 0 0 0-1.563 0v2.21h-3.362V6.52a.782.782 0 0 0-1.563 0v2.21h-3.362V6.52a.782.782 0 0 0-1.563 0v2.21h-3.362V6.52a.781.781 0 1 0-1.563 0v2.21h-3.362V6.52a.782.782 0 0 0-1.563 0v2.21h-3.057V2.3h24.705a.782.782 0 0 0 0-1.562H1.519a.782.782 0 0 0-.781.781v17.077a.782.782 0 0 0 1.563 0v-8.303H8.73v3.057H6.52a.782.782 0 0 0 0 1.563h2.21v3.362H6.52a.782.782 0 0 0 0 1.563h2.21V23.2H6.52a.782.782 0 0 0 0 1.563h2.21v3.362H6.52a.782.782 0 0 0 0 1.563h2.21v3.363H6.52a.782.782 0 0 0 0 1.563h2.21v3.362H6.52a.782.782 0 0 0 0 1.563h2.21V42.9H6.52a.782.782 0 0 0 0 1.563h2.21v3.362H6.52a.782.782 0 0 0 0 1.563h2.21v2.994H2.3v-30.66a.782.782 0 0 0-1.562 0v31.442c0 .432.35.782.781.782h7.992c.432 0 .782-.35.782-.782v-3.776h29.542a.83.83 0 0 0 .066-.004c.012 0 .024-.003.036-.005.013-.002.027-.003.04-.006l.037-.009c.012-.003.025-.005.037-.01l.033-.01.039-.015.028-.013a.31.31 0 0 0 .041-.02l.025-.014.041-.025c.01-.006.018-.013.027-.02.012-.008.024-.016.035-.026a.765.765 0 0 0 .058-.052l8.782-8.781a.78.78 0 0 0 .186-.301.78.78 0 0 0 .04-.2l.001-.026.001-.026v-7.203a.782.782 0 0 0-1.563 0v6.421h-8a.782.782 0 0 0-.782.782v8h-28.75V10.293H33.05v.781a.782.782 0 0 0 1.563 0v-.781h13.212v19.203a.781.781 0 0 0 1.563 0V10.293h3.776c.432 0 .782-.35.782-.782V1.52a.782.782 0 0 0-.782-.781zM8.73 8.73H2.3V2.3h6.43v6.43zm31.876 31.876h6.114l-6.114 6.114v-6.114z" fill="#fff"/><path d="M33.831 31.131a.782.782 0 0 0-.781.782v1.563a.782.782 0 0 0 1.563 0v-1.563a.781.781 0 0 0-.782-.782zm0-4.48a.782.782 0 0 0-.781.782v1.562a.782.782 0 0 0 1.563 0v-1.563a.782.782 0 0 0-.782-.781zM26.79 33.05h-1.563a.781.781 0 0 0 0 1.563h1.563a.782.782 0 0 0 0-1.563zm-13.441 0h-1.563a.782.782 0 0 0 0 1.563h1.563a.782.782 0 0 0 0-1.563zm4.481 0h-1.564a.782.782 0 0 0 0 1.563h1.563a.782.782 0 0 0 0-1.563zm4.48 0h-1.563a.782.782 0 0 0 0 1.563h1.563a.782.782 0 0 0 0-1.563zm8.96 0h-1.563a.782.782 0 0 0 0 1.563h1.563a.782.782 0 0 0 0-1.563zm2.561-10.88a.782.782 0 0 0-.781.782v1.563a.782.782 0 0 0 1.563 0v-1.563a.782.782 0 0 0-.782-.781zm0-8.96a.782.782 0 0 0-.781.781v1.563a.782.782 0 0 0 1.563 0v-1.563a.782.782 0 0 0-.782-.781zm0 4.48a.782.782 0 0 0-.781.782v1.563a.782.782 0 0 0 1.563 0v-1.563a.782.782 0 0 0-.782-.782z" fill="#fff"/></svg>