<svg width="16" height="16" fill="none" xmlns="http://www.w3.org/2000/svg"><path d="M6.28 5.66a.615.615 0 0 0-.015-.137L5.16.653a.622.622 0 0 0-.393-.446A3.537 3.537 0 0 0 3.572 0 3.577 3.577 0 0 0 0 3.573a12.37 12.37 0 0 0 6.862 11.114.622.622 0 0 0 .557-1.11A11.134 11.134 0 0 1 1.243 3.572 2.328 2.328 0 0 1 4.03 1.289l.919 4.053-1.031.567a.621.621 0 0 0-.287.75 9.401 9.401 0 0 0 5.709 5.709.62.62 0 0 0 .75-.287l.567-1.03 4.053.918a2.333 2.333 0 0 1-2.284 2.789c-.768 0-1.535-.079-2.288-.235a.622.622 0 0 0-.253 1.217c.836.173 1.688.26 2.541.26a3.577 3.577 0 0 0 3.37-4.762.62.62 0 0 0-.449-.399l-4.87-1.104a.621.621 0 0 0-.682.306l-.531.965a8.17 8.17 0 0 1-4.27-4.27l.963-.53a.623.623 0 0 0 .322-.546z" fill="#322823"/></svg>