<svg width="55" height="54" fill="none" xmlns="http://www.w3.org/2000/svg"><path d="M18.703 23.206c0-.137-.015-.274-.046-.409L15.37 8.294a1.852 1.852 0 0 0-1.17-1.329 9.3 9.3 0 0 0-1.227-.354 10.534 10.534 0 0 0-2.333-.261A10.652 10.652 0 0 0 0 16.99a36.841 36.841 0 0 0 20.435 33.1 1.85 1.85 0 0 0 1.66-3.308A33.16 33.16 0 0 1 3.7 16.99a6.933 6.933 0 0 1 8.304-6.803L14.74 22.26l-3.07 1.69a1.85 1.85 0 0 0-.853 2.233 27.997 27.997 0 0 0 17 17 1.85 1.85 0 0 0 2.234-.853l1.69-3.07 12.07 2.736c.092.449.138.906.138 1.365a6.947 6.947 0 0 1-6.94 6.94c-2.29 0-4.572-.234-6.814-.698a1.851 1.851 0 0 0-.753 3.624c2.49.515 5.025.775 7.567.774a10.653 10.653 0 0 0 10.64-10.64 10.464 10.464 0 0 0-.256-2.313 10.13 10.13 0 0 0-.349-1.23 1.849 1.849 0 0 0-1.335-1.187l-14.507-3.287a1.85 1.85 0 0 0-2.03.912l-1.582 2.871A24.329 24.329 0 0 1 14.875 26.41l2.87-1.578a1.855 1.855 0 0 0 .958-1.625z" fill="url(#paint0_linear)"/><path d="M52.758 29.453a1.848 1.848 0 0 0 1.85-1.85A27.634 27.634 0 0 0 27.007 0a1.85 1.85 0 0 0 0 3.7 23.929 23.929 0 0 1 23.902 23.902 1.85 1.85 0 0 0 1.85 1.85z" fill="url(#paint1_linear)"/><path d="M45.905 28.026a1.848 1.848 0 0 0 1.85-1.85A19.345 19.345 0 0 0 28.434 6.853a1.85 1.85 0 1 0 0 3.7 15.64 15.64 0 0 1 15.622 15.623 1.849 1.849 0 0 0 1.85 1.85z" fill="url(#paint2_linear)"/><path d="M30.414 14.07a1.85 1.85 0 1 0 0 3.7 6.432 6.432 0 0 1 6.424 6.425 1.85 1.85 0 0 0 3.701 0A10.137 10.137 0 0 0 30.414 14.07z" fill="url(#paint3_linear)"/><defs><linearGradient id="paint0_linear" x1="0" y1="30" x2="57" y2="30" gradientUnits="userSpaceOnUse"><stop stop-color="#F48922"/><stop offset="1" stop-color="#FFB015"/></linearGradient><linearGradient id="paint1_linear" x1="1.5" y1="29" x2="55" y2="29" gradientUnits="userSpaceOnUse"><stop stop-color="#F48922"/><stop offset="1" stop-color="#FFB015"/></linearGradient><linearGradient id="paint2_linear" x1="-4" y1="28" x2="48" y2="28" gradientUnits="userSpaceOnUse"><stop stop-color="#F48922"/><stop offset="1" stop-color="#FFB015"/></linearGradient><linearGradient id="paint3_linear" x1="14" y1="26" x2="41" y2="26" gradientUnits="userSpaceOnUse"><stop stop-color="#F48922"/><stop offset="1" stop-color="#FFB015"/></linearGradient></defs></svg>