<svg width="84" height="27" fill="none" xmlns="http://www.w3.org/2000/svg"><path fill-rule="evenodd" clip-rule="evenodd" d="M2.805.823a2.02 2.02 0 0 0-2.02 2.02v21.553a2.02 2.02 0 0 0 2.02 2.02h78.802a2.02 2.02 0 0 0 2.02-2.02V2.843a2.02 2.02 0 0 0-2.02-2.02H2.805zm7.122 21.162H8.395v-13h1.263l.135 1.044h.05c.825-.673 1.852-1.28 2.913-1.28 2.357 0 3.637 1.853 3.637 4.665 0 3.132-1.869 4.933-3.974 4.933-.825 0-1.7-.387-2.525-1.06l.033 1.6v3.098zm0-5.877c.825.707 1.633.96 2.24.96 1.515 0 2.626-1.364 2.626-3.637 0-2.02-.673-3.385-2.407-3.385-.775 0-1.566.438-2.459 1.263v4.799zm15.628 1.296c-.808.523-1.785.943-3.03.943-2.426 0-4.379-1.768-4.379-4.782 0-2.963 2.004-4.815 4.125-4.815 2.324 0 3.637 1.684 3.637 4.293 0 .337-.033.657-.067.876h-6.163c.101 1.953 1.297 3.2 3.031 3.2.893 0 1.617-.27 2.29-.725l.556 1.01zM22.288 9.98c-1.296 0-2.441 1.044-2.626 2.846h4.9c0-1.853-.842-2.846-2.274-2.846zm7.253 8.15H28.16V8.984h1.768l1.802 4.294c.127.365.257.718.386 1.068.145.392.288.78.422 1.172h.084l.217-.554c.218-.552.436-1.105.625-1.686l1.751-4.294h1.768v9.143h-1.397v-4.125c0-.792.097-2.15.164-3.092l.004-.056h-.067c-.187.502-.399 1.02-.6 1.516l-.26.639-1.733 4.26h-1.028l-1.768-4.26a40.892 40.892 0 0 1-.841-2.155h-.085c.017.302.04.651.064 1.013.05.765.105 1.586.105 2.135v4.125zm18.32-4.564c0 3.031-2.004 4.782-4.243 4.782-2.24 0-4.243-1.75-4.243-4.782 0-3.047 2.003-4.815 4.243-4.815s4.243 1.768 4.243 4.815zm-6.887 0c0 2.105 1.061 3.503 2.644 3.503 1.583 0 2.66-1.398 2.66-3.503 0-2.104-1.077-3.536-2.66-3.536-1.583 0-2.644 1.432-2.644 3.536zm10.835 4.563h-1.533V8.985h1.533v3.705h4.411V8.985h1.532v9.143H56.22v-4.074h-4.41v4.074zm12.576 0h-1.532v-7.896H59.79V8.985h7.678v1.247h-3.082v7.896zm9.822-1.094c-.876.724-1.903 1.313-3.031 1.313-1.532 0-2.677-.943-2.677-2.593 0-1.986 1.734-2.98 5.624-3.418 0-1.178-.388-2.307-1.886-2.307-1.061 0-2.02.489-2.745.977l-.606-1.06c.842-.54 2.138-1.196 3.603-1.196 2.223 0 3.166 1.498 3.166 3.755v5.623h-1.263l-.135-1.094h-.05zm-4.21-1.38c0 1.043.707 1.464 1.617 1.464.892 0 1.616-.42 2.509-1.212v-2.56c-3.082.371-4.126 1.129-4.126 2.307z" fill="#fff"/></svg>