<svg width="83" height="26" fill="none" xmlns="http://www.w3.org/2000/svg"><path fill-rule="evenodd" clip-rule="evenodd" d="M2.02 0A2.02 2.02 0 0 0 0 2.02v21.553a2.02 2.02 0 0 0 2.02 2.02h78.803a2.02 2.02 0 0 0 2.02-2.02V2.021A2.02 2.02 0 0 0 80.823 0H2.02zm8.061 17.177H8.55V8.034h7.308v9.143h-1.532V9.28H10.08v7.897zm10.409 3.856h-1.532V8.034h1.263l.134 1.044h.05c.826-.673 1.853-1.28 2.914-1.28 2.357 0 3.637 1.853 3.637 4.665 0 3.132-1.87 4.933-3.974 4.933-.825 0-1.7-.387-2.526-1.06l.034 1.6v3.097zm0-5.876c.825.707 1.633.96 2.24.96 1.515 0 2.626-1.364 2.626-3.637 0-2.021-.673-3.385-2.408-3.385-.774 0-1.566.438-2.458 1.263v4.799zm16.705-2.543c0 3.031-2.003 4.782-4.243 4.782s-4.243-1.75-4.243-4.782c0-3.047 2.004-4.815 4.243-4.815 2.24 0 4.243 1.768 4.243 4.815zm-6.886 0c0 2.105 1.06 3.503 2.643 3.503 1.583 0 2.66-1.398 2.66-3.503 0-2.105-1.077-3.536-2.66-3.536-1.583 0-2.643 1.431-2.643 3.536zm16.02 3.84c-.808.521-1.785.942-3.03.942-2.425 0-4.379-1.768-4.379-4.782 0-2.963 2.004-4.815 4.126-4.815 2.323 0 3.637 1.683 3.637 4.293 0 .337-.034.657-.068.876h-6.162c.1 1.953 1.296 3.2 3.03 3.2.893 0 1.617-.27 2.29-.725l.556 1.01zm-3.267-7.426c-1.296 0-2.441 1.044-2.626 2.845h4.9c0-1.852-.842-2.845-2.273-2.845zm11.109 1.532l-.775 1.802 3.115 4.815h-1.684l-2.559-4.125h-1.802v4.125h-1.532V8.034h1.532v3.772h1.768l.91-2.037c.707-1.617 1.397-1.97 2.39-1.97.203 0 .405.05.54.1l-.27 1.449a.816.816 0 0 0-.303-.05c-.488 0-.859.168-1.33 1.262zm7.343 6.617h-1.532V9.28h-3.065V8.034h7.678V9.28h-3.081v7.897zm9.821-1.094c-.875.724-1.902 1.313-3.03 1.313-1.533 0-2.678-.943-2.678-2.593 0-1.987 1.735-2.98 5.624-3.418 0-1.179-.387-2.307-1.886-2.307-1.06 0-2.02.489-2.744.977l-.606-1.06c.841-.54 2.138-1.196 3.603-1.196 2.222 0 3.165 1.498 3.165 3.754v5.624H71.52l-.134-1.094h-.05zm-4.21-1.38c0 1.043.708 1.464 1.617 1.464.893 0 1.617-.42 2.51-1.212v-2.56c-3.082.37-4.126 1.129-4.126 2.307z" fill="#fff"/></svg>