<svg width="112" height="25" fill="none" xmlns="http://www.w3.org/2000/svg"><path fill-rule="evenodd" clip-rule="evenodd" d="M2.02 0A2.02 2.02 0 0 0 0 2.02v20.96A2.02 2.02 0 0 0 2.02 25h107.96a2.02 2.02 0 0 0 2.02-2.02V2.02A2.02 2.02 0 0 0 109.979 0H2.021zm6.91 17H7.55V7.857h1.767l1.802 4.294c.127.364.257.718.386 1.067.145.393.288.78.422 1.172h.084l.217-.554c.218-.552.436-1.104.625-1.685l1.751-4.294h1.768V17h-1.397v-4.125c0-.793.097-2.151.164-3.092l.004-.057h-.067a53.941 53.941 0 0 1-.6 1.517c-.09.218-.177.432-.259.638l-1.734 4.26h-1.027l-1.768-4.26a40.902 40.902 0 0 1-.842-2.155H8.76c.017.302.04.652.064 1.013.05.766.105 1.587.105 2.136V17zm15.66-1.095c-.876.725-1.903 1.314-3.031 1.314-1.532 0-2.677-.943-2.677-2.593 0-1.987 1.734-2.98 5.623-3.418 0-1.179-.387-2.307-1.885-2.307-1.061 0-2.02.488-2.745.977l-.606-1.061c.842-.54 2.138-1.196 3.603-1.196 2.223 0 3.166 1.499 3.166 3.755V17h-1.263l-.135-1.095h-.05zm-4.21-1.38c0 1.044.707 1.465 1.617 1.465.892 0 1.616-.421 2.509-1.213v-2.559c-3.082.37-4.126 1.128-4.126 2.307zM32.248 17h-1.532V9.103H27.65V7.857h7.678v1.246h-3.081V17zm11.568-.724c-.808.522-1.785.943-3.03.943-2.425 0-4.379-1.768-4.379-4.782 0-2.964 2.004-4.816 4.126-4.816 2.323 0 3.637 1.684 3.637 4.294 0 .337-.034.657-.068.876H37.94c.1 1.953 1.296 3.199 3.03 3.199.893 0 1.617-.27 2.29-.724l.556 1.01zM40.55 8.85c-1.297 0-2.442 1.044-2.627 2.846h4.9c0-1.852-.842-2.846-2.273-2.846zm7.404 12.006H46.42v-13h1.263l.135 1.045h.05c.825-.674 1.853-1.28 2.913-1.28 2.358 0 3.637 1.852 3.637 4.664 0 3.132-1.869 4.934-3.973 4.934-.825 0-1.701-.387-2.526-1.06l.034 1.599v3.098zm0-5.877c.825.708 1.633.96 2.239.96 1.516 0 2.627-1.364 2.627-3.637 0-2.02-.674-3.384-2.408-3.384-.775 0-1.566.438-2.458 1.263v4.798zM58.294 17h-1.431V7.857h1.498v3.822c0 .617-.041 1.345-.084 2.099-.025.42-.049.847-.067 1.269h.067c.354-.556.876-1.398 1.213-1.953l3.468-5.237h1.431V17h-1.498v-3.822c0-.789.057-1.759.114-2.743l.037-.642h-.067l-.206.335c-.33.533-.73 1.18-1.006 1.635L58.294 17zm14.327-1.095c-.876.725-1.903 1.314-3.03 1.314-1.533 0-2.678-.943-2.678-2.593 0-1.987 1.734-2.98 5.624-3.418 0-1.179-.388-2.307-1.886-2.307-1.06 0-2.02.488-2.745.977L67.3 8.817c.842-.54 2.139-1.196 3.603-1.196 2.223 0 3.166 1.499 3.166 3.755V17h-1.263l-.135-1.095h-.05zm-4.21-1.38c0 1.044.708 1.465 1.617 1.465.892 0 1.616-.421 2.509-1.213v-2.559c-3.082.37-4.126 1.128-4.126 2.307zm10.448-.354c-.253 2.038-1.061 3.048-2.391 3.048-.337 0-.573-.05-.842-.135l.303-1.414c.118.034.236.067.404.067.64 0 1.078-.59 1.23-1.953.174-1.366.333-2.733.493-4.104l.213-1.823h5.607V17h-1.549V9.103h-2.845c-.054.444-.106.89-.158 1.335-.146 1.245-.292 2.494-.465 3.733zm15.891-1.734c0 3.03-2.003 4.782-4.243 4.782s-4.243-1.751-4.243-4.782c0-3.048 2.004-4.816 4.243-4.816 2.24 0 4.243 1.768 4.243 4.816zm-6.886 0c0 2.105 1.06 3.502 2.643 3.502 1.583 0 2.66-1.397 2.66-3.502 0-2.105-1.077-3.536-2.66-3.536-1.583 0-2.644 1.431-2.644 3.536zM100.82 17h-3.654V7.857h3.519c2.004 0 3.367.657 3.367 2.324 0 1.01-.589 1.667-1.532 1.936v.084c1.027.236 1.92.876 1.92 2.172 0 1.836-1.499 2.627-3.62 2.627zm-2.139-8.049v2.745h1.734c1.533 0 2.122-.522 2.122-1.38 0-.86-.606-1.365-2.021-1.365h-1.835zm0 3.84v3.114h1.97c1.532 0 2.273-.589 2.273-1.616 0-.926-.808-1.498-2.374-1.498h-1.869z" fill="#fff"/></svg>