<svg width="112" height="83" fill="none" xmlns="http://www.w3.org/2000/svg"><path d="M83.93 52.964c0-3.8 0-7.588.014-11.389 0-.291.066-.622.198-.887.49-1.033.98-2.079 1.537-3.072a1.3 1.3 0 0 1 .768-.583 2466.795 2466.795 0 0 1 17.095-3.906 1.56 1.56 0 0 1 .98.132c2.013 1.086 4.013 2.225 6.026 3.324.41.225.542.477.542.927-.079 5.47-.145 10.938-.225 16.407 0 .252-.132.57-.304.755a1417.283 1417.283 0 0 1-7.469 7.972c-.185.198-.463.33-.728.41-5.085 1.563-10.17 3.112-15.242 4.675-.424.132-.689.093-.954-.278-.33-.464-.688-.927-1.125-1.298-.94-.834-1.139-1.854-1.126-3.072.067-3.364.014-6.74.014-10.117zm-8.143-30.537c.013.198.026.344.04.49.013.132.04.251.066.476-.94-.158-1.814-.304-2.702-.463a423.492 423.492 0 0 1-4.356-.781c-1.298-.239-1.854-.874-1.894-2.212-.04-1.496-.053-2.992-.093-4.502-.013-.543.013-1.007-.516-1.47-.636-.556-.715-1.51-.583-2.357.106-.636.066-1.39.887-1.695.093-.04.106-.397.106-.596-.026-1.748-.066-3.483-.08-5.23 0-.544.054-1.1.12-1.643.053-.384.265-.556.689-.49 5.588.768 11.19 1.523 16.778 2.278l8.528 1.152c.264.04.53.066.78.146.756.225 1.232 1.02 1.126 1.734-.185 1.298-.463 2.61-.437 3.92.093 4.675.292 9.35.464 14.01.053 1.285-.212 1.576-1.523 1.351-1.788-.304-3.562-.636-5.337-.967-.278-.052-.556-.132-.847-.145-.397-.027-.57-.212-.649-.596-.04-.172-.265-.41-.437-.437-3.284-.662-6.581-1.298-9.865-1.947-.04-.04-.106-.026-.265-.026zm-7.68-8.197a354.49 354.49 0 0 1-.213-3.907c-.768 1.272-.675 2.848.212 3.907zm9.375-.053c.026-.053.066-.12.066-.172.013-.265.013-.53 0-.782-.026-.82-.04-.834-.914-.807-.33 1.43-.198 1.721.848 1.76zm5.615-.199v1.205c.278.04.542.066.807.106.16-1.258.133-1.297-.807-1.31zm-1.351.914c.172-1.245.026-1.443-.848-1.218-.159 1.125-.106 1.205.848 1.218zm-1.854-1.51c-.212 1.113-.133 1.47.781 1.272v-1.166c-.265-.04-.503-.066-.781-.106zm-.331 1.14c.251-1.18.159-1.325-.768-1.285-.172 1.218-.16 1.245.768 1.284zm-1.854-1.47c-.238 1.178-.08 1.39.834 1.218.106-1.219.106-1.219-.834-1.219zm7.813 2.462c.198-1.152.08-1.39-.795-1.205-.159 1.192-.106 1.258.795 1.205zm-2.728-.37c.238-1.258.172-1.378-.768-1.338v1.192c.278.053.53.106.768.146zm1.642-1.43c-.053 0-.12.013-.172.013v1.642c.08 0 .172-.014.251-.014l-.08-1.642zM.001 16.455c-.053-3.39 1.603-6.211 4.092-7.151 1.205-.45 2.516-.623 3.787-.874 8.237-1.642 16.474-3.271 24.71-4.9 3.496-.688 6.648 1.444 7.641 5.191.583 2.185.57 2.198-1.589 2.582-9.958 1.801-19.916 3.616-29.874 5.403-.477.08-.596.278-.636.729-.132 1.523-.556 2.953-1.43 4.21-1.007 1.444-1.854 1.63-3.337.716C1.02 20.904.067 18.666 0 16.455zm44.428 49.102c-.053 3.165-.517 6.197-2.013 8.991-1.35 2.543-3.324 4.25-6.224 4.9-3.575.808-7.084 1.84-10.66 2.622-2.503.556-4.886-.027-6.992-1.483-1.986-1.378-2.463-3.139-1.443-5.31.45-.954 1.072-1.815 1.629-2.715.37-.596.794-1.165 1.139-1.788.556-.98.463-1.523-.331-2.304-.332-.318-.676-.636-1.06-.9-4.674-3.205-5.204-10.727-1.232-14.805a37.898 37.898 0 0 0 1.576-1.695c.583-.702.49-1.113-.317-1.497-.636-.304-1.311-.53-1.96-.794-.384-.16-.795-.292-1.14-.517-.49-.291-.49-.715.027-.953.49-.225 1.033-.371 1.563-.503 3.734-.9 7.469-1.775 11.19-2.689 3.085-.768 5.694.252 8.064 2.132 2.635 2.093 4.423 4.834 5.774 7.88 1.602 3.668 2.383 7.495 2.41 11.428zM15.48 47.707v.237c.53.212 1.046.41 1.576.623.61.251 1.245.45 1.828.768.82.437.926 1.046.384 1.814-.239.344-.543.636-.821.953-.477.53-.954 1.033-1.417 1.576-3.125 3.616-2.635 10.303 1.218 13.243.53.397 1.033.82 1.523 1.27.927.835 1.086 1.616.49 2.715-.345.636-.782 1.232-1.166 1.841-.569.914-1.191 1.814-1.668 2.781-.887 1.84-.517 3.284 1.086 4.569.291.238.609.437.94.622 2.94 1.669 5.999 1.417 8.938.199 2.755-1.152 5.403-2.596 8.052-3.986.755-.398 1.417-.967 2.052-1.55.65-.582.662-1.006.199-1.76a8.351 8.351 0 0 1-1.178-3.417c-.504-4.344-.61-8.66.542-12.938.49-1.801-.092-2.78-1.84-3.377-1.152-.384-2.33-.675-3.51-.953-3.27-.781-6.382-1.867-9.018-4.079-1.218-1.02-2.7-1.563-4.277-1.84-1.403-.265-2.648.304-3.933.688z" fill="#C7BDB1"/><path d="M35.477 45.098c2.278-.371 4.41-1.417 6.846-1.179 2.132.199 4.158-.662 6.211-1.165 2.08-.503 4.145-1.046 6.224-1.576.662-.172 1.284-.212 1.708.026-3.099.768-6.343 1.576-9.587 2.37 1.788.319 3.257 1.166 4.595 2.305.159.132.543.106.794.04a629.428 629.428 0 0 0 8.515-2.225c.41-.106.715-.08.993.252.676.78 1.351 1.562 2.146 2.476-3.364.887-6.569 1.721-9.826 2.582.251.437.41.834.675 1.139.12.132.464.185.662.132a472.34 472.34 0 0 0 8.515-2.211c.622-.172.967-.08 1.086.675-3.205.834-6.41 1.682-9.654 2.53 2.49 6.435 3.06 12.725-1.271 18.777 3.059-.795 6.078-1.59 9.11-2.37.014.013.04.026.054.04-.517.264-.994.635-1.536.78a452.065 452.065 0 0 1-9.495 2.41c-.848.213-1.55.61-2.185 1.166a6.886 6.886 0 0 1-3.072 1.616c-1.39.33-2.768.688-4.145 1.032-.04-.066-.066-.132-.106-.198.212-.12.41-.291.636-.344 1.218-.331 2.436-.623 3.654-.927 1.047-.265 1.894-.874 2.781-1.47 2.49-1.682 2.86-4.357 3.284-6.94.755-4.581-.119-8.951-2.158-13.11-.225-.462-.477-.516-.927-.396-2.384.622-4.794 1.191-7.177 1.854-.729.198-.954-.08-1.126-.755 2.78-.715 5.548-1.417 8.409-2.145-.318-.464-.543-.9-.86-1.245-.147-.146-.504-.186-.742-.12a397.94 397.94 0 0 0-7.111 1.815c-.438.119-.702.066-.967-.358-.596-.913-1.285-1.774-1.987-2.74 2.517-.65 4.993-1.272 7.681-1.96-1.258-.703-2.225-1.365-3.628-1.418-2.238-.092-4.251.65-6.357 1.086-.225.04-.463 0-.688 0 .026-.066.026-.159.026-.251z" fill="#C7BDB1"/><path d="M44.177 35.364c2.437.49 4.94-.251 7.39.265-2.874.556-5.748.861-8.767.292.305 2.582.53 5.124 2.093 7.31-.835.542-1.258.463-1.801-.371-1.219-1.92-1.722-4.092-2.106-6.29-.04-.239-.066-.477-.093-.729-.159-1.218.12-2.158 1.325-2.807 2.582-1.39 5.045-3.006 7.667-4.304 2.78-1.39 5.787-1.615 8.846-1.06.08.014.158.054.238.226h-.583c-1.668-.04-3.31.185-4.873.741-.37.133-.662.504-.98.768.358.252.689.61 1.086.742.49.159 1.06.08 1.563.212.622.172 1.231.45 1.814.741.172.093.331.424.318.636 0 .133-.318.305-.53.358a372.435 372.435 0 0 1-7.64 1.602c-1.418.291-2.861.477-4.278.781-.291.067-.53.424-.794.662.026.067.066.146.105.225zM69.06.246c1.191-.463 2.383-.159 3.562 0L90.71 2.709c2.224.305 4.462.583 6.687.914 1.827.265 2.145.622 2.198 2.49.133 5.005.239 10.01.358 15.016.04 1.616.053 3.218.119 4.833.04.716-.199 1.18-.9 1.404-.45.146-.874.358-1.325.543-.145-5.707-.291-11.348-.424-16.976-.04-1.457-.066-2.914-.092-4.37-.027-1.63-.636-2.331-2.238-2.556-8.555-1.232-17.11-2.45-25.677-3.682C69.311.3 69.18.273 69.06.246z" fill="#C7BDB1"/><path d="M79.627 51.547h-1.073v-.808c0-3.152.013-6.303-.013-9.468 0-.358-.172-.768-.397-1.047-.676-.847-1.43-1.615-2.106-2.463-.198-.251-.291-.609-.357-.94-.371-1.973.98-3.337 1.8-4.886.107-.199.517-.291.809-.358 4.21-.966 8.421-1.92 12.633-2.887.251-.053.516-.106.768-.185a8.02 8.02 0 0 1 4.224-.185c1.483.33 2.807-.358 4.078-1.033a.352.352 0 0 0 .146-.133c.689-1.35 2.132-.82 3.178-1.258.12-.04.318.106.477.199 2.119 1.192 4.211 2.41 6.343 3.575.57.318.397.729.397 1.258-.662-.344-1.218-.649-1.774-.94-1.563-.834-3.099-1.681-4.675-2.476-.317-.159-.768-.238-1.112-.159-7.707 1.708-15.4 3.443-23.108 5.204-.291.066-.622.331-.781.596-.622 1.02-1.179 2.066-1.775 3.099-.33.582-.29 1.125.16 1.642 2.688 3.085 2.065 2.278 2.118 5.906.027 2.317.013 4.635.013 6.952.027.238.027.477.027.795zM58.612 40.886c2.026-1.377 4.038-1.589 6.144-.874 2.225.768 3.946 2.238 5.284 4.132 3.562 5.072 4.727 10.62 3.072 16.645-.61 2.238-1.814 4.172-3.867 5.416-1.178.716-2.45.994-3.96.835.742-.61 1.272-1.219 2.146-1.51 2.132-.715 3.31-2.436 4.012-4.462 1.523-4.357.954-8.608-.82-12.753-.994-2.304-2.384-4.33-4.477-5.787-1.575-1.112-3.284-1.589-5.257-1.231-.649.093-1.39-.239-2.277-.41zm5.482-20.075c-1.258-.145-2.384-.278-3.523-.41-.357-.04-.45-.239-.437-.583.239-3.946.464-7.88.715-11.825.053-.835.53-1.364 1.351-1.338 1.218.04 2.437.212 3.655.331l.04.278c-.676.278-1.325.676-2.04.821-.688.146-1.43.027-2.171.146.794.066 1.602.146 2.41.212V20.81zm12.037 1.96c3.284.649 6.423 1.258 9.574 1.88-.45 1.603-1.946 2.702-1.827 4.569-1.219.066-2.477.146-3.748.225l-.86.04c-1.206.066-1.841-.318-2.12-1.51-.37-1.668-.661-3.363-1.019-5.204zm-22.194-6.873c-1.774-.344-3.47-.662-5.151-.993-.45-.093-.755-.675-.596-1.139.45-1.284.9-2.582 1.39-3.853.067-.186.305-.371.504-.41 1.443-.305 2.9-.57 4.343-.848.106-.027.225-.066.318-.053l5.601 1.112v.199c-.913.159-1.84.304-2.754.463-.61.106-1.218.225-1.828.278-.463.04-.635.265-.728.689-.278 1.271-.596 2.53-.9 3.787-.053.238-.12.464-.199.768z" fill="#C7BDB1"/><path d="M77.137 51.017c-.569.185-1.085.357-1.615.503-.345.093-.503.238-.503.636.026 2.29-.04 4.595.066 6.886.119 2.516-1.1 4.462-2.503 6.33-.41.53-1.245.741-1.894 1.046 4.33-4.225 4.754-9.402 3.708-14.911-.596-3.191-1.933-6.091-4.025-8.607-1.735-2.093-3.84-3.629-6.608-4.092v-.186c.503-.04 1.02-.159 1.51-.106 2.992.371 5.177 2.08 7.031 4.317.344.41.689.821.967 1.258.304.503.635.848 1.297.768.16-.026.424.212.517.398a20.57 20.57 0 0 1 2.052 5.76zm33.013 7.217c-.119.159-.225.344-.357.49-2.172 2.357-4.33 4.7-6.515 7.045a1.706 1.706 0 0 1-.702.437c-8.078 2.476-16.156 4.94-24.22 7.429-.543.172-.9.119-1.219-.371a3.475 3.475 0 0 0-.728-.848c-.86-.701-.98-1.615-.848-2.622.027-.238.173-.49.332-.675.768-.86 1.562-1.682 2.317-2.543.199-.225.331-.569.344-.86.027-1.854.013-3.708.013-5.562v-.742c.358-.079.65-.132 1.06-.225 0 .57.026 1.06-.013 1.55-.027.463.172.701.596.807.211.053.423.12.622.212.874.345 1.364 1.06 1.284 1.88-.079.782-.728 1.444-1.615 1.616-.252.053-.517.067-.834.106.026 1.51-1.126 2.357-1.987 3.35-.715.822-.741 1.63.013 2.358.411.397.782.847 1.113 1.31.278.385.57.411 1.02.279 7.614-2.344 15.215-4.662 22.829-7.005.331-.106.676-.332.914-.583 1.999-2.145 3.986-4.304 5.972-6.462.146-.16.292-.318.45-.477.067.013.12.066.159.106zm-28.92 5.125a1.17 1.17 0 0 0-1.14-1.205c-.635-.027-1.165.49-1.191 1.138-.027.663.53 1.258 1.165 1.258.636 0 1.165-.556 1.165-1.191z" fill="#C7BDB1"/><path d="M64.677 66.96c3.88-5.283 3.442-10.884 1.496-16.578-.927-2.675-2.357-5.099-4.529-6.966-.967-.834-2.105-1.483-3.31-2.317.926.278 1.814.37 2.529.794 1.112.649 2.277 1.364 3.099 2.318 4.489 5.27 5.892 11.322 4.144 18.035-.516 1.934-1.575 3.59-3.43 4.715zM53.248 8.496c-1.642.278-3.297.556-4.94.847-1.058.186-1.39.57-1.39 1.642 0 1.232-.013 2.463.014 3.695.013.357.119.728.185 1.139-.609 0-1.245.066-1.854-.014-.596-.079-.927-.53-.927-1.112a126.752 126.752 0 0 1 0-4.489c.014-.622.371-1.033.993-1.152 1.934-.344 3.854-.742 5.787-1.006.702-.093 1.444.158 2.172.251-.013.053-.026.12-.04.199zm19.943 58.451c-.08.331-.08.596-.198.782-.345.516-.676 1.046-1.113 1.47-1.245 1.218-2.542 2.383-3.827 3.562-.145.132-.344.198-.49.33-.132.12-.238.292-.344.45.185.094.384.266.556.252 1.165-.079 2.33-.198 3.496-.304l3.297-.318c.225-.026.464 0 .689 0 .013.053.04.12.053.172-.146.066-.278.186-.424.199-2.41.238-4.833.463-7.243.662-.384.027-.782-.08-1.152-.199-2.093-.675-4.185-1.39-6.277-2.079-1.166-.384-1.523-.768-1.92-2.145.516.185.98.358 1.443.53 1.602.609 3.205 1.245 4.82 1.84.49.186 1.02.265 1.536.345.623.093 1.153-.093 1.642-.53.9-.808 1.854-1.563 2.755-2.37.874-.821 1.708-1.682 2.701-2.649zM38.536 4.245c1.814-.33 3.615-.649 5.522-.993 0 .437-.013.781 0 1.126.014.569.292.913.9.913.663 0 1.338.066 1.987-.04.37-.052.689-.383 1.179-.688.595.291 1.39.689 2.357 1.165-.61.133-1.033.239-1.457.331-1.55.345-3.099.715-4.648 1.02-.291.066-.649 0-.94-.106a16.02 16.02 0 0 1-1.682-.768c-1.086-.57-2.158-1.165-3.244-1.735.013-.08.013-.145.026-.225zm22.552 25.24c1.099.106 2.145.212 3.297.33 0 .901-.013 1.841.013 2.768.014.279.16.557.252.822.08-.265.199-.53.212-.808.026-.768 0-1.536.026-2.318 0-.185.133-.357.212-.543.08.172.212.345.212.517.027 1.006.013 2.013.013 3.006.093.053.133.08.172.08 1.378-.067 1.378-.067 1.39-1.457.014-.663-.012-1.325.014-1.987.013-.172.146-.33.239-.503.079.027.158.053.238.066 0 1.245.013 2.503-.013 3.748 0 .145-.239.37-.41.424-1.802.437-3.63.41-5.43 0-.172-.04-.41-.265-.41-.41-.04-1.232-.027-2.477-.027-3.735zm-.715-18.963c-.133.132-.252.291-.424.384-1.483.808-2.145 2.066-2.132 3.747.013 2.755.053 5.51-.026 8.264-.053 2.092.397 3.853 2.529 4.793l-.093.133c-.225-.053-.463-.093-.675-.172-1.457-.57-2.344-1.92-2.344-3.589-.014-1.722 0-3.443 0-5.165 0-1.628-.014-3.257.013-4.9.027-1.668.98-3.058 2.397-3.548.212-.08.45-.093.675-.146.014.08.053.146.08.199zm3.972 15.944v2.926c-1.046.053-2.079-.026-3.085-.33-.093-.027-.185-.239-.199-.371-.013-.861-.013-1.709-.013-2.57 1.152.12 2.212.239 3.297.345z" fill="#C7BDB1"/><path d="M60.32 11.277c-.146 2.436-.291 4.727-.437 7.177-1.311-1.073-1.748-2.344-1.656-3.814.107-1.403.676-2.555 2.093-3.363zM93.028 32.49c.464.093.755.173 1.046.213.186.026.384.04.556 0 1.537-.345 3.073-.702 4.596-1.06 0-.119-.014-.238-.014-.384.106.014.186-.013.225.027.12.08.265.265.318.238.927-.45.914.37 1.232.9-.901.226-1.761.438-2.622.65-1.285.304-2.57.556-3.84.9-.544.146-.875.093-1.047-.477-.066-.278-.225-.516-.45-1.006zm-32.364-5.68c-1.178.08-1.854-.41-2.185-1.563-.41-1.443.053-2.926 1.152-3.522-.053.596.172 1.006.742 1.218.106.04.119.384.146.596.105.623-.2 1.271.278 1.894.198.265-.067.874-.133 1.377zm7.508 2.41c.689.04 1.285.132 1.854.066.318-.026.623-.305.914-.49.675-.45 1.35-.914 2.026-1.364.199-.132.424-.212.649-.33.172.502.318.979.49 1.495-.9.517-1.775 1.126-2.728 1.563-.57.265-1.271.358-1.907.358-.649.013-1.073-.424-1.298-1.298zm7.27 23.042c.133.053.212.08.292.119 2.569 1.284 2.224.834 2.224 3.602 0 .755.014 1.496 0 2.251-.013.649-.344.967-.98.993-.476.027-.966 0-1.522 0-.014-2.304-.014-4.608-.014-6.965zm.331 3.681c-.013.662-.013 1.311-.013 1.973v.066c.053.146.08.371.186.437.715.384 1.602-.106 1.615-.927.013-.741-.066-1.496-.026-2.237.04-.795-.318-1.285-.94-1.67-.543-.33-.808-.198-.822.451-.013.636 0 1.271 0 1.907zM64.332 25.605c-1.06-.146-2.079-.265-3.072-.45-.159-.027-.37-.305-.397-.49-.053-.49-.014-1.007-.014-1.55 1.18.093 2.305.186 3.483.292v2.198z" fill="#C7BDB1"/><path d="M60.068 21.102c1.364.133 2.635.252 3.96.371v1.63c-1.232-.186-2.424-.358-3.602-.544-.398-.066-.464-.344-.41-.688.026-.252.039-.517.052-.768zm21.598 31.265c-1.072.305-2.145.61-3.218.9-.145.04-.33.094-.436.027-.769-.45-1.523-.927-2.37-1.443.555-.172 1.072-.344 1.588-.503.093-.027.239-.014.305.053.728.635 1.589.49 2.45.49.582 0 1.165.172 1.748.265-.027.079-.053.145-.067.211zM46.23 4.894c-1.814.199-1.814.199-1.814-1.496 0-1.073.106-1.219 1.178-1.258.57-.027 1.14.092 1.695.158v.252c-.318.053-.648.12-1.059.185v2.159zm-7.76-.014c1.84.597 3.337 3.272 3.39 5.973.026 1.788-.662 4.105-2.476 4.847 1.51-1.735 2.25-3.589 2.052-5.747-.212-2.132-1.139-3.854-2.966-5.072zm32.377 18.5c-1.364 1.59-1.377 2.86-.106 4.503-1.059-.014-1.906-.993-1.933-2.212-.013-1.218.821-2.198 2.04-2.29zm3.311 4.33c-.239-1.191.172-1.721 2.132-2.211.106.477.225.954.291 1.443.013.12-.159.371-.278.398-.702.145-1.417.251-2.145.37z" fill="#C7BDB1"/><path d="M69.536 28.756c-1.708-.198-2.767-1.51-2.675-3.164.08-1.483 1.14-2.715 2.331-2.715-2.675 1.523-2.145 4.926.344 5.88zm-4.661-.9c0-.37-.013-.755.013-1.126.014-.119.133-.225.212-.344.08.106.225.212.225.318a63.2 63.2 0 0 1 0 2.304c0 .106-.159.212-.238.318-.066-.12-.185-.225-.199-.344-.04-.371-.013-.755-.013-1.126zm.437-3.483c0 .292.013.57-.013.861 0 .08-.12.159-.172.225-.08-.08-.225-.159-.239-.238a22.59 22.59 0 0 1-.013-1.642c0-.093.146-.172.225-.252.067.093.199.172.212.265.027.252.013.516 0 .781 0 0 .013 0 0 0zm11.773 4.463h-2.159c.768-.463 1.92-.423 2.159 0zM68.106 14.23c-.887-1.06-.98-2.636-.212-3.907.08 1.364.146 2.57.212 3.907zM81.23 63.359c-.014.649-.544 1.192-1.166 1.192-.649 0-1.192-.596-1.165-1.258.026-.65.556-1.166 1.191-1.14a1.162 1.162 0 0 1 1.14 1.206zm-5.457-7.416c0-.636-.013-1.271 0-1.907.014-.649.292-.781.822-.45.622.384.993.887.94 1.668-.04.742.04 1.497.026 2.238a1.089 1.089 0 0 1-1.615.927c-.106-.053-.133-.291-.186-.437-.013-.013 0-.04 0-.066 0-.662 0-1.311.013-1.973zm-38.68 15.176c.423.94.887 1.894 1.284 2.873.08.186-.013.557-.159.715-1.787 1.974-4.303 2.49-6.82 1.444a10.208 10.208 0 0 1-4.144-3.205c-4.317-5.535-5.814-11.772-4.423-18.671.291-1.47.9-2.847 1.748-4.026 1.536.768 3.032 1.51 4.568 2.278-.874 1.125-1.496 2.45-1.734 3.933-.729 4.7.344 8.938 3.443 12.593 1.072 1.258 2.41 2.172 4.118 2.29.702.014 1.43-.158 2.119-.224z" fill="#C7BDB1"/><path d="M34.974 77.276c-.913.464-1.682.914-2.503 1.271-.211.093-.556-.026-.794-.132-2.225-1.06-3.973-2.688-5.416-4.648-3.258-4.463-4.82-9.521-5.072-15.003-.133-2.9.225-5.721 1.271-8.436.16-.424.371-.834.583-1.324.397.265.742.477 1.033.675-.517 1.14-1.113 2.198-1.483 3.337-1.364 4.211-1.06 8.436.172 12.633.953 3.271 2.503 6.211 4.94 8.634 1.496 1.497 3.204 2.622 5.362 2.927.57.053 1.166.04 1.907.066zm-4.079-19.704c.172 1.642.345 3.165.517 4.714-1.814-.384-1.828-2.86-.517-4.714zm1.934-1.96c.344.437.675.688.715.966.066.45-.331.65-.728.65-.41 0-.795-.226-.715-.663.053-.291.384-.53.728-.953z" fill="#C7BDB1"/></svg>