<svg width="97" height="58" fill="none" xmlns="http://www.w3.org/2000/svg"><path fill-rule="evenodd" clip-rule="evenodd" d="M48.665 0c-8.732 0-15.81 6.004-15.81 13.41 0 4.557-2.682 8.584-6.78 11.007H8.237a8.006 8.006 0 0 0-8.006 8.006v22.816a2 2 0 0 0 2.002 2h92.464a2.001 2.001 0 0 0 2.002-2V32.422a8.006 8.006 0 0 0-8.006-8.006H71.255c-4.097-2.423-6.779-6.45-6.779-11.008C64.476 6.004 57.397 0 48.666 0zm0 24.016a5.604 5.604 0 1 0 0-11.207 5.604 5.604 0 0 0 0 11.207z" fill="#FFB015"/><circle cx="18.644" cy="39.627" r="2.802" fill="#F48922"/><circle cx="28.651" cy="39.627" r="2.802" fill="#F48922"/><circle cx="38.658" cy="39.627" r="2.802" fill="#F48922"/><ellipse cx="48.465" cy="39.627" rx="2.602" ry="2.802" fill="#F48922"/><circle cx="58.272" cy="39.627" r="2.802" fill="#F48922"/><circle cx="68.279" cy="39.627" r="2.802" fill="#F48922"/><circle cx="78.286" cy="39.627" r="2.802" fill="#F48922"/></svg>