<svg width="180" height="180" fill="none" xmlns="http://www.w3.org/2000/svg"><path d="M132.901 138.595a3.963 3.963 0 0 0-2.809 1.163 3.962 3.962 0 0 0-1.164 2.81v22.255a7.238 7.238 0 0 1-7.23 7.231H15.178a7.242 7.242 0 0 1-7.232-7.231V15.176a7.24 7.24 0 0 1 7.232-7.23h106.52a7.236 7.236 0 0 1 7.23 7.23v54.239a3.974 3.974 0 0 0 7.946 0V15.176A15.192 15.192 0 0 0 121.698 0H15.178A15.195 15.195 0 0 0 0 15.177v149.646A15.194 15.194 0 0 0 15.178 180h106.52a15.196 15.196 0 0 0 15.176-15.177v-22.255a3.987 3.987 0 0 0-1.163-2.81 3.978 3.978 0 0 0-2.81-1.163z" fill="#CCC1B7" fill-opacity=".5"/><path d="M96.042 23.732a3.973 3.973 0 0 0 0-7.946H28.526a3.973 3.973 0 0 0-3.973 3.973v12.668a3.972 3.972 0 0 0 3.973 3.973h79.823a3.974 3.974 0 0 0 0-7.946h-75.85v-4.722h63.543zM35.968 45.467a3.973 3.973 0 0 0 0 7.946h62.085a3.973 3.973 0 1 0 0-7.946H35.968zm82.781 17.739H56.663a3.973 3.973 0 1 0 0 7.945h62.086a3.972 3.972 0 1 0 0-7.945zM21.395 84.917a3.972 3.972 0 0 0 3.972 3.973h53.238a3.973 3.973 0 0 0 0-7.946H25.367a3.973 3.973 0 0 0-3.973 3.973zm101.327 0a3.968 3.968 0 0 0-1.164-2.81 3.974 3.974 0 0 0-2.809-1.163h-26.61a3.973 3.973 0 0 0 0 7.946h26.61a3.971 3.971 0 0 0 3.973-3.973zM17.213 99.699a3.971 3.971 0 0 0 3.973 3.973h30.8a3.973 3.973 0 0 0 0-7.946h-30.8a3.972 3.972 0 0 0-3.973 3.973zm78.9 0a3.972 3.972 0 0 0-3.973-3.973H62.576a3.973 3.973 0 1 0 0 7.946H92.14a3.98 3.98 0 0 0 3.973-3.973zM38.002 169.02a26.643 26.643 0 0 0 26.619-26.617 3.972 3.972 0 1 0-7.946 0 18.647 18.647 0 1 1-37.297-.117 18.645 18.645 0 0 1 13.002-17.679 18.645 18.645 0 0 1 11.538.08 3.975 3.975 0 0 0 4.81-5.545 3.977 3.977 0 0 0-2.296-1.993 26.627 26.627 0 0 0-22.2 2.472 26.614 26.614 0 0 0-12.501 18.51 26.618 26.618 0 0 0 26.271 30.889z" fill="#CCC1B7" fill-opacity=".5"/><path d="M44.51 135.059l-8.774 8.773-4.24-4.238a3.973 3.973 0 0 0-5.618 5.619l7.049 7.047a3.967 3.967 0 0 0 5.618 0l11.582-11.584a3.96 3.96 0 0 0 1.164-2.808 3.976 3.976 0 0 0-2.453-3.671 3.984 3.984 0 0 0-3.04 0c-.482.2-.92.493-1.289.862zm134.315-92.53a10.118 10.118 0 0 0-8.686-7.552 10.116 10.116 0 0 0-4.037.37 10.515 10.515 0 0 0-5.958 4.581 3.966 3.966 0 0 0-.444.078 3.976 3.976 0 0 0-2.394 1.874l-8.768 15.536-4.891-2.77a3.974 3.974 0 0 0-5.777 4.517 3.974 3.974 0 0 0 1.861 2.397l4.901 2.775-24.122 42.736c-.056.099-.089.206-.136.309-.044.096-.101.184-.138.286l-5.876 16.153-3.137 6.013a9.674 9.674 0 0 0-.685 9.718c.044.079.098.149.144.226-.982 1.566-2.017 3.06-2.89 4.184a21.058 21.058 0 0 0-4.563-3.733 3.973 3.973 0 0 0-3.49-.251 29.937 29.937 0 0 1-3.887 1.251c.016-.284.036-.564.053-.822.33-5.045.829-12.67-4.916-15.57a8.603 8.603 0 0 0-7.025-.511c-4.11 1.53-6.04 5.788-6.385 6.626a4.29 4.29 0 0 0-.067.177l-7.118 19.948a3.97 3.97 0 0 0 2.406 5.076 3.97 3.97 0 0 0 5.077-2.406l7.079-19.836a4.93 4.93 0 0 1 1.78-2.138c.05-.019.209-.076.672.158.394.198.99 1.496.568 7.956-.211 3.22-.364 5.547.95 7.357.735 1.01 2.87 3.942 11.726.877a9.145 9.145 0 0 1 2.327 2.662 4.794 4.794 0 0 0 4.166 2.712c1.49.052 4.479.104 10.624-10.066a9.96 9.96 0 0 0 7.63-5.223l3.444-5.844 11.642-13.043c.186-.209.349-.437.487-.681l.008-.011 24.106-42.707.671.38c.765.742 3.188 3.354 2.009 5.665-2.805 5.502-11.108 20.474-11.19 20.625a3.964 3.964 0 0 0-.345 3.02c.143.502.384.97.709 1.378a3.955 3.955 0 0 0 2.658 1.475 3.95 3.95 0 0 0 1.545-.128c.502-.143.97-.384 1.378-.709a3.955 3.955 0 0 0 1.002-1.182c.344-.62 8.454-15.245 11.323-20.87 3.4-6.67-1.035-12.917-4.192-15.557a4.021 4.021 0 0 0-.591-.41L168.991 69l8.785-15.564a3.94 3.94 0 0 0 .206-3.44 10.515 10.515 0 0 0 .843-7.466zm-8.735.612a2.21 2.21 0 0 1 1.044 1.386c.051.21.075.423.072.638l-3.424-1.933c.182-.114.377-.204.582-.268a2.21 2.21 0 0 1 1.726.177zm-52.601 92.232a3.908 3.908 0 0 1 .6-1.54c.044-.073.086-.147.126-.222l1.358-2.603.623.374-1.618 2.746a3.885 3.885 0 0 1-1.089 1.245zm7.356-10.466l-1.99-1.197 3.246-8.922 5.171 2.919-6.427 7.2zm11.169-13.647l-6.632-3.744 22.164-39.265 6.626 3.752-22.158 39.257zm19.437-49.929l6.822-12.085 6.631 3.743-6.826 12.094-6.627-3.752z" fill="#CCC1B7" fill-opacity=".5"/></svg>