<svg width="176" height="150" fill="none" xmlns="http://www.w3.org/2000/svg"><path d="M147.665 28.362h-24.161C123.469 12.719 107.384 0 87.617 0 67.851 0 51.766 12.719 51.731 28.362H27.57A27.58 27.58 0 0 0 .022 55.91v66.005a3.35 3.35 0 0 0 .007.821A27.575 27.575 0 0 0 27.569 150h120.096a27.574 27.574 0 0 0 19.47-8.078 27.574 27.574 0 0 0 8.078-19.47V55.91a27.576 27.576 0 0 0-27.548-27.548zM87.617 6.729c16.056 0 29.12 9.7 29.158 21.633h-8.381c-.637-8.817-9.698-15.838-20.777-15.838s-20.14 7.02-20.776 15.838H58.46c.037-11.933 13.1-21.633 29.157-21.633zm14.038 21.633H73.58c.718-5.03 6.853-9.11 14.037-9.11 7.185 0 13.32 4.08 14.038 9.11zM6.751 101.766l14.37-3.957 4.136 15.019-18.506 5.096v-16.158zm161.733 20.686a20.84 20.84 0 0 1-20.819 20.819H27.57a20.842 20.842 0 0 1-20.668-18.409l23.385-6.44a3.364 3.364 0 0 0 2.35-4.137l-5.921-21.506a3.365 3.365 0 0 0-4.138-2.35L6.75 94.786V55.91a20.842 20.842 0 0 1 20.82-20.82h120.095a20.84 20.84 0 0 1 20.819 20.82v66.542z" fill="#CCC1B7" fill-opacity=".5"/><path d="M97.405 93.762a3.363 3.363 0 0 0-4.138-2.35l-40.162 11.06a3.365 3.365 0 0 0-2.35 4.137l5.922 21.505a3.355 3.355 0 0 0 2.828 2.447c.439.055.884.022 1.31-.096l40.162-11.06a3.363 3.363 0 0 0 2.35-4.137l-5.922-21.506zm-35.133 29.322l-4.137-15.018 33.676-9.274 4.135 15.019-33.674 9.273zm65.234-62.961l-13.642-5.264 1.483-2.659a3.366 3.366 0 0 0-5.877-3.28l-1.948 3.492-18.88-7.285a3.364 3.364 0 0 0-4.35 1.927L76.26 67.865a3.364 3.364 0 0 0 1.928 4.35l15.045 5.806-2.672 4.788a3.365 3.365 0 1 0 5.877 3.279l3.136-5.62 17.478 6.744a3.368 3.368 0 0 0 3.648-.819c.305-.32.544-.696.703-1.109l8.03-20.81a3.369 3.369 0 0 0-1.928-4.35zM83.75 67.149l5.608-14.533 14.853 5.73-7.666 13.74L83.75 67.15zm32.587 12.574l-13.451-5.19 7.666-13.74 11.393 4.396-5.608 14.534zm-75.42-37.571a3.364 3.364 0 0 0-3.364 3.365v85.792a3.365 3.365 0 0 0 6.729 0V45.517a3.364 3.364 0 0 0-3.364-3.365zm96.974 0a3.36 3.36 0 0 0-3.108 2.077 3.366 3.366 0 0 0-.256 1.288v85.792a3.364 3.364 0 1 0 6.729 0V45.517a3.366 3.366 0 0 0-3.365-3.365z" fill="#CCC1B7" fill-opacity=".5"/></svg>